<svg xmlns="http://www.w3.org/2000/svg" width="66.91" height="73.04" viewBox="0 0 66.91 73.04"><path d="M37.02,313.06V305.9H34.17v7.16H2.14v57.71H34.17v5.32H2.14v2.85H69.05v-2.85H37.02v-5.32H69.05V313.06H37.02ZM58.03,341.6v5.41H40.48V341.6Zm0-2.85H31.2v-5.87H58.03ZM19.6,315.9v5.58H4.99V315.9h14.6ZM5,324.33H22.45V315.9h5.9v25.69h9.28V347H28.01v2.85h9.62v9.55H28.89v-4.39H26.04v4.39h-.02v2.85H52.16v-7.24H49.31v4.39H40.48v-9.55H58.03v18.06H13.85V353.89h8.92V329.91H11v38H4.99V324.32Zm8.86,8.43h6.08v5.65H13.86v-5.65Zm0,8.49h6.08v9.79H13.86v-9.79Zm47.03,26.66V330.02H31.21V315.89H49.33v8.43H66.22v43.59H60.9Zm5.32-46.43H52.17V315.9H66.21Z" transform="translate(-2.14 -305.9)" fill="#ea563d"/></svg>