<svg viewBox="0 0 126.47 136.3" xmlns="http://www.w3.org/2000/svg" xmlns:xlink="http://www.w3.org/1999/xlink"><linearGradient id="a" gradientUnits="userSpaceOnUse" x1="25.86" x2="97.86" y1="110.7" y2="110.7"><stop offset="0" stop-color="#3ebbc7"/><stop offset=".91" stop-color="#2553a4"/></linearGradient><g transform="translate(-8.76 -4.44)"><path d="m33.81 4.44c-16.59 7.56-25.75 30.83-25 53.15s9.77 52.69 31.46 68.72c-15.4-23.88-17.46-43.31-18.77-55.14 16.69 18.19 35 32.35 63 34.28-31.31-11.45-47.3-33.6-55.83-48.14-8.82-15.04-14.03-41.31 5.14-52.87z" fill="#231815"/><path d="m25.86 80.66c1.3 10 5.47 22 9.9 30.93 20.18 18.67 36.24 28.12 62.1 29.14-36.31-12.67-50.94-34.42-58.86-48.53a83.4 83.4 0 0 1 -13.14-11.54z" fill="url(#a)"/><path d="m65.83 16c24.11 22.65 45 51.71 41.35 78.67-4.28 31.78-32.63 25-48.69 10.57 14.08 6.76 34.51 10.3 38.17-11.86 2.45-14.71-3.5-42.22-30.83-77.38z" fill="#231815"/><path d="m66.43 12c46.64 13.84 68.42 58.88 68.8 87.4.42 30.7-33.18 50.36-77.3 9.75 28.8 21.62 57.32 18 61.2-9.24 2.87-20.22-9.95-61.09-52.7-87.91z" fill="#282828"/></g></svg>