<svg id="レイヤー_1" data-name="レイヤー 1" xmlns="http://www.w3.org/2000/svg" xmlns:xlink="http://www.w3.org/1999/xlink" viewBox="0 0 263.36 60.62"><defs><style>.cls-1{fill:#040000;}.cls-2{fill:url(#名称未設定グラデーション_29);}</style><linearGradient id="名称未設定グラデーション_29" x1="7.61" y1="47.26" x2="39.63" y2="47.26" gradientUnits="userSpaceOnUse"><stop offset="0" stop-color="#41bcc8"/><stop offset="0.91" stop-color="#2553a4"/></linearGradient></defs><path class="cls-1" d="M90.49,54.24V47.17h.68v6.45h4.1v.62Z"/><path class="cls-1" d="M100.46,54.34a2.51,2.51,0,0,1-1-.21,2.46,2.46,0,0,1-.83-.59,2.66,2.66,0,0,1-.54-.86,2.84,2.84,0,0,1-.2-1,2.74,2.74,0,0,1,.2-1,2.62,2.62,0,0,1,.54-.85,2.7,2.7,0,0,1,.82-.58,2.54,2.54,0,0,1,1-.21,2.51,2.51,0,0,1,1,.21,2.57,2.57,0,0,1,.82.59,2.75,2.75,0,0,1,.71,1.86v.16a.27.27,0,0,1,0,.11H98.57a2.13,2.13,0,0,0,.19.77,2.26,2.26,0,0,0,.42.62,2,2,0,0,0,.59.4,1.7,1.7,0,0,0,.71.14,1.79,1.79,0,0,0,.51-.07,1.71,1.71,0,0,0,.46-.19,1.48,1.48,0,0,0,.37-.29,1.35,1.35,0,0,0,.26-.38l.59.16a2.22,2.22,0,0,1-.34.52,2.55,2.55,0,0,1-.51.41,3.32,3.32,0,0,1-.64.27A2.84,2.84,0,0,1,100.46,54.34Zm1.92-3a2.08,2.08,0,0,0-.2-.76,2,2,0,0,0-.42-.59,1.69,1.69,0,0,0-.59-.39,1.87,1.87,0,0,0-2,.39,1.94,1.94,0,0,0-.41.59,2.41,2.41,0,0,0-.18.76Z"/><path class="cls-1" d="M108.55,54l-.18.08-.26.1a1.69,1.69,0,0,1-.34.09,1.75,1.75,0,0,1-.4,0,1.42,1.42,0,0,1-.42-.06,1.06,1.06,0,0,1-.35-.18,1,1,0,0,1-.24-.32,1,1,0,0,1-.09-.44V49.59h-.72v-.54h.72V47.3H107v1.75h1.2v.54H107v3.53a.53.53,0,0,0,.2.42.69.69,0,0,0,.43.13,1.36,1.36,0,0,0,.51-.09,1.72,1.72,0,0,0,.28-.14Z"/><path class="cls-1" d="M111.16,48.22V47.11h.59v1.11Z"/><path class="cls-1" d="M116.77,54.34a3.46,3.46,0,0,1-1.19-.2,2.69,2.69,0,0,1-1-.58l.31-.45a3.32,3.32,0,0,0,.89.53,2.67,2.67,0,0,0,1,.18,1.77,1.77,0,0,0,1-.25.82.82,0,0,0,.37-.72.62.62,0,0,0-.1-.37.81.81,0,0,0-.29-.25,2.91,2.91,0,0,0-.49-.2l-.68-.17c-.3-.07-.56-.15-.78-.22a2.28,2.28,0,0,1-.54-.25.86.86,0,0,1-.32-.34,1.14,1.14,0,0,1-.11-.52,1.39,1.39,0,0,1,.16-.68,1.36,1.36,0,0,1,.42-.5,1.92,1.92,0,0,1,.61-.29,2.68,2.68,0,0,1,.76-.1,2.88,2.88,0,0,1,1.08.19,2.18,2.18,0,0,1,.79.52l-.33.4a1.84,1.84,0,0,0-.7-.45,2.53,2.53,0,0,0-1.36-.1,1.28,1.28,0,0,0-.41.18,1,1,0,0,0-.27.3.89.89,0,0,0-.1.44.65.65,0,0,0,.07.33.63.63,0,0,0,.23.23,2.18,2.18,0,0,0,.4.17l.6.15q.49.12.87.24a2.56,2.56,0,0,1,.64.28,1.17,1.17,0,0,1,.38.39,1.08,1.08,0,0,1,.13.56,1.33,1.33,0,0,1-.55,1.13A2.35,2.35,0,0,1,116.77,54.34Z"/><path class="cls-1" d="M128.57,54.34a2.25,2.25,0,0,1-1-.22,2.69,2.69,0,0,1-1.31-1.45,2.87,2.87,0,0,1-.18-1,2.81,2.81,0,0,1,.18-1,2.51,2.51,0,0,1,.49-.86,2.39,2.39,0,0,1,.75-.59,2.11,2.11,0,0,1,.95-.21,2,2,0,0,1,1.16.34,2.7,2.7,0,0,1,.81.84V47h.68v6.4q0,.27.24.27v.6l-.27,0a.62.62,0,0,1-.41-.14.44.44,0,0,1-.16-.35v-.54a2.39,2.39,0,0,1-.84.8A2.16,2.16,0,0,1,128.57,54.34Zm.14-.6a1.55,1.55,0,0,0,.54-.1,1.9,1.9,0,0,0,.53-.27,2,2,0,0,0,.42-.41,1.07,1.07,0,0,0,.22-.5V50.85a1.81,1.81,0,0,0-.29-.5,2.43,2.43,0,0,0-.44-.41,2,2,0,0,0-.52-.28,1.47,1.47,0,0,0-.54-.1,1.65,1.65,0,0,0-.77.18,2,2,0,0,0-.58.47,2.3,2.3,0,0,0-.37.67,2.38,2.38,0,0,0-.14.78,2.15,2.15,0,0,0,.15.8,2.23,2.23,0,0,0,.41.66,1.93,1.93,0,0,0,.61.45A1.67,1.67,0,0,0,128.71,53.74Z"/><path class="cls-1" d="M136.86,54.34a2.51,2.51,0,0,1-1-.21,2.42,2.42,0,0,1-.82-.59,2.49,2.49,0,0,1-.53-.85,2.77,2.77,0,0,1-.19-1,2.82,2.82,0,0,1,.19-1,2.68,2.68,0,0,1,.54-.85,2.57,2.57,0,0,1,.82-.59,2.35,2.35,0,0,1,1-.22,2.38,2.38,0,0,1,1,.22,2.57,2.57,0,0,1,.82.59,2.49,2.49,0,0,1,.53.85,2.83,2.83,0,0,1,.2,1,2.78,2.78,0,0,1-.2,1,2.49,2.49,0,0,1-.53.85,2.42,2.42,0,0,1-.82.59A2.53,2.53,0,0,1,136.86,54.34ZM135,51.67a2.16,2.16,0,0,0,.14.81,2.2,2.2,0,0,0,.4.66,1.73,1.73,0,0,0,.6.44,1.75,1.75,0,0,0,1.46,0,1.89,1.89,0,0,0,.6-.45,2,2,0,0,0,.41-.66,2.29,2.29,0,0,0,0-1.63,2.08,2.08,0,0,0-1-1.12,1.75,1.75,0,0,0-1.46,0,1.79,1.79,0,0,0-.6.46,2.15,2.15,0,0,0-.41.67A2.21,2.21,0,0,0,135,51.67Z"/><path class="cls-1" d="M148.83,54.34a3.46,3.46,0,0,1-1.19-.2,2.73,2.73,0,0,1-1-.58l.3-.45a3.37,3.37,0,0,0,.9.53,2.58,2.58,0,0,0,1,.18,1.74,1.74,0,0,0,1-.25.82.82,0,0,0,.37-.72.62.62,0,0,0-.1-.37.81.81,0,0,0-.29-.25,2.6,2.6,0,0,0-.49-.2l-.68-.17c-.3-.07-.56-.15-.78-.22a2.28,2.28,0,0,1-.54-.25.94.94,0,0,1-.32-.34,1.14,1.14,0,0,1-.11-.52,1.51,1.51,0,0,1,.16-.68,1.36,1.36,0,0,1,.42-.5,1.87,1.87,0,0,1,.62-.29,2.57,2.57,0,0,1,.75-.1,2.94,2.94,0,0,1,1.09.19,2.22,2.22,0,0,1,.78.52l-.33.4a1.76,1.76,0,0,0-.7-.45,2.51,2.51,0,0,0-.86-.15,2.57,2.57,0,0,0-.5.05,1.22,1.22,0,0,0-.4.18.89.89,0,0,0-.28.3,1,1,0,0,0-.1.44.77.77,0,0,0,.07.33.72.72,0,0,0,.23.23,2,2,0,0,0,.41.17l.59.15.88.24a2.64,2.64,0,0,1,.63.28,1,1,0,0,1,.51.95,1.33,1.33,0,0,1-.55,1.13A2.34,2.34,0,0,1,148.83,54.34Z"/><path class="cls-1" d="M156.17,54.34a2.58,2.58,0,0,1-1-.21,2.49,2.49,0,0,1-.81-.59,2.68,2.68,0,0,1-.54-.85,3,3,0,0,1-.19-1,2.83,2.83,0,0,1,.2-1,2.68,2.68,0,0,1,.54-.85,2.53,2.53,0,0,1,.81-.59,2.54,2.54,0,0,1,2.07,0,2.64,2.64,0,0,1,.81.59,2.68,2.68,0,0,1,.54.85,2.83,2.83,0,0,1,.2,1,2.78,2.78,0,0,1-.2,1,2.68,2.68,0,0,1-.54.85,2.49,2.49,0,0,1-.81.59A2.54,2.54,0,0,1,156.17,54.34Zm-1.88-2.67a2.16,2.16,0,0,0,.15.81,2,2,0,0,0,.39.66,1.73,1.73,0,0,0,.6.44,1.77,1.77,0,0,0,1.47,0,1.89,1.89,0,0,0,.6-.45,2.16,2.16,0,0,0,.56-1.48,2.2,2.2,0,0,0-.15-.81,2.15,2.15,0,0,0-.41-.67,1.89,1.89,0,0,0-.6-.45,1.63,1.63,0,0,0-.73-.16,1.69,1.69,0,0,0-.73.16,1.79,1.79,0,0,0-.6.46,2.13,2.13,0,0,0-.4.67A2.21,2.21,0,0,0,154.29,51.67Z"/><path class="cls-1" d="M169.58,54.24h-.68v-2.9a2.44,2.44,0,0,0-.28-1.33,1,1,0,0,0-.87-.43,1.55,1.55,0,0,0-.56.11,1.62,1.62,0,0,0-.49.31,2,2,0,0,0-.39.47,2.32,2.32,0,0,0-.26.6v3.17h-.68v-2.9a2.43,2.43,0,0,0-.28-1.34.94.94,0,0,0-.85-.42,1.5,1.5,0,0,0-1.05.41,2.38,2.38,0,0,0-.66,1.07v3.18h-.68V49.05h.62v1.18a2.56,2.56,0,0,1,.84-.94,2.11,2.11,0,0,1,1.15-.33,1.46,1.46,0,0,1,1,.37,1.5,1.5,0,0,1,.48,1A2.24,2.24,0,0,1,168,49a1.55,1.55,0,0,1,.74.16,1.3,1.3,0,0,1,.48.45,1.88,1.88,0,0,1,.27.71,4.35,4.35,0,0,1,.09.92Z"/><path class="cls-1" d="M175.25,54.34a2.59,2.59,0,0,1-1.05-.21,2.42,2.42,0,0,1-.82-.59,2.69,2.69,0,0,1-.55-.86,2.84,2.84,0,0,1-.19-1,2.73,2.73,0,0,1,.19-1,2.64,2.64,0,0,1,.55-.85,2.7,2.7,0,0,1,.82-.58,2.68,2.68,0,0,1,2.08,0,2.42,2.42,0,0,1,.81.59,2.55,2.55,0,0,1,.53.84,2.68,2.68,0,0,1,.19,1v.16a.75.75,0,0,1,0,.11h-4.43a2.13,2.13,0,0,0,.19.77,2.26,2.26,0,0,0,.42.62,1.87,1.87,0,0,0,.59.4,1.7,1.7,0,0,0,.71.14,1.79,1.79,0,0,0,.51-.07,1.86,1.86,0,0,0,.46-.19,1.48,1.48,0,0,0,.37-.29,1.14,1.14,0,0,0,.25-.38l.59.16a1.73,1.73,0,0,1-.34.52,2.24,2.24,0,0,1-.5.41,3.32,3.32,0,0,1-.64.27A2.84,2.84,0,0,1,175.25,54.34Zm1.91-3a2.07,2.07,0,0,0-.19-.76,2,2,0,0,0-.42-.59,1.88,1.88,0,0,0-3,.59,2.41,2.41,0,0,0-.18.76Z"/><path class="cls-1" d="M183.33,54l-.17.08a1.69,1.69,0,0,1-.27.1,1.53,1.53,0,0,1-.34.09,1.61,1.61,0,0,1-.39,0,1.42,1.42,0,0,1-.42-.06.88.88,0,0,1-.59-.5,1,1,0,0,1-.09-.44V49.59h-.72v-.54h.72V47.3h.68v1.75h1.19v.54h-1.19v3.53a.53.53,0,0,0,.2.42.69.69,0,0,0,.43.13,1.28,1.28,0,0,0,.5-.09,1.36,1.36,0,0,0,.28-.14Z"/><path class="cls-1" d="M190.49,54.24h-.68v-2.9a2.34,2.34,0,0,0-.3-1.32,1,1,0,0,0-.9-.44,1.65,1.65,0,0,0-.57.11,1.92,1.92,0,0,0-.53.32,2.19,2.19,0,0,0-.44.47,1.93,1.93,0,0,0-.27.58v3.18h-.68V47h.68v3.26a2.36,2.36,0,0,1,.87-.93,2.13,2.13,0,0,1,1.17-.34,1.65,1.65,0,0,1,.77.17,1.35,1.35,0,0,1,.5.45,2.16,2.16,0,0,1,.29.71,4.32,4.32,0,0,1,.09.91Z"/><path class="cls-1" d="M193.89,48V47h.67v1Zm0,6.28V49.05h.67v5.19Z"/><path class="cls-1" d="M202.38,54.24h-.68v-2.9a2.54,2.54,0,0,0-.27-1.34.93.93,0,0,0-.84-.42,1.81,1.81,0,0,0-.6.11,1.89,1.89,0,0,0-.55.31,2.05,2.05,0,0,0-.46.47,2.16,2.16,0,0,0-.29.59v3.18H198V49.05h.62v1.18a2.83,2.83,0,0,1,.39-.52,2.63,2.63,0,0,1,.53-.4,2.55,2.55,0,0,1,.61-.26,2.52,2.52,0,0,1,.67-.09,1.46,1.46,0,0,1,.73.16,1.3,1.3,0,0,1,.48.45,2.19,2.19,0,0,1,.26.71,5.08,5.08,0,0,1,.08.92Z"/><path class="cls-1" d="M207.88,54.31a2.11,2.11,0,0,1-1-.22,2.51,2.51,0,0,1-.77-.59,2.69,2.69,0,0,1-.5-.85,2.8,2.8,0,0,1-.18-1,3,3,0,0,1,.17-1,2.68,2.68,0,0,1,.49-.86,2.47,2.47,0,0,1,.77-.59,2.11,2.11,0,0,1,1-.22,2,2,0,0,1,1.15.33,3.23,3.23,0,0,1,.84.85V49.05h.61v5.21a2,2,0,0,1-.21,1,2,2,0,0,1-.54.7,2.34,2.34,0,0,1-.82.41,3.18,3.18,0,0,1-1,.14,2.9,2.9,0,0,1-1.44-.31,2.59,2.59,0,0,1-.88-.86L206,55a1.86,1.86,0,0,0,.82.73,2.52,2.52,0,0,0,1.09.24,2.46,2.46,0,0,0,.72-.11,1.71,1.71,0,0,0,.6-.31,1.39,1.39,0,0,0,.4-.52,1.64,1.64,0,0,0,.15-.73v-1A2.19,2.19,0,0,1,209,54,2.09,2.09,0,0,1,207.88,54.31Zm.19-.57a1.54,1.54,0,0,0,.59-.11,2,2,0,0,0,.52-.29,1.89,1.89,0,0,0,.39-.41,1.22,1.22,0,0,0,.21-.47V50.85a1.9,1.9,0,0,0-.3-.51,2.12,2.12,0,0,0-.44-.41,1.79,1.79,0,0,0-.51-.27,1.52,1.52,0,0,0-.55-.1,1.63,1.63,0,0,0-.78.18,2,2,0,0,0-.58.49,2.07,2.07,0,0,0-.36.67,2.31,2.31,0,0,0-.13.77,2.15,2.15,0,0,0,.15.8,2.23,2.23,0,0,0,.41.66,1.93,1.93,0,0,0,.61.45A1.8,1.8,0,0,0,208.07,53.74Z"/><path class="cls-1" d="M218.73,54.24v-4H218v-.54h.72v-.75a2.45,2.45,0,0,1,.41-1.5,1.34,1.34,0,0,1,1.13-.54,1.9,1.9,0,0,1,.58.09,1.66,1.66,0,0,1,.5.24l-.21.48a1,1,0,0,0-.34-.17,1.9,1.9,0,0,0-.4,0,.85.85,0,0,0-.74.36,1.88,1.88,0,0,0-.25,1.07v.77h1.43v.54h-1.43v4Z"/><path class="cls-1" d="M225.49,54.34a1.46,1.46,0,0,1-1.24-.56,2.81,2.81,0,0,1-.42-1.68V49.05h.68V52c0,1.18.4,1.76,1.21,1.76a1.74,1.74,0,0,0,.59-.1,1.8,1.8,0,0,0,.53-.28,2.68,2.68,0,0,0,.44-.45,2.37,2.37,0,0,0,.31-.59V49.05h.68v4.32c0,.18.08.27.25.27v.6l-.28,0a.54.54,0,0,1-.39-.14.44.44,0,0,1-.17-.35v-.71a2.48,2.48,0,0,1-2.19,1.27Z"/><path class="cls-1" d="M236.16,54.24h-.68v-2.9a2.65,2.65,0,0,0-.26-1.34.93.93,0,0,0-.84-.42,1.94,1.94,0,0,0-1.16.42,2.24,2.24,0,0,0-.45.47,2.19,2.19,0,0,0-.3.59v3.18h-.67V49.05h.61v1.18a2.49,2.49,0,0,1,.4-.52,2.57,2.57,0,0,1,.52-.4,2.73,2.73,0,0,1,.61-.26,2.54,2.54,0,0,1,.68-.09,1.49,1.49,0,0,1,.73.16,1.27,1.27,0,0,1,.47.45,2,2,0,0,1,.26.71,5.08,5.08,0,0,1,.08.92Z"/><path class="cls-1" d="M244.25,52V47.1h.68V52Zm0,2.27V53.13h.68v1.11Z"/><path class="cls-1" d="M72.06,35.08l9-21.54H82.8l9,21.54H89.53l-2.79-6.73H77.06L74.3,35.08ZM82,16,77.52,26.68h8.74Z"/><path class="cls-1" d="M98,35.08V13.54h7.28a11.32,11.32,0,0,1,4.52.85A9.24,9.24,0,0,1,113,16.7a9.46,9.46,0,0,1,1.92,3.41,13.24,13.24,0,0,1,.64,4.17,12.78,12.78,0,0,1-.73,4.45,9.68,9.68,0,0,1-2.06,3.39,9.14,9.14,0,0,1-3.25,2.19,11.39,11.39,0,0,1-4.27.77Zm15.47-10.8a10.94,10.94,0,0,0-.55-3.56,8,8,0,0,0-1.59-2.81,7.16,7.16,0,0,0-2.57-1.84,8.82,8.82,0,0,0-3.48-.65h-5.19V33.2h5.19a8.68,8.68,0,0,0,3.53-.68,7.16,7.16,0,0,0,2.56-1.88,8.26,8.26,0,0,0,1.57-2.82A11.47,11.47,0,0,0,113.44,24.28Z"/><rect class="cls-1" x="122.27" y="19.28" width="2.06" height="15.81"/><path class="cls-1" d="M137.1,35.38a11.11,11.11,0,0,1-3.61-.6,8.76,8.76,0,0,1-3-1.76l.94-1.4a10.12,10.12,0,0,0,2.71,1.64,8.07,8.07,0,0,0,3,.55,5.32,5.32,0,0,0,3.05-.78,2.5,2.5,0,0,0,1.14-2.2,1.83,1.83,0,0,0-.31-1.1,2.65,2.65,0,0,0-.89-.78,7.11,7.11,0,0,0-1.49-.59c-.6-.17-1.29-.35-2.08-.53s-1.7-.44-2.36-.67a7.39,7.39,0,0,1-1.66-.75,2.93,2.93,0,0,1-1-1.05,3.47,3.47,0,0,1-.32-1.56,4.57,4.57,0,0,1,.47-2.1,4.42,4.42,0,0,1,1.28-1.5,5.74,5.74,0,0,1,1.88-.89A8.12,8.12,0,0,1,137.1,19a9,9,0,0,1,3.31.59,6.51,6.51,0,0,1,2.39,1.57l-1,1.21A5.55,5.55,0,0,0,139.66,21a7.72,7.72,0,0,0-2.62-.45,6.61,6.61,0,0,0-1.52.17,3.59,3.59,0,0,0-1.23.53,2.62,2.62,0,0,0-.83.92,2.79,2.79,0,0,0-.3,1.32,2.16,2.16,0,0,0,.21,1,1.78,1.78,0,0,0,.7.69,5.56,5.56,0,0,0,1.23.51c.49.15,1.09.31,1.8.47,1,.25,1.9.49,2.67.73a8.51,8.51,0,0,1,1.93.85,3.16,3.16,0,0,1,1.56,2.88,4.13,4.13,0,0,1-1.67,3.46A7.21,7.21,0,0,1,137.1,35.38Z"/><rect class="cls-1" x="149.6" y="19.28" width="2.06" height="15.81"/><path class="cls-1" d="M165.52,35.29a6.44,6.44,0,0,1-3-.68,7.79,7.79,0,0,1-2.34-1.8,8.17,8.17,0,0,1-1.53-2.58,8.58,8.58,0,0,1-.55-3,9.5,9.5,0,0,1,.53-3.14,8.17,8.17,0,0,1,1.51-2.62,7.3,7.3,0,0,1,2.32-1.79,6.69,6.69,0,0,1,3-.67A6.06,6.06,0,0,1,169,20a9.85,9.85,0,0,1,2.55,2.56v-3.3h1.85V35.14a6.54,6.54,0,0,1-.62,2.9,6.18,6.18,0,0,1-1.67,2.11,7.14,7.14,0,0,1-2.47,1.27,10.22,10.22,0,0,1-3,.43,8.7,8.7,0,0,1-4.37-1,7.76,7.76,0,0,1-2.7-2.61l1.27-1a5.75,5.75,0,0,0,2.49,2.23,7.87,7.87,0,0,0,3.31.71,7.65,7.65,0,0,0,2.2-.32,5.52,5.52,0,0,0,1.82-.94,4.47,4.47,0,0,0,1.22-1.58,5,5,0,0,0,.46-2.23V32a6.82,6.82,0,0,1-2.5,2.39A6.58,6.58,0,0,1,165.52,35.29Zm.58-1.73a5.06,5.06,0,0,0,1.79-.33,6,6,0,0,0,2.79-2.15,3.79,3.79,0,0,0,.64-1.43V24.77a5.62,5.62,0,0,0-.93-1.58,6.48,6.48,0,0,0-2.88-2.06,4.71,4.71,0,0,0-1.68-.31,4.94,4.94,0,0,0-2.37.56,5.84,5.84,0,0,0-1.76,1.48,6.48,6.48,0,0,0-1.1,2.06,7.24,7.24,0,0,0-.38,2.33,6.63,6.63,0,0,0,.45,2.43,6.42,6.42,0,0,0,1.25,2,5.59,5.59,0,0,0,1.86,1.36A5.35,5.35,0,0,0,166.1,33.56Z"/><path class="cls-1" d="M194.13,35.08h-2.06V26.25a7.76,7.76,0,0,0-.82-4.09,2.83,2.83,0,0,0-2.55-1.28,5.1,5.1,0,0,0-1.82.34,6.17,6.17,0,0,0-1.7.94,6.76,6.76,0,0,0-1.38,1.44,6.57,6.57,0,0,0-.89,1.8v9.68h-2.07V19.28h1.89v3.58a7.47,7.47,0,0,1,1.19-1.57,8.4,8.4,0,0,1,1.6-1.23,7.8,7.8,0,0,1,1.86-.78,7.35,7.35,0,0,1,2.05-.28,4.57,4.57,0,0,1,2.23.49,3.76,3.76,0,0,1,1.44,1.36,6.39,6.39,0,0,1,.79,2.16,15.29,15.29,0,0,1,.24,2.82Z"/><circle class="cls-1" cx="123.3" cy="14.45" r="1.37"/><circle class="cls-1" cx="150.63" cy="14.45" r="1.37"/><circle class="cls-1" cx="261.99" cy="33.59" r="1.37"/><path class="cls-1" d="M212.76,35.11V13.57h2.1V35.11Z"/><path class="cls-1" d="M236.15,35.11h-2.06V26.27a7.9,7.9,0,0,0-.82-4.1,2.83,2.83,0,0,0-2.56-1.28,5.14,5.14,0,0,0-1.82.34,6.17,6.17,0,0,0-1.7.94,6.51,6.51,0,0,0-1.38,1.44,6.26,6.26,0,0,0-.9,1.81v9.69h-2.06V19.28h1.88v3.59a7.19,7.19,0,0,1,1.2-1.57,8.33,8.33,0,0,1,1.59-1.23,7.9,7.9,0,0,1,1.87-.79,7.74,7.74,0,0,1,2.05-.27,4.61,4.61,0,0,1,2.24.49,3.91,3.91,0,0,1,1.44,1.36,6.39,6.39,0,0,1,.79,2.16,15.29,15.29,0,0,1,.24,2.82Z"/><path class="cls-1" d="M242.44,27.15A8.6,8.6,0,0,1,243,24a7.82,7.82,0,0,1,1.62-2.6,7.69,7.69,0,0,1,2.51-1.74,7.85,7.85,0,0,1,3.22-.64,7.39,7.39,0,0,1,3.92,1,6.56,6.56,0,0,1,2.52,2.75l-2,.64a4.7,4.7,0,0,0-1.85-1.9,5.42,5.42,0,0,0-4.9-.2,5.71,5.71,0,0,0-1.83,1.32,6.14,6.14,0,0,0-1.21,2,6.88,6.88,0,0,0-.44,2.52,7,7,0,0,0,.45,2.52,6.41,6.41,0,0,0,1.25,2,5.75,5.75,0,0,0,1.84,1.37,5.13,5.13,0,0,0,2.23.5,5.49,5.49,0,0,0,1.5-.21,5.69,5.69,0,0,0,1.38-.59,5.09,5.09,0,0,0,1.1-.87,2.85,2.85,0,0,0,.64-1l2,.61a5.21,5.21,0,0,1-1,1.56,7,7,0,0,1-1.5,1.25,7.88,7.88,0,0,1-1.92.82,8.23,8.23,0,0,1-2.17.29A7.73,7.73,0,0,1,244.69,33,8.33,8.33,0,0,1,243,30.34,8.61,8.61,0,0,1,242.44,27.15Z"/><path class="cls-1" d="M11.14,0C3.76,3.35-.31,13.72,0,23.64S4.37,47.08,14,54.21A51.87,51.87,0,0,1,5.67,29.68c7.42,8.09,15.57,14.39,28,15.25C19.76,39.85,12.65,30,8.86,23.52,4.93,16.83,2.61,5.15,11.14,0Z"/><path class="cls-2" d="M7.61,33.9A47.1,47.1,0,0,0,12,47.66c9,8.3,16.12,12.51,27.62,13C23.48,55,17,45.31,13.44,39A36.3,36.3,0,0,1,7.61,33.9Z"/><path class="cls-1" d="M25.38,5.15c10.73,10.07,20,23,18.4,35-1.91,14.14-14.52,11.12-21.66,4.71,6.26,3,15.34,4.57,17-5.29C40.18,33,37.54,20.78,25.38,5.15Z"/><path class="cls-1" d="M25.65,3.35C46.39,9.5,56.08,29.54,56.25,42.23c.19,13.65-14.75,22.39-34.38,4.33,12.81,9.62,25.49,8,27.22-4.11C50.37,33.47,44.66,15.29,25.65,3.35Z"/></svg>