<?xml version="1.0" encoding="UTF-8"?>
<svg id="_レイヤー_2" data-name="レイヤー 2" xmlns="http://www.w3.org/2000/svg" viewBox="0 0 433.4 527.97">
  <defs>
    <style>
      .cls-1 {
        fill: #ea563d;
      }

      .cls-2 {
        fill: #ededed;
      }

      .cls-3 {
        fill: #fff;
      }
    </style>
  </defs>
  <g id="_レイヤー_1-2" data-name="レイヤー 1">
    <g>
      <g>
        <path class="cls-2" d="m177.56,132.24c1.03.48,1.98.58,2.83-.26.1-.1.32-.12.49-.13.76-.05,1.53-.09,2.29-.14.28-.02.62.03.82-.11.48-.35.97-.35,1.51-.34.58.01,1.26.1,1.72-.15,1.19-.65,2.45-.72,3.73-.75.17,0,.43,0,.49-.09.31-.51.81-.47,1.26-.42.74.08,1.38-.16,2.06-.4.83-.28,1.6-.87,2.53-.73.66.1,1.18-.11,1.63-.49.95-.79,2.09-.96,3.24-1.24,1.33-.32,2.79-.39,3.91-1.4.24-.22.64-.35.97-.36,1.23-.04,2.47-.02,3.58-.02,1.38-.99,2.77-1.78,4.22-2.41.99-.43,2.15-.51,3.36-.1-.15.42-.22.76-.39,1.04-.6.96-1.27,1.87-2.3,2.41-.74.38-1.22.99-1.43,1.73-.41,1.42-.71,2.86-1.03,4.3-.19.86-.35,1.73-.49,2.61-.08.52-.15,1.06-.09,1.58.12,1.12.36,2.22.49,3.33.29,2.63,1.98,4.21,4.07,5.46,1.31.79,2.72,1.4,4.16,1.96,1.39.54,2.72,1.18,4.27.85.11-.02.24,0,.35,0,1.46.16,2.78-.28,4.07-.88.36-.17.81-.35,1.17-.28,1.15.22,1.94-.36,2.66-1.09.42-.43.91-.72,1.39-1.05,1.16-.8,2.22-1.75,3.32-2.64.04-.04.09-.09.1-.14.11-.77.78-1.16,1.14-1.75.52-.84,1.24-1.59,1.18-2.7-.01-.26.19-.53.31-.8.55-1.27,1.44-2.37,1.63-3.84.16-1.22.21-2.36-.43-3.43-.81-1.36-1.02-2.99-1.98-4.28-.1-.14-.25-.3-.27-.45-.1-1.2-.96-1.87-1.79-2.53-.6-.47-1.28-.85-1.95-1.21-.85-.46-1.58-1.01-2.1-1.9.42-.48.79-.99,1.26-1.39.24-.2.65-.19.99-.28.48.14.97.26,1.47.14.71-.28,1.03-.89,1.23-1.67,1.17.33,2.23.63,3.32.95.64-.71,1.22-1.36,1.8-2.01h2.13c.24-.07.48-.14.71-.21.1-.05.21-.15.31-.15,1.22.05,2.13-.8,3.21-1.15.16-.05.24-.35.36-.53-.07-.29.06-.39.34-.35.41-.03.83-.04,1.24-.09.41-.05.82-.23,1.21-.19.38.03.74.27,1.09.4.2-.16.39-.24.47-.38.44-.8.97-1.35,1.98-.89.12.05.32-.07.48-.12.93-.29,1.74-.7,1.92-1.8.01-.08.18-.13.31-.22.76.49,1.54.99,2.31,1.49.58-.52,1.41-.57,1.84-1.03.71-.75,1.35-.42,2.07-.25.1.02.23-.02.35-.06.5-.17,1.03-.28,1.48-.53.28-.15.48-.49.67-.78.14-.22.21-.5.33-.79.44.08.91.03,1.09.23.62.67,1.33.61,2.09.46.25-.32.43-.8.75-.92.64-.24,1.2-.71,1.96-.71.58,0,1.17-.17,1.73-.35.42-.13.68-.45.54-.96-.06-.21-.2-.45.18-.7.57.18,1.33-.06,1.86.56.55.65.86,1.39.8,2.28-.17,2.24-.24,4.48-.2,6.72.01.71-.12,1.38-.33,2.07-.43,1.41-.65,2.86-.56,4.37.08,1.39.21,2.82-.44,4.17-.17.35-.08.81-.12,1.23l-.08,1.17c-.14.26-.3.51-.41.79-.7,1.82-2,2.86-3.93,3.01-.1.82-.51,1.38-1.12,1.78-.59.39-1.16.7-1.95.69-.8-.02-1.74.08-2.38.49-1.05.66-2.07.74-3.2.55-.16-.03-.34.04-.49.06-.34.42-.66.81-.99,1.23.28.23.53.39.73.6.48.51.44.87-.04,1.36-.36.36-.75.55-1.27.5-1.16-.11-2.36,0-3.37-.86-.39-.33-.95-.48-1.45-.64-.24-.08-.53.01-.81.03-.04,1.39.5,2.4,1.42,3.22,1.07.95,1.91,2.08,2.74,3.24.33.47.77.93,1.26,1.2,1.08.6,2.23,1.07,3.35,1.59,1.5.7,3.07,1.28,4.46,2.14,1.01.62,1.99,1.22,3.09,1.69.75.32,1.42.68,2.3.71.92.03,1.9.25,2.71.66,1.09.54,2.19.74,3.36.91.85.13,1.5-.06,2.13-.5.72-.5,1.25-1.29,2.23-1.36.63-.7,1.26-1.39,1.9-2.09.2-.22.37-.54.61-.62.48-.15.63-.49.72-.9.24-1.14.94-2,1.64-2.88.29-.36.53-.78.72-1.2.25-.53.43-1.09.65-1.64l.28-1.13c.92-1.46,1.34-3.09,1.53-4.78.23-2.05.83-4.03.91-6.1.01-.29.12-.58.17-.87.11-.76.27-1.51.31-2.27.06-1.12.02-2.24.04-3.36.01-.71-.01-1.43.11-2.12.36-2.09.64-4.19.71-6.31.01-.41.11-.83.04-1.23-.25-1.42-.07-2.82.17-4.22-.22-.37-.18-.73.07-1.07.2-.68.36-1.34.24-2.08-.09-.51-.06-1.08.07-1.58.28-1.15.29-1.14.22-1.91-.03-.34.07-.69.11-1,.86-.47,1.57-1.14,2.63-.86.3.08.72-.09,1.01-.26.89-.51,1.84-.7,2.86-.76.52-.03,1.15-.07,1.52-.38.71-.59,1.26-.46,1.88.04.12.1.32.09.47.13.43-.35.79-.63,1.4-.68,1.1-.1,2.25.33,3.31-.28.14-.08.44.07.65.15.27.1.52.35.78.35.75,0,1.37.29,1.99.65.24.14.55.24.84.25,1.95.06,3.88.52,5.84.31,1.06-.11,2.1-.1,3.15.17.56.15,1.13.08,1.73-.1.98-.31,1.97-.83,3.07-.44.12.04.32-.09.47-.16.89-.41,1.8-.42,2.64-.05.4-.25.68-.49,1.01-.61,1.57-.59,2.82-1.7,4.19-2.62,1.38-.93,1.68-2.84,1.17-4.12-.17-.44-.35-.87-.48-1.32-.71-2.54-1.99-4.78-3.58-6.85-.43-.56-1-1.01-1.53-1.48-.22-.19-.48-.36-.75-.46-.82-.32-1.66-.62-2.5-.9-.39-.13-.79-.24-1.2-.27-1.59-.12-3.19-.2-4.78-.32-.47-.03-.95-.09-1.38-.25-1.14-.42-2.32-.45-3.51-.39-.55.02-1.02.17-1.48.49-.63.43-1.34.75-2,1.14-.54.32-1.11.39-1.71.24-.29-.07-.58-.16-.87-.19-1.41-.12-2.74-.03-3.44,1.51-.25.56-.76.46-1.23.41-.36.29-.71.27-1.05-.02-1.11-.16-1.88.52-2.57,1.09-.71,0-1.39-.19-1.87.04-1.22.59-2.48.64-3.78.7-.4.02-.8.14-1.2.21-.81.14-1.61.26-2.45.26-1.15,0-1.78-.49-2.14-1.48-.33-.92-.93-1.65-1.58-2.33-1.1-1.15-2.25-2.27-3.36-3.41-.28-.29-.53-.6-.84-.95.58-.81,1.12-1.56,1.62-2.26,1.36-.13,1.32-.2,2.51-.88,1.76-.99,3.37-2.33,5.41-2.59.04-.46.04-.81.1-1.15.25-1.33.51-2.66.79-3.98.32-1.5.03-2.94-.34-4.38-.04-.16-.15-.34-.28-.44-.79-.61-1.53-1.36-2.43-1.76-.73-.33-1.27-.82-1.87-1.28-.7-.53-1.41-1.14-2.22-1.42-.84-.29-1.69-.52-2.47-.94-.76-.41-1.47-.28-2.15.23-.37.28-.74.67-1.16.76-1.98.43-3.85,1.13-5.62,2.1-.2.11-.44.18-.67.22-1.4.24-2.61,1.14-4.06,1.21-.16,0-.32.14-.48.22-1.22.61-2.36,1.34-3.38,2.27-1.74,1.59-3.5,3.17-5.27,4.73-.44.39-.93.74-1.44,1.03-.29.16-.67.18-1.02.23-.09.01-.24-.08-.27-.16-.05-.15-.12-.4-.04-.47.87-.84,1.04-1.94,1.13-3.04.07-.79.29-1.48.68-2.17.5-.88.77-1.81.77-2.87,0-1.65.15-3.31.28-4.95.05-.58.09-1.22.36-1.71.57-1.02.72-2.09.83-3.22.08-.86.45-1.69.69-2.54,1.08-.92,2.15-1.84,3.23-2.76.7-.02,1.07-.57,1.33-1.05.36-.66.87-1.1,1.42-1.54.37-.3.72-.62,1.05-.95,1.54-1.54,3.04-3.12,4.61-4.63.67-.65,1.6-1.04,1.78-2.11.03-.2.28-.37.44-.54.72-.74,1.58-1.22,2.56-1.52.7-.21,1.19-.64,1.54-1.34.36-.73.84-1.46,1.45-1.98.76-.64,1.07-1.47,1.1-2.32.04-1,.38-1.79.88-2.62.89-1.48.67-2.73-.58-3.99-.5-.51-1.05-.97-1.48-1.53-1.41-1.79-3.28-2.63-5.5-2.86-.59-.06-1.17-.16-1.76-.24-.3-.43-.7-.41-1.13-.26-1.08-.32-2.2-.62-3.31-.41-1.41.26-2.7-.05-4.01-.42-1.32-.38-2.34-1.07-2.88-2.41-.16-.41-.54-.92-.91-1.01-.84-.2-1.29-.79-1.81-1.34-.97-1.04-1.92-2.09-2.86-3.16-.9-1.03-1.84-2-3.06-2.66-.62-.34-1.14-.83-1.73-1.24-.97-.67-1.95-1.33-2.94-1.97-.89-.57-1.89-.65-2.91-.59-.44.02-.79.22-.89.84.26.29.6.61.86.98.27.37.64.79.66,1.2.07,1.15.58,2.03,1.41,2.76.43.38.62.85.6,1.42-.04,1.83.51,3.35,2.41,4.15-.18,2.52-.26,5-.66,7.45-.02.24-.03.47-.05.71-.38,2.27-.77,4.54-1.13,6.82-.07.46-.06.94-.1,1.41-.05.59-.05,1.2-.21,1.76-.12.42-.4.98-.74,1.12-.6.23-.95.65-1.35,1.06-.33.34-.64.71-1.21.58-.13-.03-.32.09-.46.18-1.85,1.19-3.85,2.01-5.99,2.48-2.02.44-4.05.85-6.09,1.2-.81.14-1.63.11-2.46-.11-1.21-.33-2.47-.23-3.7-.06-.55.08-1.16.24-1.44.91.34.61.68,1.22,1,1.8q-.23,1.35.27,2.38c-.11.09-.21.19-.32.28h0c-.33-.1-.66-.2-.99-.29-.31-.08-.63-.13-1.2-.24.62,1.04,1.04,1.88,1.59,2.62.85,1.15,1.58,2.35,2.14,3.67.23.54.44,1.12.79,1.58,1.47,1.93,2.91,3.88,4.51,5.69,1.04,1.19,2.27,2.25,3.52,3.23.88.68,1.89,1.23,2.92,1.67.91.39,1.92.55,2.89.81.66.18,1.26.09,1.88-.23.62-.33,1.31-.52,1.96-.77.12.11.24.21.36.32h0c-.15,2.3-.3,4.61-.46,6.91-.09,1.23-.55,2.29-1.52,3.1-.22.19-.41.43-.59.66-1.49,1.96-3.4,3.46-5.35,4.9-1.62,1.19-3.36,2.2-5.19,3.06-.53.25-1.09.55-1.47.97-.86.96-2.16,1.22-3.09,2.05-.16.14-.44.16-.67.21-1.02.24-2.15.15-2.97.99-1.56.24-2.81,1.2-4.17,1.89-1.28.65-2.58,1.18-3.98,1.48-.4.09-.79.24-1.19.33-1.55.38-3.1.77-4.65,1.13-.36.08-.72.05-.89-.48.21-.59.41-1.27.71-1.91.2-.42.53-.78.8-1.17.16-.24.44-.49.45-.74.02-.62.44-.93.8-1.32.52-.57,1.18-1.1,1.45-1.77.7-1.74,1.56-3.41,1.78-5.34.15-1.29.3-2.58.38-3.88.02-.29,0-.65.16-.86.71-1.01.65-2.26,1.1-3.36.22-.54.2-1.18.45-1.71.49-1.08,1.07-2.11,1.13-3.34,0-.16.08-.38.2-.48.74-.6.76-1.41.75-2.25,0-1.3.02-2.61.07-3.91.03-.82.13-1.64.22-2.46.15-1.37.06-2.76-.32-4.04-.36-1.25-.65-2.51-1.04-3.75-.81-2.58-1.63-5.16-3.33-7.34-1.02-1.31-2.02-2.64-3.05-3.93-.4-.51-.85-.99-1.33-1.43-.77-.71-1.73-1.18-2.74-1.06-1.04.13-1.97-.05-2.96-.26-3.6-.77-7.16-.86-10.57.89-.31.16-.69.17-1.03.27-.9.27-1.83.48-2.69.84-2.4,1-4.77,2.07-7.15,3.1-.34.15-.68.17-1-.16-.03-.13-.11-.3-.11-.47.02-.96-.2-1.84-.66-2.7-.47-.88-.84-1.82-1.2-2.76-.76-2.01-2-3.61-3.81-4.76-.3-.19-.56-.43-.84-.66-1.56-1.29-3.35-1.96-5.36-2.08-.85-.05-1.65.04-2.39.49-.5.31-1.02.6-1.54.87-.67.34-1.36.38-2.04-.02-.2-.12-.38-.29-.59-.4-1.09-.54-2.19-.05-2.5,1.12-.14.51-.12,1.11-.38,1.54-.45.73-.4,1.47-.3,2.23.09.7.26,1.4.35,2.1.06.47.17.98.03,1.4-.45,1.39-.36,2.93-1.15,4.23-.18.29-.22.67-.31,1.01-.28,1.02-.48,2.08-.85,3.07-.87,2.33-1.54,4.72-2.17,7.13-.48,1.83-1,3.65-1.58,5.44-.93,2.88-1.41,5.86-2.11,8.79-.03.11-.02.24-.02.35-.02.59-.04,1.19-.06,1.78,0,0,0,0,0,0-.09.82-.26,1.64-.26,2.45,0,2.31.06,4.61.11,6.92.02.83.05,1.66.15,2.48.16,1.29.44,2.56.56,3.85.13,1.36.32,2.69.75,3.99.09.28.14.57.17.87.24,2.37.88,4.64,1.54,6.91.23.78.33,1.62.36,2.44.03.94-.06,1.89-.13,2.83-.08.91-.12,1.76.7,2.43.25.2.33.61.48.93.53,1.13,1.23,2.15,2.03,3.1.34.41.7.82,1.28.89,1.42.17,2.48.96,3.46,1.92.68.66,1.37,1.31,2.1,1.9.68.56,1.41,1.07,2.14,1.57.58.39,1.18.78,1.82,1.06.35.16.92-.06,1.19.16,1.09.87,2.33.63,3.55.68,1.35.05,2.72.12,4.04.38.63.12,1.11.18,1.66-.22.08-.37.17-.77.25-1.17.43-.46.33-.99.19-1.53-.03-.48.27-.72.65-.92.48-.26.87-.58.75-1.21.22-.44.21-.84-.24-1.14h0c.05-.34.04-.69.15-1.01.42-1.25.54-2.53.33-3.83-.05-.35-.13-.72-.06-1.05.21-1.02-.31-1.82-.69-2.66-.51-1.12-1.12-2.21-1.58-3.36-.66-1.64-1.11-3.38-2.33-4.74-.12-.13-.2-.3-.27-.46-.53-1.2-1.3-2.25-2.17-3.23-1.15-1.28-1.66-2.84-1.99-4.48-.4-1.99-.45-3.99-.43-6.01.02-1.84.41-3.62.83-5.39.14-.59.61-1.11.97-1.65.36-.54.77-1.04,1.14-1.57.3-.44.64-.88.51-1.46-.21-.97-.12-1.84.51-2.67.23-.31.21-.79.34-1.18.25-.72.43-1.5.82-2.15,1.22-2.02,1.77-4.36,3.02-6.36.09-.14.11-.35.08-.51-.07-.53.12-.97.56-1.22.45-.26.63-.69.88-1.08.58-.9,1.23-1.73,2.03-2.45,1.58-1.43,3.22-2.83,4.63-4.41,1.3-1.47,3.18-1.36,4.72-2.12.09-.04.23,0,.35.03.98.15,1.96.31,3.01.48,1.26.94,2.1,2.27,2.71,3.77.13.33.32.63.46.96.86,2.07,1.82,4.11,2.1,6.38.09.75.35,1.49.54,2.23.05.37.09.73.14,1.1.22,1.16.63,2.31.63,3.47,0,3.67.17,7.35-.33,11.01-.15,1.11-.2,2.24-.4,3.34-.2,1.09-.53,2.16-.82,3.24-.41,1.5-1.79,2.62-3.33,2.69-.89.04-1.78.06-2.66.04-1.12-.02-2.26,0-3.36-.17-1.22-.18-2.46-.46-3.5-1.16-.86-.58-1.71-.6-2.77-.44.14.29.19.54.34.68.81.78,1.64,1.53,2.46,2.31.34.32.71.64.66,1.19-.79.45-.8.49-1.27.41-.87-.15-1.76-.26-2.59-.56-.91-.32-1.8-.41-2.7-.34-.53,1.68-.36,3.19.66,4.58.17.23.15.58.3.82.14.24.35.55.59.61,1.11.29,2,1,2.99,1.51.65.33,1.37.74,2.16.18.16-.11.51-.14.67-.04.72.43,1.51.22,2.25.35,1.33.24,2.7.29,3.99.77.83.31,1.71.46,2.57.68,1.41-.42,2.95.36,4.33-.46.13-.08.35-.04.52-.02.67.08,1.03.69.74,1.29-.22.46-.52.89-.78,1.31-.68.05-1.27.08-1.85.14-.53.05-.84.35-.99.87-.37,1.33-.63,2.65.08,3.96.08.15.09.34.16.51.69,1.7,1.99,2.6,3.77,2.79.31.03.68-.15.95-.34.56-.39.98-1.04,1.8-.92.53-.51,1.18-.74,1.88-.9.4-.09.8-.41,1.16-.36.7.09,1.08-.26,1.5-.69.65-.65,1.64-.54,2.38-1,.75.36,1.44-.07,2-.36.89-.47,2.02-.17,2.78-.96.03-.03.12-.03.17-.01.94.38,1.54-.27,2.15-.78.79.23,1.54.62,2.15-.24.1-.15.44-.11.65-.2.43-.18.9-.33,1.25-.61.4-.33.8-.47,1.3-.43.23.02.47-.02.68-.1,1.35-.5,2.58-1.28,4.03-1.56.67-.13,1.24-.66,2.01-.6.17.01.39-.23.55-.4.61-.64,1.58-.66,2.22-1.3.2-.2.79-.01,1.21.02.53.04.44-.72,1.05-.72.48,0,1.01-.29,1.44-.58,1.14-.75,2.29-1.42,3.65-1.18.8-.56,1.51-1.08,2.25-1.58.24-.16.5-.36.77-.39,1.25-.18,2.38-.7,3.47-1.27.54-.28,1.08-.47,1.69-.42.29.31.11.4-.2.43-1.32,1-2.63,2.01-3.95,3.01-.56.43-1.17.75-1.83,1.03-1.08.46-2.07,1.13-3.1,1.71-.98,1.56-2.96,1.91-4.04,3.35-.07.09-.19.15-.3.18-1.67.45-3.01,1.62-4.63,2.17-.33.11-.64.29-.95.48-2.13,1.26-4.35,2.35-6.59,3.41-.31.15-.66.34-.86.6-.27.35-.6.52-.97.72-.83.42-1.75.79-2.39,1.42-.75.73-1.79.55-2.54,1.14-.14.11-.27.22-.42.32-.15.09-.34.25-.46.21-1.04-.38-1.73.58-2.66.68-.54.05-.73.54-.62,1.09.82.91,1.93.98,3.03.97.13.61-.13.94-.6.91-.8-.04-1.47.21-2.18.52-.47.2-1.03.19-1.55.25-.35.04-.74-.06-1.05.05-1.63.6-3.33.72-5.12.81-.54,1.36-1.67,1.46-2.92,1.29-.12-.02-.23-.03-.35-.05-.78-.08-1.53-.11-2.13.55-.09.1-.44-.02-.66-.03-.27.06-.53.13-.79.19-.73.39-1.64.12-2.35.62-.12.09-.35.05-.52.03-.86-.11-1.72-.24-2.67-.38-.11.12-.3.27-.41.46-.2.34-.48.52-.87.49-1.15-.08-1.96.61-2.83,1.28-.9-.42-1.81-.33-2.76-.11-.68.16-1.4.17-2.11.25-.23,0-.46-.01-.69-.02-.41-.02-.83-.04-1.24-.05-.49-.01-.95.05-1.3.44-.26.29-.55.36-.95.28-.39-.08-.85-.08-1.23.04-1.17.36-2.29.8-3.56.69-.45-.04-.91.21-1.38.25-2.88.29-5.76.53-8.64.83-.99.11-1.97.52-2.95.49-1.02-.03-1.99.13-2.99.25-1.23.14-2.5.08-3.7.34-1.23.27-2.47.04-3.68.33-.28.07-.59.03-.88.07-1.64.23-3.27.48-4.91.68-1.04.13-2.13-.04-3.11.53-.18.11-.46.06-.7.05-1.36-.04-2.71-.1-4.07-.13-.35,0-.7.07-1.05.11-1.54.19-3.06.29-4.5-.46-.26-.13-.55-.24-.83-.31-1.26-.32-2.54-.49-3.95-.09.1.67.21,1.3.3,1.93.14.95.05,1.8-.43,2.72-.45.86-.96,1.59-1.62,2.27-.27.28-.57.69-.57,1.04,0,1.65-.04,3.32.22,4.94.25,1.57,1.21,2.86,2.67,3.58,2,.99,3.97,2.12,6.29,2.28.29.02.57.12.86.19,1.37.32,2.69.96,4.16.63.11-.03.25-.02.35.03,1.05.55,2.14.48,3.25.23.17-.04.36,0,.53.02.54.07,1.01-.09,1.52-.26.94-.31,1.95-.4,2.93-.53,1.39-.19,2.79-.32,4.15-.7,1.4-.39,2.8-.94,4.3-.61.35.32.45.29.78-.24.97-.23,1.97-.33,2.93-.67.65-.23,1.44-.41,2.09-.26.96.21,1.58-.17,2.17-.8Zm129.95-42.21c.26-.87.9-1.19,1.78-.97.34.09.67.23,1.06.37.21.7.38,1.26.58,1.91-1.14.3-2.23.73-3.45.81-.29-.74-.17-1.45.03-2.11Zm-53.06-30.98s-.03,0-.04,0c.01,0,.03,0,.04,0Zm-5.21,47.73c-.06.15-.36.33-.53.3-.38-.06-.73-.23-1.1-.36.01-.13.02-.25.03-.38.4,0,.81-.01,1.21,0,.26,0,.49.17.39.43Zm8.28-2.54c-.47.21-.97.37-1.47.46-.15.03-.38-.2-.51-.36-.04-.04.1-.33.22-.39.5-.25,1.02-.46,1.59-.71.18.18.43.31.46.47.02.17-.13.46-.29.53Zm2.54-.14c-.51-.41-.85-.68-1.16-.94.11-.19.13-.33.21-.37.56-.33,1.09-.2,1.7.17-.22.33-.42.64-.75,1.14Zm7.7-2.98c-1.14.37-2.17,1.13-3.8.97.58-.78,1.17-1.13,1.78-1.39.52-.22,1.11-.3,1.68-.36.16-.02.39.19.5.35.05.08-.06.4-.16.43Zm8.7-2.68c-1.29.37-2.59.69-3.89,1-.1.02-.34-.16-.36-.27-.02-.12.13-.38.22-.39,1.01-.07,1.71-.95,2.72-1.06.31-.03.58-.36.89-.51.37-.18.75-.34,1.14-.03,0,.57-.14,1.09-.73,1.26Zm-31.41,2.11c.45.01.83-.1,1.06-.5.54-.95,1.39-1.22,2.41-1.13.17.01.35,0,.57,0,.56-.51,1.16-.99,1.69-1.54.58-.61,1.15-1.17,2.06-1.22.22-.01.49-.13.63-.29.72-.84,1.8-1.07,2.68-1.63,1.19-.77,2.36-1.55,3.51-2.38,1.1-.79,2.13-1.68,3.24-2.45.57-.4,1.26-.63,1.89-.95.89-.45,1.85-.82,2.65-1.41.93-.69,2.06-1.07,2.74-1.94.23,0,.36-.04.46,0,1.33.54,2.5-.06,3.41-.81,1.18-.98,2.55-1.16,3.9-1.5.45-.11.86.13,1.04.53.6,1.33,1.32,2.63,1.38,4.14.02.53.12,1.06.16,1.59.02.29.05.59,0,.88-.07.49-.48.91-.92.97-.5.06-.73-.29-.91-.69-.05-.11-.11-.21-.17-.31-.16,0-.31,0-.47-.01-.63.9-1.32,1.58-2.6,1.5-.69-.05-1.07.63-1.19,1.43-.57-.08-1.08-.15-1.59-.22-1.21.4-1.4,1.87-2.53,2.47-.32-.52-.62-.99-.95-1.53-.65.17-1.26.37-1.69.87-.64.74-1.51.95-2.4.93-1.31-.04-2.46.24-3.26,1.04-1.29.11-2.39.23-3.5.28-.7.04-.88.75-1.54,1.03-.23,0-.58.04-.93,0-2.17-.3-3.9.64-5.46,1.99-.33.29-.67.42-1.09.51-.86.17-1.71.39-2.56.61-.16.04-.3.18-.44.28-.59.43-1.1.23-1.65-.23.14-.11.25-.27.36-.27Zm-3.27,7.3c.07-.09.14-.19.23-.26.23-.18.46-.35.76-.58.38.13.65.22.92.31,1.03-1.28,1.83-1.13,2.37.32-.45.87-1.11.26-1.72.22-.17.21-.34.42-.59.74-.56-.05-1.19-.09-1.82-.17-.21-.03-.29-.39-.15-.57Zm-1.62-6.46c.6.2.74.62.63,1.1-.11.48-.35.92-.59,1.55-.35-.53-.62-.94-.93-1.4.3-.43.59-.83.89-1.25Zm-4.09,2.89c.13.05.23.18.4.32-.15.14-.25.31-.36.31-.12,0-.3-.11-.35-.22-.1-.21.12-.49.32-.41Zm-4,.58c.3-.05.56.05.59.49-.09.07-.2.23-.33.25-.32.05-.55-.13-.58-.45,0-.09.19-.28.32-.3Zm-11.29,9.98c.9-.95.91-.95.77-2.39.28,0,.56.02.83,0,.35-.03.83.02,1.01-.18.89-.99,2.29-.46,3.25-1.18,1.1.42,2.16-.42,3.28-.07.35.11.91.06,1.17-.16,1.37-1.14,2.87-1.24,4.48-.73.1-.1.2-.2.3-.29.09-.15.17-.43.26-.43.92-.04,1.57-.78,2.44-.89.24-.03.59.17.75.37.36.45.63.96,1.01,1.56-1.86.93-3.58,1.71-5.64,1.22-.46.32-.73.95-1.36,1-1.01.09-1.91.47-2.81.89-.82.39-1.68.53-2.57.26-.71.77-1.5,1.19-2.54.98-.21-.04-.46.07-.69.11-.27.07-.53.16-.8.2-.23.04-.46.02-.7.03-.33.12-.66.25-.99.37-.61.21-.61.21-1.79-.09.12-.2.19-.41.33-.56Zm-6.23-.7c.41.04.81.13,1.22.11.5-.02,1.06.17,1.45-.32-.22-.17-.32-.44-.03-.52.71-.19,1.21.2,1.15.85-.04.5-.35.54-.73.32-.25.12-.51.32-.77.33-.9.03-1.81,0-2.71,0,.13-.24.26-.48.42-.77Zm-1.62.75c.37-.03.75.03,1.13.06-.18.47-.6.63-1.03.69-.15.02-.33-.22-.5-.34.14-.14.26-.39.41-.4Zm-3.57,1.36c.1-.38.43-.52.79-.47.12.02.21.21.3.29-.12.49-.58.79-.9.6-.11-.06-.22-.3-.18-.42Z"/>
        <path class="cls-2" d="m332.87,185.81s-.02,0-.03.01c0,0,0,.01,0,.02,0,0,.03-.03.03-.03Z"/>
        <path class="cls-2" d="m184.2,305.3c.92-.92,2.01-1.37,3.33-1.24.64.07,1.3.03,1.95.02,1.05-.01,2.16.17,3.13-.32.67-.34,1.32-.4,2.03-.41.4,0,.79-.18,1.19-.27.09-.24.15-.36.26-.39-.1.03-.16.15-.26.39.26-.08.52-.16.79-.24.98.28,1.9.11,2.86-.2,1-.32,2.02-.55,3.11-.47.93.07,1.9.13,2.81-.05,1.48-.29,2.92.13,4.39.05.66-.04,1.33.26,2.05.04.29-.09.71.04,1.01.19.5.25.98.34,1.53.19.33-.09.71-.07,1.05-.01.93.14,1.82.09,2.76-.09.94-.18,1.93-.11,2.89-.3.25-.05.54.16.82.22.39.09.79.23,1.18.21.99-.05,1.99-.12,2.97-.3,1.24-.22,2.46-.23,3.7-.07.39.38.74.3,1.05-.11.57.02,1.14.06,1.72.07.26,0,.42-.11.41-.4,0,0,0-.01,0-.02.21-.07.44-.21.59-.15.74.32,1.48.18,2.23.08.27-.04.58-.08.83,0,.82.25,1.61.1,2.42-.04.18.44.44.38.72.1.51.08,1,.34,1.53.1,1.2-.53,2.47-.51,3.75-.49,1.33.02,2.67,0,3.96-.42.57.56.57.55,1.07.1.93.36,1.82-.37,2.77-.11.29.08.66-.2,1-.23.76-.06,1.55-.7,2.29.08.06.06.23.04.34.03,1.35-.11,2.69-.2,4.03-.35.59-.06,1.13-.09,1.71.14.41.17.91.32,1.35-.03.24-.12.49-.23.73-.35,0,0,0,0,0,0,.44.1.87.19,1.31.29.4.39.51.4.97.05.43.07.52-.42.9-.53.9.33,1.85.77,2.79-.01,1.17.05,2.33.09,3.5.14.4.83,1.08.37,1.53.21.75-.27,1.52-.45,2.24-.29.9.2,1.59-.11,2.31-.49.36-.19.69-.43.99-.61.35.12.64.19.9.32.25.13.47.34.71.49.52.32.71.2.85-.5.02-.09.12-.17.19-.26.69-.09.99.56,1.5.81.43.21.81.17,1.16-.07.23-.16.39-.42.63-.7.7.27,1.45.33,2.19,0,.33-.15.63-.08,1,.07.88.36,1.78.26,2.41-.52.52-.64,1.19-.88,1.95-1.02.54.36.69,1.32,1.63,1.04.16.2.34.11.4-.05.1-.27.13-.56.19-.85.48-.61.66-.68,1.06-.34.22.19.39.43.6.63.34.33.73.35,1.1.05.72-.58,1.42-1.2,2.45-.62.11.06.39-.02.47-.12.41-.53,1.07-.32,1.56-.57.12-.03.25-.06.38-.09-.06-.13-.11-.26-.17-.38.06.13.11.26.17.38.23.04.46.08.68.12.22.6.65.36,1.05.27.41-.13.81-.25,1.21-.38-.08-.55-.15-.98-.21-1.41.32-.37.71-.2,1.09-.17.07.18.15.37.22.55.17-.11.35-.2.5-.33.07-.06.07-.2.1-.3.49-.31.97-.62,1.49-.95.34.14.7.29,1.35.56-.32-1.12.45-1.28,1.07-1.58.21-.1.42-.21.62-.31.18-.13.34-.31.54-.38.41-.14.43-.1.47.58.12.43.23.85.37,1.36.99-.31,1.64-.83,1.93-1.77-.03-.19-.07-.37-.1-.56-.15-.04-.36-.03-.43-.12-.38-.56-.25-1.19-.31-1.95.35.13.64.14.71.28.27.49.46,1.03.68,1.54.08.19.15.37.23.56.06.38.11.76.18,1.23.51-.17,1.05-.17,1.25-.44.59-.78,1.47-.9,2.16-1.24.83.21,1.23,1.1,2.23.97-.18-2.04,1.42-2.45,3.06-3.03-.31-.85.56-1.18.77-1.8.31-.91,1.22-.57,1.69-1.06.04-.04.1-.06.16-.08.53-.19.94.16.84.74-.06.32-.2.62-.32.95.58.24,1.09.52,1.41-.2.14-.32.36-.42.68-.45.46-.05.72-.33.83-.79.08-.33.22-.65.34-1,.81.18,1.02.85,1.48,1.33-.32.53-.62,1.02-.93,1.55.39.49.71.96,1.45,1.04.36-.79.72-1.57,1.15-2.51.65.52.98,0,1.37-.31.37-.29.7-.62,1.06-.92.56-.46.98-1.12,1.75-1.3-.28-.53.16-.92.18-1.35.66-.26,1.15-.08,1.49.37.32.42.58.9.18,1.44-.23-.03-.46-.05-.69-.08-.19-.38-.48-.3-.8-.19,0,0-.02,0-.03,0,.04.07.04.16,0,.26-.16.35-.45.64-.6.99-.1.22-.05.51-.06.76.54.16,1.08.39,1.72.18.03-.31.05-.59.08-.88.13-.02.26-.03.39-.05.29.1.58.19.93.31.11-1.33.4-2.5.09-3.71-.09-.35.06-.76.1-1.15h.96c.12-.01.24-.02.36-.04-.03-.13-.05-.26-.08-.39-.03-.45-.1-.89-.1-1.34,0-.89-.16-1.13-1.2-1.52-.05-.46-.49-.41-.76-.59.05.21.1.43.15.64.12.26.33.51.14.81-.2.29-.43.62-.84.52-1.03-.26-1.54.26-1.89,1.12-.06.15-.2.28-.31.41-.52.13-1.03.26-1.59.4-.66-.49-1.31-.96-1.92-1.42-.66.17-1.14.45-1.36,1.09-.11.32-.26.69-.74.6-.06-.09-.18-.19-.17-.27.05-.34.13-.68.2-1.02.34-1.52.07-1.93-1.44-2.1-.22-.02-.45.09-.67.14-.12.15-.29.29-.34.46-.07.25-.06.53-.08.8-.05.2-.14.4-.11.58,0,.07.28.14.43.16.16.02.34-.03.5-.04.03.21.06.42.08.63.17-.04.28-.14.32-.26.01-.05.02-.11,0-.16,0,.06,0,.11,0,.16-.04.13-.15.22-.32.26-.42.45-.94.44-1.46.26-.35-.13-.61-.38-.55-.8.08-.58.18-1.16.3-1.73.06-.28.19-.56.24-.84.07-.35-.39-.74-.68-.53-.71.53-1.42.3-2.15.15.1.27.04.47-.23.6-.06.36-.19.65-.53.86-.43.26-.84.58-1.32.91-.4-.37-.82-.75-1.29-1.18-.2.2-.36.36-.52.52-.16.06-.32.12-.47.18-.08-.28-.17-.56-.23-.76-1.06-.05-2.04-.09-3.19-.15-.11.81-.64,1.41-1.38,1.82-.44,1.02-1.49.79-2.28,1.1-.22.09-.45.28-.65.24-.66-.11-.9.45-1.3.75q-.48-.83-1.61-1.37c.47-.67.91-1.35,1.43-1.98.21-.26.63-.35.86-.6.32-.34.58-.73.82-1.14.45-.75.56-1.64,1.11-2.39.54-.73.8-1.66,1.39-2.4.25-.31.44-.72.53-1.12.25-1.14.36-2.3,1.06-3.3.12-.17.13-.45.15-.68.11-1.46.2-2.93.32-4.39.03-.33.13-.66.21-1.01.84.12,1.59.44,2.24-.27.15-.16.56-.14.84-.1.52.06,1.03.25,1.47-.28.1-.12.44-.08.65-.05.28.04.55.15.86.25.84-.79,1.65-1.55,2.52-2.36.75.5,1.66.78,2.46.35.71-.39,1.34-.29,2.06-.08.45-1.57-.03-3.09-.05-4.72,2.18-.07,4.31-.12,6.2-1.09.15-.64-.29-1.19.12-1.79.39-.55.3-.87-.14-1.18-.47-.33-.99-.58-1.41-.83-.17-1.03.67-1.57.87-2.33-.29-1.06-1.04-1.65-1.97-1.89-.49-.12-.89-.26-1.2-.62-.63-.74-1.5-1.15-2.32-1.59-.73-.39-1.53-.62-2.38-.31-.2.07-.45.01-.7.01-.19-.34-.36-.64-.53-.95-.06,0-.11,0-.17,0-.75-.03-.95-.13-.89-.45.1-.49.59-.14.83-.37.04-.04.11-.04.16-.06.48-.41.9-.98,1.66-.42.21.15.56.15.85.14.83-.03,1.63.05,2.43.32.44.15.93.19,1.4.19,1.53,0,3.05-.06,4.58-.09.53,0,1.03,0,1.47-.43.16-.16.56-.19.82-.14.51.1,1.01.29,1.55.46.34-.21.68-.42,1.01-.62.82.28,1.58.62,2.41.14.18-.1.47-.1.68-.03.84.26,1.18-.28,1.49-.88.14-.1.27-.2.41-.3,0,0,0,0,0,0,.29-.04.63.01.87-.12.64-.37,1.31-.48,2.09-.24.11-.49.27-.88.28-1.27.01-.59-.02-1.19-.15-1.77-.19-.85-.02-1.52.76-1.98.2-.12.4-.25.55-.35-.13-.52-.25-.85-.3-1.2-.07-.4-.26-.9-.1-1.2.38-.72.1-1.35.01-2.05-.25-1.95-1.34-3.05-3.28-3.5-.26-.68-.66-1.2-1.47-1.53-.66-.26-1.34-.7-1.79-1.39-.43-.66-1.26-.38-1.82-.64-.35.44-.63.79-.95,1.19-.51-.47-.93-.85-1.38-1.26-.37.11-.7.3-1.04.29-1.42-.01-2.84-.07-4.26-.14-.22-.01-.48-.1-.65-.24-.98-.75-2.44-.54-3.27-1.61-.04-.05-.23.05-.34.02-.81-.21-1.62-.49-1.9-1.37-.34-1.06-.84-2.09-.71-3.27.05-.4-.04-.83-.13-1.23-.37-1.73-.83-3.45-1.14-5.19-.26-1.45-.16-2.9.37-4.29.63.1,1.17.31,1.68.24,1.6-.23,2.47.47,2.74,1.97.61.23,1.15.43,1.69.63.29,1.32-.36,2.87,1.1,3.73.67-.06.91-.83,1.67-.84.34.73.69,1.47,1.01,2.16.51.32.99.27,1.37-.06.68-.59,1.36-.55,2.14-.22.36.15.88.26,1.2.12.81-.37,1.6-1.02,1.73-1.87.17-1.15.8-1.96,1.42-2.8.91-1.22,1.98-2.33,2.9-3.55.49-.65.84-1.42,1.57-1.87.08-.05.13-.2.14-.31.04-.95.96-1.57.94-2.57,0-.22.34-.45.52-.68.58-.73,1.23-1.42,1.7-2.22.5-.85.83-1.8,1.21-2.64.87-.26.9-.23,1.24-.68.2-.26.39-.37.7-.45.87-.21,1.07-.37,1.01-1.13-.09-1.12.23-2.04.9-2.94.63-.85.74-1.79.26-2.84-.31-.68-.48-1.44-.48-2.23,0-.51-.15-1.07-.39-1.52-1.09-2.11-2.45-4.06-4.15-5.72-1.06-1.05-2.15-2.02-2.61-3.52-.18-.57-.64-.96-1.28-1.12-.62-.16-1.22-.41-1.83-.62-.23-.21-.47-.2-.71,0h0c-.24,0-.48,0-.72.01,0,0,0,0,0,0-.31-.19-.6-.24-.84.11-.55.06-1.1.12-1.64.18-.26-.13-.5-.18-.71.09-.46.02-.93-.04-1.36.07-.67.16-1.3.53-1.97.64-1.28.19-2.32,1.13-3.66,1.12-.15,0-.34.14-.44.27-.57.71-1.38.77-2.17.76-.42.81-.82,1.5-.77,2.39.03.5-.26.63-.82.48-.21-.06-.42-.23-.71.15.08.4.18.9.28,1.41.55-.05,1.1-.1,1.67-.16.33.94-.52,1.6-.47,2.47-.91-.15-.62-.8-.7-1.27-.27-.23-.54-.45-.81-.68-.27-.22-.62-.39-.78-.67-.31-.55-.74-.7-1.31-.62-.27.04-.53.08-.92.14.18.36.25.74.45.84.66.33,1.03.92,1.53,1.4.97.92,1.4,1.95.95,3.22.36.42.61.23.85-.08.21-.43.51-.37.85-.17.35.07.7.13,1.05.2.35.06.54-.05.43-.44-.06-.22-.13-.45.19-.53.26-.06.42.07.52.31.11.26.25.5.37.75,1.24.16,1.19,1.3,1.53,2.09.35.09.66.11.91.25.39.21.64.57.56,1.02-.13.81-.18,1.68-.51,2.41-.55,1.23-.98,2.5-1.37,3.77-.48,1.55-1.49,2.8-2.29,4.17-.5.86-1.16,1.64-1.83,2.38-.98,1.09-2.24,1.73-3.67,2.01-.57.11-1.06-.21-1.22-.76-.03-.11-.03-.23-.04-.35-.11-1.43-.74-2.59-1.8-3.54-.83-.75-1.66-1.49-2.46-2.22-.21-1.02.99-1.14,1.15-2.09-.05-.59-.11-1.35-.17-2.1.43-.51,1.31-.49,1.45-1.23.11-.6.51-.89.94-1.21.56-.41,1.09-.88,1.63-1.32.04-.62.09-1.2.12-1.73.33-.13.59-.24.86-.35-.08-.51-.18-.99.02-1.54.22-.6.13-1.26-.49-1.66-.52.43-.93.83-1.4,1.16-.73.51-1.15-.37-1.71-.45-.78.24-1.48.6-2.23.4-.45-.42-.08-1.28-.92-1.41-.32.21-.66.44-1,.67-.64.45-1.2.92-2.1,1.05-.86.12-1.81.67-1.79,1.88,0,.08-.15.15-.25.25-.31-.11-.64-.23-.82-.29-.91.29-1.69.52-2.46.78-.33.11-.76.2-.93.44-.57.84-1.54,1.08-2.2,1.71-.47-.06-.88-.11-1.27-.16-.93.54-1.86,1.05-2.75,1.62-1.15.73-2.28,1.47-3.6,1.89-.49.16-.96.48-1.36.82-.66.56-1.39.89-2.23,1-.53.07-1,.25-1.49.5-1.72.89-3.4,1.9-5.42,2.03-.51.03-1.01.3-1.5.5-.48.2-.91.17-1.41-.13-.18-.98-.73-1.96-.2-3.04.09-.18.05-.47-.01-.68-.31-1.02-.55-2.04-.31-3.13.1-.44-.14-.98.02-1.37.31-.74.36-1.47.35-2.25,0-1.38.63-2.15,1.94-2.58.47-.15.89-.2,1.38-.08.59.14,1.18.01,1.61-.49.67-.8,1.56-1.21,2.56-1.44.22-.05.54-.11.62-.27.38-.8,1.21-.86,1.83-1.26.78-.5,1.6-.98,2.21-1.75.47-.59,1.04-1.21,1.71-1.5,1.17-.5,2.02-1.41,3.01-2.12.94-.67,1.9-1.15,3.04-1.26.28-.03.62-.09.81-.27.55-.52,1.13-.59,1.79-.31.23.1.47.18.59-.11.27-.64.9-.7,1.34-.55.71.24,1.11-.07,1.59-.44.21-.17.51-.38.74-.35.76.1,1.36-.45,2.01-.48.98-.04,1.24-.83,1.79-1.3.48-.41.91-.88,1.43-1.39.72.23,1.59.27,2.14.72.83.69,1.73.63,2.65.67.71.03,1.43-.13,2.12-.04,1.24.17,2.57.09,3.63.99.2.17.53.23.82.27.64.1,1.28.17,1.88.24.83-.65,1.65-1.25,1.81-2.26.67-.12,1.29-.1,1.78-.35.5-.26.88-.77,1.41-1.27,0-.84.03-1.78,0-2.72-.09-2.24-.42-4.47-.34-6.73,0-.23-.03-.47-.09-.7-.32-1.38-.72-2.74-.71-4.17,0-.23-.09-.46-.17-.68-.47-1.44-1.32-2.77-1.36-4.34,0-.05-.07-.1-.09-.15-.64-1.58-1.27-3.16-1.91-4.73-.29-.71-.69-1.4-.85-2.14-.15-.7-.51-1.17-.97-1.63-1.96-1.97-3.93-3.94-5.88-5.92-1.82-1.84-3.89-3.25-6.41-3.94-.52-.38-1.1-.18-1.66-.17-.79-.22-1.57-.55-2.38-.65-1.83-.22-3.65.07-5.47.26-.49.05-1.04.35-1.4.7-.89.89-1.95,1.54-2.97,2.25-.55.38-.93.85-1.25,1.46-.53,1.02-.6,2.03-.28,3.1.19.62.39,1.24.24,1.92-.26,1.17-.42,1.33-1.73,1.57-.17.03-.32.14-.54.24-.36,1.21-.1,2.43.02,3.66.07.7.25,1.4.25,2.1,0,.86.23,1.62.66,2.36.32.56.56,1.16.82,1.76.24.54.44,1.09.69,1.62.18.37.47.69.62,1.07.59,1.54,1.19,3.07,1.69,4.63.45,1.4.94,2.81.97,4.31.04,1.51-.18,2.94-1.13,4.2-.75.99-1.3,2.11-2.2,3-.37.36-.71.84-.87,1.32-.38,1.16-1.23,1.87-2.17,2.5-.74.5-1.47.93-1.89,1.79-.13.27-.56.39-.84.59-1.28.93-2.74,1.62-3.86,2.77-1.11,1.14-2.43,1.83-4,2.06-.27.04-.56.18-.78.36-.88.72-1.89.94-2.99.81-.55-.07-1.03.09-1.52.35-.69.37-1.3.81-1.74,1.47-.36.54-.79,1.02-1.49,1.19-.26.06-.5.3-.71.5-.27.25-.52.41-.92.44-1.13.07-1.82.81-2.26,1.76-.58,1.23-1.09,2.49-1.59,3.75-.19.48-.2,1.05-.44,1.5-.34.64-.48,1.3-.61,2.01-.33,1.79-.4,3.65-1.28,5.32-.21.39-.2.91-.26,1.38-.15,1.29-.25,2.6-.43,3.89-.09.64-.32,1.25-.49,1.88-.87.48-.83,1.52-1.35,2.2-.5.65-.62,1.38-.63,2.17,0,.77-.02,1.54-.05,2.31-.02.47.03.99-.16,1.4-.37.8-.18,1.52.16,2.21.3.61.4,1.22.42,1.88.02.89.08,1.78.18,2.66.14,1.28.63,2.51.66,3.82,0,.06.02.13.06.16.8.62.94,1.64,1.3,2.47.76,1.76,2.27,3,3.07,4.72.23.49.82.84,1.29,1.19.22.16.56.25.84.23.81-.05,1.62-.18,2.4-.27.15-.3.29-.55.41-.78.6-.19,1.25.11,1.75-.36.34-.32.74-.58,1.08-.9.21-.2.49-.45.51-.69.09-.92.78-1.74.36-2.74-.15-.37.2-.65.59-.72.22-.04.46,0,.72,0,.21-.43.4-.87.62-1.28.47-.87.53-1.73.25-2.72-.28-1-.3-2.07-.44-3.13.72-.31,1.14-.69,1.46-1.34.46-.93.98-1.86,1.98-2.42.44-.25.77-.75,1.04-1.2.95-1.59,2.16-2.9,3.74-3.88.74-.46,1.57-.82,2.11-1.55.9.23,1.11-.74,1.77-1.03.98.56,1.84.33,2.73-.36.8-.62,1.56-1.44,2.72-1.4.84-.76,2.12-.55,2.96-1.39.36-.36.94-.12,1.14.4.21.55.38,1.12.51,1.7.12.54-.12.89-.66,1.08-.17.06-.35.17-.51.14-1.21-.22-1.81.65-2.53,1.34-1.1,1.06-2.21,2.12-3.37,3.11-.33.29-.86.34-1.3.51-.32.13-.71.2-.92.43-.56.61-1.25.83-2.02,1-.97.21-1.6.76-1.92,1.83-.64,2.07-1.48,4.08-2.25,6.11-.68,1.79-1.94,3.23-2.9,4.86-.54.92-1.14,1.8-1.8,2.64-1.79,2.27-3.64,4.5-5.44,6.77-.73.92-1.38,1.91-2.06,2.87-.41.58-.79,1.17-1.21,1.73-.38.52-.87.98-1.19,1.54-.63,1.09-1.45,2.01-2.41,2.81-.73.61-1.47,1.18-1.7,2.18-.05.22-.2.45-.37.6-1.35,1.25-2.35,2.79-3.55,4.17-.74.85-1.5,1.68-2.25,2.52-.22,0-.43.01-.65.02.02-.46.03-.91.08-1.37.04-.39.14-.78.21-1.16.16-.04.31-.08.53-.13-.19-.09-.32-.16-.46-.23-.12-.51-.25-1.03-.36-1.51-.35-.17-.66-.32-1.09-.52.28-1.23-.42-1.99-1.23-2.7-.52.31-.61.94-1.25,1.06-.53.1-.82.59-1.1,1.07-.5.86-1.06,1.7-1.7,2.46-.87,1.05-1.71,2.09-2.17,3.4-.08.22-.21.42-.36.6-.36.47-.66.91-.59,1.57.05.46-.23.9-.73,1.11-.26.11-.48.3-.8.51.07,1.1.14,2.19.2,3.16-.52.47-1.03-.31-1.41.26.07.61.15,1.23.19,1.86,0,.15-.13.31-.2.46-.38.31-1.09.32-.98,1.08-.27.07-.64.06-.78.24-1,1.22-2.41,2.11-2.96,3.7-.08.25-.36.43-.57.67.26.71.49,1.37.74,2.07-.15.26-.26.55-.46.75-.69.69-1.06,1.56-1.41,2.43-.26.65-.44,1.38-.09,2.04.72,1.37,1.68,2.55,3.09,3.3.67.35,1.33.72,2.04,1.1,0,.28.05.58,0,.85-.15.75-.49,1-1.25.93-.53-.05-1.04-.21-1.57-.28-.46-.07-.98-.23-1.38-.09-1.26.42-2.53.55-3.84.41-.29-.03-.59.11-.88.1-.74-.04-.9.57-1.19,1.03-.5-.23-.81-.84-1.42-.66-.66.2-1.28-.03-1.92-.05-1.71-.05-3.41-.07-5.12-.08-1.3,0-2.59.01-3.89.04-.59.01-1.21-.06-1.75.11-.82.26-1.64.25-2.44.1-1.24-.24-2.47-.1-3.7-.03-1.17.06-2.37.18-3.53.05-1.78-.2-3.52-.29-5.26.21-.64.18-1.24.08-1.89-.06-1.9-.42-3.81-.66-5.79-.49-1.45.13-2.93.46-4.41.11-.22-.05-.47.01-.7.01-1.42.01-2.83.04-4.25.02-.71,0-1.39-.04-2.07.31-.58.3-1.25.3-1.9.21-.52-.08-1.05-.13-1.69-.21-.22-.44-.44-.91-.67-1.37-.01-.06-.05-.13-.06-.19.01.06.05.13.06.19.2-.12.41-.25.61-.37.61-.23.63-.37.15-1.02-.17-.72-.75-.84-1.35-.9-.56.33-1.08.73-1.66.97-1.14.48-2.31.89-3.49,1.29-1.54.52-2.93,1.58-4.71,1.23-.38-.07-.93-.02-1.19.22-.46.43-1.02.11-1.47.38.02.12.02.23.05.32.32,1,.29,1.04-.4,1.64-.35.3-.77.62-.92,1.02-.35.94-1.04,1.38-1.9,1.71-.71.28-1.39.64-2.06,1.02-.3.17-.64.4-.79.7-.23.45-.19,1.05-.47,1.45-.31.46-1.12.3-1.42.94-.2.42-.51.79-.77,1.18.07,1.43.13,2.84.21,4.26.09,1.48,1.05,2.7,2.43,3.13.51.16,1.07.24,1.5.52,1.25.82,2.62.99,4.08.96Zm158.34-24.54c.1.04.18.16.26.25-.09.04-.18.13-.26.12-.09-.02-.17-.12-.26-.18.09-.07.19-.2.25-.18Zm-5,2.85c.13.03.24.13.35.19-.06.16-.1.26-.14.36-.15-.13-.29-.26-.44-.39.08-.06.17-.18.23-.17Zm-5.66-.98c.04-.16.34-.4.38-.37.2.13.36.33.64.62-.3.17-.47.33-.64.34-.38.01-.45-.3-.38-.58Zm-7.2-.81c.82.09.94-.57,1.34-1.02.79-.05,1.6-.1,2.65-.17-.05.59-.09.98-.13,1.43-1.52.28-2.96.54-4.41.81-.12-.63.21-1.09.56-1.05Zm-2.33-.55c.52,1.3.5,1.66-.04,2.52-.29.46-.66.65-1.2.45-.23-.71-.47-1.42-.76-2.31.67-.22,1.34-.44,1.99-.65Zm-3.05,2.04c-.25.22-.5.43-.72.63-.53-.18-.7-.6-1.02-.96.75-.54,1.12.3,1.74.33Zm7.38-40.88c.14.06.28.11.51.21-.17.16-.26.28-.38.33-.07.03-.27-.08-.26-.11.02-.15.08-.29.13-.44Zm-45.39,47.08c-.53-.05-1.13,0-1.63-.76.94-.06,1.54.01,2.24.39-.26.17-.45.39-.61.38Zm24.54,6.87c-.24.02-.5,0-.71.09.21-.09.47-.07.71-.09h0Zm4.08-10.86c0,.11-.07.21-.18.51-.51-.04-.96-.08-1.54-.13.16-.37.27-.63.39-.88.19-.38.52-.43.89-.34.44.11.45.48.44.83Zm2.07-2.15c-.12.12-.26.24-.41.32-.09.04-.22,0-.32,0-.26-.33-.24-.65.06-.93.23-.21.49-.3.78-.11.25.16.22.39-.11.72Zm-17.01-32.24c.45-.25.95-.42,1.16-.97.01-.04.33.04.5.07.13.32.37.29.5.06.13-.22,0-.44-.27-.53-.31-.58.03-1.03.32-1.47.38-.58,1.09-.91,1.29-1.66.04-.16.38-.23.58-.36.14-.09.39-.2.39-.31.08-1.37,1.33-1.88,2.01-2.81.1-.14.29-.23.37-.38.16-.3.34-.62.38-.95.03-.31.05-.57.36-.72.1-.05.26-.14.26-.22.09-.91.53-1.51,1.41-1.82.18-.06.28-.35.4-.55.55-.96,1.02-1.97,1.96-2.64.17-.12.32-.38.34-.59.05-.52.36-.85.65-1.23.17-.22.3-.5.38-.78.32-1.2.85-2.23,1.74-3.17.61-.64.85-1.63,1.24-2.46.08-.16.07-.38.18-.49.71-.72.8-1.65.9-2.58.19-1.81.76-3.58.45-5.43-.04-.21.11-.44.16-.67.12-.58.23-1.16.33-1.74.27-1.51.48-3.03.84-4.51.16-.66.6-1.26.95-1.87.18-.31.74-.22.86.15.32.95.71,1.89.88,2.87.43,2.45.76,4.91,1.14,7.36.25,1.58.52,3.15.78,4.72.03.17.05.36.14.51.8,1.44,1.04,3.11,1.9,4.52.06.1.16.19.18.3.41,1.81,1.39,3.34,2.51,4.81-.51.67-.97,1.27-1.5,1.96-.61.06-1.31.18-2.01.19-.54,0-1.02-.07-1.38.53-.12.21-.63.19-.95.29-.76.24-1.39.61-1.35,1.65-.4-.03-.78-.06-1.26-.1-.52.61-.85,1.49-1.83,1.72-.2.05-.26.61-.42.91-.31.58-.51.64-1.27.42-.73-.21-.89-.06-.92.9-.69.05-1.39.1-2.18.16.28,1.34,1.5,1.19,2.23,1.69,1.52-1.2,1.84-1.21,2.56-.12,1.17.02,1.81-1.38,3-1.09.2-.34.34-.59.48-.84-.2-.22-.4-.44-.72-.8.4,0,.68-.06.92.01.44.15.85.41,1.29.57.35.12.69.12.88-.31.15-.35.47-.25.76-.25.21,0,.53-.05.62-.2.5-.79,1.26-.51,1.93-.48.29.01.57.38.84.37.21,0,.38-.43.62-.54.61-.29.99.04,1.32.68-.33.22-.64.6-.98.63-2.04.19-3.6,1.37-5.24,2.4-.32.2-.59.37-.97.31-.1-.29-.27-.32-.37-.03-.08.25.09.38.35.37-.24.5-.65.55-.97.2-.4-.43-.86-.43-1.28-.29-.71.23-1.56.42-2.01.93-.82.92-1.91,1.11-2.94,1.35-.99.24-1.8.65-2.56,1.27-.37.3-.73.61-1.26.42-.18-.17-.37-.33-.68-.62v1.01c-.75.58-1.66.48-2.48.57-.76.44-.77,1.57-1.87,1.75-.18-.28-.34-.63-.59-.91-.23-.25-.55-.41-.79-.58-1.23.39-1.46,1.53-1.96,2.36-.21-.01-.36.03-.43-.03-.93-.7-1.7-1.61-2.77-2.12-.24-.11-.26-.65-.04-.78Zm-32.93,33.78c.11-.26.17-.55.28-.89.44-.13.87-.33,1.32-.39.53-.06.46-.65.84-.8.8-.07,1.52.15,2.21.49.13.15.26.3.39.45.09-.17.19-.35.27-.53.02-.04-.03-.1-.05-.16,1.07-1.45,2.27-2.8,3.33-4.39-.02-.12-.05-.35-.09-.58q-.15-.84.98-1.11c.38-.67.81-1.42,1.29-2.28.25.03.65-.04.9.12.55.34.88-.12,1.3-.24.1-.03.15-.41.13-.62-.02-.13-.23-.23-.34-.35-.48-.55-.47-.84.05-1.32.52-.47,1.06-.93,1.62-1.43.67.08,1.36.17,2.05.25.75-.56.14-1.15.04-1.73.65-.76,1.99-.93,1.89-2.35.21-.06.42-.17.64-.18,1.19-.06,1.19-.06,2-.74.58.09,1.15.17,1.73.26.27,0,.54.01.81.02.79.19,1.58.37,2.67.63.03-.01.36-.12.68-.25.42-.17.82-.16,1.17.13.52.43,1.06.49,1.64.17.54-.3,1.11-.24,1.71-.25.92-.01,1.87-.18,2.74-.49.55-.19,1.03-.29,1.51-.05.83.39,1.46.15,2-.52.56.15,1.07.29,1.64.45.75-.42,1.54-.72,2.47-.37.52.2,1.04-.08,1.49-.38.25-.16.45-.45.71-.51.24-.06.67.04.77.21.27.44.48.9.2,1.49-.53,1.12-.93,2.29-1.44,3.42-.39.86-.97,1.63-1.31,2.51-.62,1.63-1.94,2.78-2.81,4.23-.21.34-.55.63-.89.86-1.67,1.11-3.34,2.22-5.05,3.27-.9.55-2.01.69-2.85,1.39-.63.53-1.3,1.01-2.1,1.63-1.22-.14-2.58.26-3.96.41-1.55.16-3.15.41-4.74.06-.29-.06-.58-.08-.88-.12-.3-.1-.4.03-.38.31-.22.17-.5.3-.66.51-.53.68-.82.84-1.26.36-.58-.65-1.24-.77-2.05-.77-1.01,0-1.99,0-3,.12-1.15.14-2.34.02-3.51-.02-.54-.02-1.07-.04-1.56.23-.37.01-.79-.06-.86.49-.39.28-.8.48-1.31.4-.58-.09-1.16-.18-1.74-.22-.27-.02-.62,0-.8.16-.82.69-1.47.28-2.27-.24.17-.29.33-.51.44-.75Zm-65.75,17.79c-.06-.02-.12-.03-.16-.02.04,0,.1,0,.16.02Z"/>
        <path class="cls-2" d="m295.55,463.14c.9-.58.88-1.3.69-2.15-.66-.83-1.53-1.26-2.56-1.44-.45-.08-.9-.19-1.34-.32-.43-.13-.84-.3-1.3-.46-.43.33-.83.68-1.27.96-.23.15-.66.33-.8.22-.69-.51-1.24,0-1.84.14-.16.04-.34,0-.5,0-.17-.33-.32-.62-.45-.88-.14,0-.21,0-.26.02-.75.44-.81.62-.36,1.17.07.09.2.13.28.21.36.42.24.9.1,1.35-.1.33-.23.69-.72.57-.42-.83-.85-1.66-1.27-2.49.27-.89-.52-1.37-.82-2.03-.07-.16-.37-.32-.53-.29-.19.03-.46.23-.51.41-.1.38-.2.83-.1,1.19.18.61-.31.65-.63.94.73.66,1.01,1.38.33,2.28-.4.53-.48,1.2-.25,1.87.26.75.08,1.5,0,2.33-.75.43-1.47,1-2.29,1.27-1.08.35-1.85.96-2.47,1.87-.59.86-1.46,1.3-2.61,1.4-.09-.63-.17-1.19-.26-1.86,1.79-1.96,3.61-3.96,5.41-5.93,0-.73.03-1.39,0-2.03-.04-.63.1-1.25.48-1.66.61-.66.65-1.34.48-2.12-.09-.43-.04-.84.37-1.08.44-.25.49-.63.4-1.06-.06-.29-.12-.58-.16-.87-.16-1.23-.04-2.36,1.16-3.09.07-.04.07-.21.13-.39-.48-.29-.88-.68-.62-1.34.2-.05.43-.06.61-.16.27-.16.35-.39,0-.59.31-1.72.99-3.06,2.05-4.13.28-.29.57-.63.71-.99.25-.64.67-.92,1.33-.96,1.3-.07,2.42-.53,3.23-1.6.03-.05.09-.08.14-.11.85-.49,1.12-1.37,1.38-2.2.24-.76.09-1.56-.48-2.16-.94-.99-1.96-1.92-3.26-2.41-.58-.22-1.28-.11-1.89-.28-.66-.18-1.11-.9-1.9-.86-.05,0-.1-.04-.16-.07-.06-.16-.18-.32-.18-.49,0-1.05.14-2.11-.19-3.15-.04-.13.1-.32.14-.48.08-.34.2-.69.21-1.03.03-2.22.98-4.19,1.62-6.24.27-.85.74-1.63,1.56-2.09.62-.35,1.31-.59,1.87-1.01.56-.42.97-1.02,1.81-.81.12.03.32-.14.43-.27.36-.4.78-.66,1.29-.86.62-.24.78-.63.65-1.28-.08-.4-.21-.82-.43-1.14-.55-.8-.42-1.57-.02-2.34.22-.41.52-.77.75-1.11.17-1.25-.28-2.23-1.09-3.15-.31.05-.65.11-.96.16-.14-.44-.27-.87-.49-1.56-.68.5-1.42.18-2.07.57-.13.08-.35.12-.48.07-.91-.37-1.58.16-2.28.58-.3.18-.56.42-.85.63-.01-.18-.03-.36-.04-.55.05-.41.17-.75.53-1.05,1.27-1.03,1.95-2.49,2.72-3.88-.06-1.51.93-2.63,1.45-3.93.23-.58.28-1.13-.1-1.69-.15-.23-.19-.53-.28-.77.37-.35.7-.65,1.02-.95-.75-.86-1.01-1.78-1.02-2.82-.01-1.13-.55-2.11-1.2-3.01-.16-.22-.47-.48-.7-.47-.43.02-.58-.18-.83-.47-.3-.34-.73-.59-1.14-.81-.73-.39-1.49-.72-2.24-1.07.13-.22.27-.45.39-.66-.66-.03-.71,0-1.07.43-.72-.21-1.46-.3-2.22-.26-.5.07-1.01.13-1.47.19-.11.58-.04.94.52,1.01.36.05.5.25.39.61-1.18-.4-2.4-.21-3.6-.26q-.89.06-.75,1.02c-.75.26-1.41-.21-2.12-.28h0c-.45-.32-.56-.3-.78.19-.24.25-.48.5-.71.74-.17,0-.33,0-.5.02-.23.02-.46.1-.44.37.03.4.34.35.61.29.16-.03.32-.06.48-.1.23.06.46.19.68.16.78-.08,1.24.58,1.89.77.54.16.29.94.95,1.16.51.17.89.73,1.31,1.15.16.16.28.36.38.57.33.68.63,1.38.96,2.07.6,1.24,1.02,2.55.72,3.92-.3,1.38-.8,2.72-1.66,3.87-.91,1.23-1.9,2.41-2.89,3.58-.3.35-.7.62-1.08.91-.89.69-1.78,1.36-2.68,2.03-.56.42-1.11.89-1.72,1.22-.68.37-1.34.71-1.76,1.42-.17.28-.54.6-.82.6-.98.01-1.44.71-2.04,1.28-.29.28-.62.65-.98.7-1.5.21-2.38,1.11-2.91,2.45-.45.03-.87.1-1.28.08-.82-.03-1.32.44-1.69,1.08-.18.32-.03.55.3.68-.03.2-.06.41-.09.61-.53,0-1.07.08-1.58-.02-.68-.14-.92-.73-.64-1.36.85-1.86,1.86-3.65,2.25-5.69.02-.11.07-.23.12-.33.46-.96.85-1.94.67-3.04.64-.37,1.16-.73,1.12-1.52-.01-.21.08-.52.24-.64.81-.66,1.04-1.68,1.63-2.45-.09-.42-.18-.81-.27-1.24,1.26-1.2,2.06-2.58,1.87-4.23.37-.53,1.05-.03,1.26-.63-.79-.84-1.29-.98-1.89-.42-1.26,1.17-2.49,2.36-3.7,3.58-.41.41-.69.95-1.07,1.39-.4.47-.87.59-1.29.23-.27-.71-.4-1.37-.75-1.9-.32-.49-.43-.98-.36-1.51.16-1.28-.57-1.97-1.59-2.47-.11-.05-.22-.08-.34-.11-.8-.26-1.29-.81-1.51-1.61-.07-.27-.17-.52-.26-.8-1.51-.62-3.05-1-4.66-1.08-.42-.02-.8,0-1.15-.32-.94-.88-2.11-1.49-2.95-2.52-.59-.73-1.36-1.26-2.34-1.49-1.14-.27-2.24-.73-3.35-1.09-.22-.07-.47-.13-.7-.12-1.88.05-3.61-.53-5.31-1.21-.51-.2-1.01-.3-1.55-.14-.19.05-.41-.03-.62-.07-.11.54-.22,1.08-.3,1.45.45.83.85,1.48,1.14,2.18.14.35-.1.91.1,1.16.61.76.44,1.7.74,2.53.25.68.12,1.4-.21,2.06-.16.32-.3.64-.44.97-.39.86-.71,1.75-1.18,2.56-.44.76-1.03,1.44-1.56,2.15-.56.74-1.1,1.51-1.71,2.21-1.71,1.95-3.45,3.87-5.18,5.81-.64.72-.94,1.74-1.92,2.19-.14.07-.29.25-.33.41-.24.88-1.04,1.22-1.62,1.76-.43.4-1.07.76-1.19,1.25-.23.93-.82,1.39-1.55,1.8-.81.45-1.11,1.14-1.12,2.05,0,.94-.05.93-.96,1.13-.34.08-.7.14-1.02.27-.75.32-1.3.8-1.23,1.74.03.34-.08.7-.16,1.05-.09.39-.4.59-.78.61-.29.01-.59-.15-.86-.09-.3.06-.56.29-.96.5,1.09,1.09,1.47,2.22.58,3.69.47-.09.73-.14,1-.19.25.08.51.15.76.23-.03.42.15.7.58.67.34-.02.75-.06.99-.26.33-.27.52-.71.73-1.01.81-.15,1.55-.28,2.29-.41.24-.02.47-.04.71-.07-.18-.18-.35-.21-.5-.12-.03.02-.06.04-.08.06.03-.02.06-.04.08-.06.16-.09.32-.06.5.12.38-.07.76-.15,1.14-.22.5-.1.38-.48.33-.79-.06-.38-.17-.75-.26-1.12.07.01.13,0,.18-.04.17.02.47.1.49.05.23-.56.66-.63,1.21-.65.5-.02.58-.38.35-.95-.66.05-1.3.1-1.95.15h0c-.06-.36-.11-.7.32-.89.76-.35,1.52-.67,2.36-.34.59.23,1.19.12,1.37-.41.24-.69.91-.68,1.28-1.1.26.01.48-.06.44-.37-.04-.25-.2-.41-.5-.35-.11-.07-.22-.07-.33,0-.1.12-.19.28-.32.36-.25.15-.45,0-.47-.24-.02-.42.41-.81.14-1.27-.04-.28-.12-.55-.11-.83,0-.13.17-.25.31-.45.43.2.83.39,1.2.57.55-.35,1.07-.69,1.61-.99.06-.03.18.06.29.13-.12-.56-.02-.82.34-.83.58-.01,1.17,0,1.8,0,.13-.51.25-1.01.4-1.6.98.2,1.79,0,2.43-.72.1-.12.34-.11.48-.2.19-.12.4-.25.52-.43.48-.66.93-1.34,1.46-2.1-.41-.44-.9-.98-.38-1.74.67-.48,1.49-.23,2.21-.41.43-.33.82-.68,1.27-.95.95-.57,2.08-.94,2.84-1.69.71-.69,1.45-.91,2.31-1.05.48-.08.85.06.99.47.12.33.14.69.2,1.04.03.27.05.54.08.81.29,1.25-.6,2.2-.86,3.33.51.55.87,1.09.8,1.89-.06.7.23,1.36.56,2,.27.51.44,1.07.66,1.61.1.42.2.84.31,1.26.31,1.48,1.27,2.47,2.55,3.12.74.38,1.36.85,1.91,1.46.23.25.52.44.78.66.57-.2,1.13-.29,1.8.11-.17.22-.28.51-.48.6-.25.11-.57.05-.86.06-.37.29-.81.53-1.1.88-1,1.21-2.36,1.67-3.82,1.96-.53.11-1.01.26-1.39.7-.69.81-1.61,1.08-2.66,1.17-.92.08-1.87.24-2.57.98-.16.16-.4.25-.62.34-2.39,1.02-4.7,2.2-6.86,3.65-.24.16-.56.19-.82.31-.37.18-.71.4-1.07.6-.46.26-.89.64-1.38.75-1.45.34-2.36,1.27-2.99,2.53-.4.81-.92,1.46-1.7,1.98-.68.46-1.3,1.08-1.1,2.07-.3.39-.27.8-.09,1.22-.22.95.2,1.73.71,2.45.22.31.61.58.97.71.29.1.69.06.93-.32.06-.11.32-.15.48-.13.57.07.98-.27,1.47-.45,1.35-.5,2.55-1.17,3.56-2.2.16-.16.39-.28.61-.35.94-.3,1.53-1.05,2.28-1.62.73-.56,1.72-.74,2.45-1.35.27-.23.5-.5.76-.74.17-.16.34-.46.51-.46.92.02,1.5-.5,2.02-1.14.63.01,1-.76,1.51-.7.83.09,1.32-.38,1.91-.73.5-.3,1.02-.59,1.52-.88.24.24.47.32.68-.04.32.12.64.24.94.36.12-.06.26-.08.33-.16.34-.39.68-.79.99-1.21.38-.51,1.02-.06,1.46-.45.71-.61,1.6-.98,2.17-1.77.48-.66,1.18-.96,1.99-.97.34,0,.69,0,1.08,0,.59-1.5,1.8-1.99,3.22-2.15.35-.04.71-.1,1.03-.24,1.06-.45,2.32-.48,3.09-1.52.1-.13.28-.24.44-.27.91-.17,1.66-.98,2.69-.69.15.04.34-.06.51-.12.76-.29,1.89-1.06,2.59-1.76.14.07.31.12.43.23.38.34.87.35,1.11.02.51-.71,1.39-.8,2.01-1.34.51-.45,1.25-.64,1.91-.89.56-.21.97.15.79.7-.49,1.45-1.01,2.88-1.53,4.32-.2.54-.57,1.03-.37,1.67.03.08-.29.27-.45.41-.38.03-.79-.25-1.12.13-.33.11-.67.3-1,.31-1.01.03-1.67.59-2.05,1.42-.37.81-1.11,1.19-1.72,1.71-.17.14-.55.04-.83.04.07-.32.14-.64.24-1.13-.32.12-.61.13-.67.26-.17.35-.25.74-.37,1.11-.65.39-1.25.83-2,1.08-.64.21-1.22.71-1.76,1.16-.47.39-.92.72-1.56.73-.24-.63.09-1.46-.75-1.94-.86.2-1.72.53-2.49,1.08-.15.15-.43.29-.44.44-.01.33.2.34.43.13.45-.21.89-.23,1.33,0,.12.33.23.65.27.77-.58.66-.96,1.31-1.52,1.69-1.06.73-2.21,1.31-3.34,1.93-.59.33-1.14.15-1.62-.23-.2-.16-.28-.46-.44-.73-.63.29-1.17.51-1.68.79-.84.47-1,1.02-.45,1.88.15.24.49.39.2.68-.12.13-.42.13-.63.13-.45,0-.89.02-1.2-.49-.19-.3-.74-.19-.88.14-.15.36-.18.78-.26,1.17h0s-.04.03-.04.03c-.01.01-.02.02-.03.03-.23.15-.45.02-.7-.06-.5-.17-.75.06-.72.57.37-.06.74-.14,1.11-.16.11,0,.22.16.33.25h0c-.24.48-.47.97-.79,1.6-.33-.01-.83-.04-1.33-.06,0,0,0,0,0,0-.13-.08-.26-.17-.33-.22.34-.48.65-.93.96-1.38-.75.16-1.46.41-1.84,1.16-2.08,1.01-3.52,2.97-5.69,3.85-.12.05-.12.34-.24.46-.74.74-1.16,1.81-2.22,2.22-.99,1.16-2.25,2.08-2.93,3.5-.15.3-.42.57-.68.8-1.79,1.59-2.66,3.54-2.39,5.96.04.34,0,.7,0,1-.89.8-1.91,1.4-1.99,2.83,1.01,1.08,2.45,1.46,3.88,1.52,1.15.05,2.36-.01,3.5-.45.42-.16.94-.15,1.4-.11.84.08,1.65-.02,2.44-.27,1.48-.47,2.99-.64,4.54-.57.47.02.94-.06,1.41-.1.79-.08,1.27-.52,1.45-1.29.14.05.29.09.43.14h0c.08.27.22.54.24.81.02.39.15.68.47.89.96.65.94,1.53.63,2.42-.43.29-.8.48-1.1.76-.34.31-.78.66-.86,1.06-.17.86-.65,1.17-1.44,1.25-.21.02-.41.19-.59.32-1.34,1.04-1.86,2.71-3.03,3.89-.39.39-.53,1.03-.75,1.57-.19.49-.38.99-.48,1.51-.43,2.09-.65,4.17.15,6.25.32.83.82,1.46,1.51,1.88.74.45,1.59.82,2.43.97,1.06.19,2.01.64,2.94,1.11.57.29,1.1.36,1.69.35.47,0,.95-.07,1.39.04,1.66.41,3.3.85,5.04.5.28-.06.59,0,.89-.01.7-.05,1.4-.11,2.11-.17.14.08.29.17.43.24.46.24.74.1.82-.42.23-.01.47.02.69-.04,1.16-.29,2.31-.57,3.53-.59.73-.01,1.45-.29,2.18-.46.24.03.48.05.72.08.92-.32,1.98-.26,2.68-1.13.12-.16.41-.21.64-.25.98-.18,1.68-1,2.67-1.12.5-.68,1.36-.84,1.97-1.37.53-.46,1.03-.98,1.63-1.33,1.38-.81,2.66-1.74,3.66-3,.52-.65,1.18-.94,1.99-.99.35-.02.77.04,1.02-.13,1.4-.97,2.76-2.01,4.13-3.02.7-1.28,2.02-1.95,2.96-3,.51-.56,1.05-1.09,1.5-1.55.63.09,1.19.35,1.52.18,1.3-.67,3.04-.69,3.72-2.35.04-.1.17-.17.27-.22,1.06-.53,1.68-1.52,2.26-2.45.5-.8,1.13-1.33,1.89-1.79.11,0,.24.03.33-.02.41-.2,1.17-.02,1.11-.76-.04-.57-.72-.39-1.07-.63-.15-.7-.34-1.52.34-1.96Zm-83.34-37.52c-.07.31-.22.54-.56.52-.45-.02-.83-.44-.74-.79.17-.67.38-1.32.57-1.99,0,0,0,0,0,0,.17,0,.34.01.5.02,0,0,0,0,0,0,.22.18.44.36.63.51-.15.62-.3,1.17-.42,1.72Zm2.49.58c.02-.11.08-.21.2-.3h0c-.12.09-.18.19-.2.3Zm49.88,9.54c.58.31.81.38.99.14-.17.24-.41.17-.99-.14t0,0Zm1.28-.89h0c-.03.17-.05.35-.08.52.04-.17.05-.35.08-.52Zm-5.19,1.41c.4.04.74.06,1.1-.27.61-.55,1.38-.62,2.2-.38-.16.83-.59,1.4-1.44,1.56-.67.12-1.23.76-2.16.28-.11-.25-.29-.64-.52-1.15.37-.02.6-.06.83-.04Zm-19.52,8.35c.3.25.4.33.29.43.11-.1.01-.18-.29-.43,0,0,0,0,0,0Zm.02.6h0s0,0,0,0Zm-2.77,1.75s.06.03.09.04c-.03-.01-.06-.03-.09-.04Zm.18.07c.12.02.24,0,.34-.1-.1.1-.22.13-.34.1Zm5.31,16.97c-.58-.48-1.15-.76-1.94-.64-.29.04-.67-.2-.93-.41-.54-.45-1.02-.97-1.56-1.48,1.76-2.83,3.99-5.04,6.65-6.85.19-.13.37-.3.53-.47,1.05-1.2,2.39-2.1,3.41-3.32.07-.09.16-.2.27-.22,1.56-.38,2.48-1.95,4.15-2.17.39-.05.7-.61,1.08-.89.61-.45,1.24-.9,1.89-1.29.4-.24.9-.32,1.26-.6.31-.24.48-.66.75-1.05.74.33,1.32.07,1.89-.47,1.34-1.27,3.07-1.98,4.55-3.04.16-.11.44-.05.73-.08.13,1.12.24,2.17.13,3.23-.09.88-.14,1.77-.23,2.65-.05.46-.12.92-.26,1.35-.11.34-.25.62-.07,1,.32.69,0,1.32-.48,1.75-.93.81-1.6,1.92-2.8,2.4-.05.02-.11.05-.15.09-1.58,1.7-3.83,2.48-5.51,4.06-.34.32-.81.48-1.19.76-.48.34-1.01.65-1.37,1.1-1.09,1.37-2.42,2.4-3.93,3.24-.16.09-.33.15-.46.26-1.28,1.1-2.69,1.02-4.16.5-.11-.04-.23-.03-.5-.06-.12.15-.27.37-.47.56-.39.37-.87.45-1.28.11Zm21.36-4.71v2.23c-.55.91-1.41,1.32-2.47,1.37-.41.02-.82.18-1.22.16-.79-.04-1.51.09-2.2.46-.44.23-.78.06-1.01-.48,1.63-2.32,4.22-2.89,6.9-3.74Zm-2.35,17.22c-.67.22-1.37.38-2.01.66-.6.27-1.16.47-1.85.44-.43-.02-.87.27-1.3.45-.33.14-.63.32-.98.07-.09-.48-.36-.35-.64-.18-.84.61-1.77,1.01-2.8.77-.86-.2-1.62-.08-2.37.32-.73-.32-1.4-.6-2.21-.61-1.19-.02-2.27-.6-3.3-1.19-.57-.33-.73-.89-.44-1.52.26-.54.5-1.03.31-1.68-.08-.26.13-.71.35-.94.37-.39.45-.78.4-1.28-.05-.51.14-.93.73-1.03.16-.03.41-.13.44-.24.19-.9.98-1.04,1.64-1.37.41-.2.78-.53,1.1-.86.65-.66,1.34-.93,2.22-.48.46.24.92.46,1.39.69.15.15.27.34.45.44.24.14.5.2.6-.19.35-.01.77-.15,1.03,0,.72.43,1.52.51,2.29.74,1.04.32,2.02.73,2.73,1.73.48.67,1.36,1.07,2.08,1.55.18.12.45.15.68.14.97-.04,1.91.34,2.92.09.59-.15,1.28.03,1.91.13.14.02.25.31.44.59-1.95,1.08-3.79,2.11-5.82,2.76Z"/>
        <path class="cls-2" d="m222.86,418.34s-.06-.03-.09-.05c0,.03.01.06.02.08,0,0,.07-.03.07-.03Z"/>
        <path class="cls-2" d="m342.18,504.57c0-.41.04-.83-.01-1.24-.21-1.52-.47-3.03-.67-4.56-.11-.83-.33-1.6-.68-2.37-.33-.73-.87-1.43-.7-2.33-.48-.66-.28-1.5-.57-2.19-.19-.46-.51-.94-.91-1.2-.52-.35-.38-1.03-.78-1.31-.93-.65-1.27-1.65-1.79-2.57-.49-.86-.98-1.8-1.71-2.42-.72-.62-1.37-1.25-1.97-1.97-.56-.67-1.1-1.39-1.97-1.75-.26-.11-.52-.35-.64-.59-.43-.86-1.2-1.24-2.03-1.57-.31-.13-.66-.32-.85-.59-.42-.6-1.06-.69-1.62-.78-.51-.97-.96-1.85-1.37-2.63-.89-.35-1.62-.57-2.51-.3-.54.17-1.23-.13-1.84-.28-.57-.15-.46-.74-.65-1.14-.47-.99-1.56-1.33-2.48-.74-.39.25-.74.32-1.16.23-.35-.07-.69-.17-1.03-.26.04-.15.07-.3.13-.45.14-.34.11-.61-.22-.81-.13,0-.25,0-.37,0,.02-.05.05-.11.05-.16-.03-.46-.37-.55-.72-.5-.33.04-.7.16-.69.61,0,.09.13.17.19.26,0,0-.05.04-.05.04,0,.14-.08.35-.02.41-.07-.06,0-.27.02-.41,0,0,.05-.04.05-.04-.14.08-.28.23-.42.23-1.12-.02-2.02-.86-3.16-.86-.06,0-.15-.17-.18-.28-.19-.53-.57-.28-.87-.18-.47.16-.35.53-.23.87.27.08.55.13.79.25.07.04.07.41.05.42-.74.17-1.11.82-1.66,1.23-.06.05-.22-.02-.33-.04-.66.13-1.32.25-2.06.4.48.51.85.91,1.23,1.31-.1.11-.2.22-.3.33-.78-.09-1.46-.38-1.91-.94-.84.09-1.6.17-2.35.25-.78.09-1.35.4-1.35,1.36,1.39.25,2.33,1.18,3.22,2.2.26.3.6.53.92.78.18.14.54.21.58.37.23.98,1.27,1.17,1.75,1.86.39.57.96.84,1.46,1.22.13.31.26.61.39.92.85.61,1.36,1.63,2.37,2.07.14.06.19.28.3.42,1.19,1.46,2.4,2.89,3.56,4.37.74.94,1.83,1.68,1.91,3.05,0,.05.05.11.08.15.87,1.13,1.17,2.54,1.82,3.76.73,1.37.92,2.78.89,4.27,0,.24-.07.49,0,.71.19.58-.03.97-.37,1.44-.96,1.36-2.19,2.48-3.29,3.72-1.62,1.81-3.33,3.52-5.22,5.06-.4.33-.72.78-.97,1.23-.67,1.19-.91,2.51-.96,3.85-1.13.76-2.13,1.62-3.5,1.75-.1-.12-.2-.24-.3-.37.09-.31-.01-.55-.33-.61-.38-.07-.6.17-.7.52.2.26.4.52.61.78-.85.14-1.71.24-2.56.42-.43.09-.67.44-.63.91.02.26.08.53.14.96.56-.33.97-.57,1.46-.86.28.23.58.47.88.71-.03.29.08.41.38.33.23-.04.46-.07.69-.11h0c.11.13.2.35.34.38.26.07.6.14.82.03.31-.14.21-.46.1-.75-.07-.19.02-.45.04-.67.43-.56.95-1,1.65-1.2q.29.84-.8,2.36c.3.17.58.38.9.49.6.22.62.62.41,1.15-1.03-.41-1.65.14-2.16.93-.14.22-.16.43.12.57.69-.24,1.38-.49,2.08-.73.04-.02.11.03.24.08.2.27.44.59.63.85-.16.49-.29.87-.41,1.25.14.06.29.12.43.17.42.11.85.22,1.27.32.35,1,1.12.66,1.82.59.24,0,.47,0,.71,0,.24-.02.48-.04.72-.06.22.16.44.33.67.48.42.28.42.28.77-.34q.6-.13.86.58s-.09.1-.08.14c0,.04.07.08.1.13.02-.09.03-.19.05-.28h0c.5-.02.99-.05,1.45-.07q.25-.9.81-1.25.73.27,1.12-.26c.39-.28.71-.11,1.11.07.75.34,1.14.17,1.57-.53.12-.19.17-.42.25-.61.67-.13,1.28-.24,1.9-.36.45.48.52.47.88-.06.7.03,1.22-.39,1.78-.72.87-.52,1.74-.91,2.81-.84.5.04,1.04-.19,1.52-.39.45-.18.87-.43,1.35-.21.45.21.79.1,1.12-.21.48-.45,1.05-.72,1.69-.9.33-.09.64-.28.94-.46,1.96-1.23,3.38-2.97,4.42-5,1.11-2.18,1.52-4.56,1.79-6.97.12-1.11.22-2.2-.06-3.3-.08-.33.02-.71.02-1.06Zm-27.19,20.97c-.83-.31-1.61-.61-2.8-1.07,1.12-.26,1.81-.42,2.63-.61.31.43.54.96.17,1.68Z"/>
        <path class="cls-2" d="m279.18,346.86c.96-1.08,2.16-1.93,2.33-3.61.1-1.02.06-2.12.64-3.07.08-.13,0-.34.01-.52.03-.28,0-.64.15-.83.57-.69.43-1.45.3-2.2-.25-1.39-.35-2.8-.79-4.15-.18-.56-.3-1.13-.49-1.68-.72-2.1-2.52-3.56-3.36-5.59-1.26-1.23-2.35-2.65-3.91-3.56-.66-.39-1.31-.81-1.97-1.2-.45-.27-.89-.53-1.46-.59-.72-.07-1.36-.42-1.8-1.02-.57-.78-1.38-1.09-2.27-1.24-.52-.09-1.04-.12-1.27-.15-.72.47-1.19.82-1.69,1.1-1.59.89-3.35,1.07-5.13,1.1-1,.02-2,0-2.87,0-.66.68-1.21,1.31-1.82,1.86-.44.39-.61.84-.61,1.4.01.88,0,1.76,0,2.64-.26.17-.45.31-.66.41-1.96.97-3.61,2.21-3.98,4.56-.02.11-.12.2-.18.31-.36.19-.48.5-.42.89-.47.68-.93,1.37-1.12,2.19-.16.72-.16,1.42.5,1.92.77.58.98,1.34,1.02,2.29.13,3.1,1.13,5.84,3.7,7.81.19.14.34.32.5.5.51.57.54,1.64.04,2.25-.26.32-.58.59-.87.87-.67.65-1.53,1.19-1.98,1.96-.67,1.14-1.81,1.83-2.46,2.96-.24.42-.64.68-1.18.61-.52-.07-.73.27-.87.69-.3.05-.36.26-.26.49.11.24.32.28.54.1.23.28.45.55.68.83,0,.18,0,.36.01.53-.11.05-.22.09-.32.15-.59.34-.7.71-.23,1.02.52.35,1.11.62,1.67.94.48-.29.88-.52,1.28-.76.2.03.35,0,.32-.26,0-.02,0-.05,0-.07,0,.02,0,.05,0,.07.29-.02.58-.05.86-.07.56-.97.58-1.01,1.4-.72.5.18.93.14,1.36-.08.84-.42,1.67-.86,2.48-1.28.43.1.83.25,1.23.26.33,0,.71-.09.99-.27,1.33-.82,1.56-.89,3.31-.97.23,0,.46-.12.68-.19.77-.24,1.48-.73,2.37-.31.19.09.54-.15.82-.24,1.3-.41,2.6-.71,3.98-.48.4.07.86.09,1.22-.05,1.4-.56,2.87-.99,4.07-1.98.31-.26.67-.49,1.05-.64.52-.21.97-.44,1.04-1.07.89-.71,1.24-1.81,1.95-2.64.41-.49.72-1.11,1.44-1.23Zm-30.25,11.81c0-.2,0-.39-.12-.51.11.12.12.32.12.51Z"/>
        <path class="cls-2" d="m433.33,288.82c-.06-.41,0-.83-.04-1.24-.13-1.06-.32-2.1-1.2-2.85-.17-.38.06-.99-.63-1.06.11.24.16.5.29.72-.13-.22-.19-.49-.29-.72-.05-.58-.1-1.15-.15-1.82-.01,0-.12-.07-.18-.17-.83-1.29-1.63-2.59-2.82-3.61-.25-.22-.43-.57-.55-.89-.34-.91-.9-1.65-1.61-2.29-.7-.64-1.41-1.26-2.08-1.93-.49-.48-1.07-.77-1.71-.86-.54-.08-1-.23-1.48-.49-.57-.31-1.2-.55-1.83-.66-1.73-.3-3.47-.67-5.23-.7-1-.02-2.02-.07-2.98.14-1.43.31-2.85.62-4.29.87-.82.14-1.48-.11-1.98-.64-1.81.71-3.48.93-5.05-.37-.3-.25-.73-.45-1.12-.48-.94-.07-1.88-.03-2.82-.03-.37-.06-.74-.12-1.11-.17-.52-.06-1.05-.13-1.57-.16-.15,0-.41.08-.44.18-.12.39-.41.53-.75.67-.35.14-.68.35-1.06.55-.35-.59-.66-1.08-.97-1.6-.49-.06-.95-.13-1.41-.16-.25-.02-.45.09-.44.45.32.24.66.5,1.05.8-.34.38-.6.67-.95,1.06-.37-.47-.67-.86-.97-1.24-.59.13-1.14.24-1.7.37-.32.08-.51.28-.49.63.03.36.36.59.78.49.29-.06.56-.2.84-.27.09-.02.21.05.35.08.16.34.32.69.49,1.07h1.24c.05.49.09.9.12,1.31,0,.04-.07.08-.09.1-.41.14-.8.27-1.18.4-.11-.11-.3-.22-.32-.35-.03-.22.08-.45.08-.68,0-.27-.16-.46-.42-.4-.21.04-.45.16-.58.32-.16.21-.04.45.19.57.2.1.45.1.63.22.1.07.09.29.13.44-.74.34-.05,1.12-.49,1.58-.24.12-.5.27-.77.37-.85.3-1.21.22-1.49-.66-.2-.63-.76-.87-1.06-1.37-.23-.38-.88-.23-.98.21-.11.51-.14,1.04-.18,1.57-.03.47-.03.95-.53,1.26-.98-.52-.9-1.71-1.41-2.42-.5-.1-.9-.18-1.3-.25-.07-.22-.1-.45-.21-.66-.28-.56-.32-.56-1.29-.18.3.3.58.56.85.83,0,.46-.08.87-.43,1.22-.23.23-.38.53-.56.8-.2.11-.4.21-.6.32-.67-.25-1.34-.26-1.97.12-.38-.1-.76-.2-1.14-.3-.22-.32-.45-.64-.67-.96.3-.27.61-.47.81-.75.1-.14.08-.49-.03-.62-.12-.15-.52-.29-.61-.21-.91.76-2.33.98-2.62,2.41-.03.15-.21.26-.36.43-.33-.02-.67-.05-.97-.07-.2-.78.11-1.26.69-1.55.34-.17.6-.35.64-.75,0-.18.01-.35.02-.53-.28-.06-.57-.2-.83-.15-.56.11-1.11.32-1.58.46-.2.59-.37,1.08-.54,1.57-.25.15-.5.29-.75.44h0c-.46-.04-.92-.08-1.39-.12-.02-.12-.07-.24-.04-.35.23-.74-.18-1.23-.65-1.68-.09-.09-.32-.07-.47-.04-.08.02-.17.17-.17.27-.03.75.97,1.21.59,2.08-.02.05.12.18.21.25.09.07.2.12.3.18.18.89.36,1.79.53,2.68-.45.22-.91.35-1.25.64-.48.41-1.03-.01-1.49.23-.19.1-.43.22-.51.39-.08.18,0,.44.01.67-.1.1-.2.21-.3.31-.68.16-.84.69-.94,1.31.19.07.45.21.48.17.51-.61,1.27-.46,1.9-.67.1.13.21.25.31.38-.09.44.04.69.55.63.24-.52.48-1.04.71-1.55.4-.03.76-.01,1.09-.1.34-.09.64-.41.96-.41.8,0,1.33-.36,1.69-1.05.53.13,1,.38,1.43.32.46-.07.88-.42,1.31-.63.39.52-.07.68-.25.94-.16.23-.15.48.08.6.18.1.52.16.63.06.49-.42.92-.87,1.58-1.09.43-.14.44-.66.15-1.18-.12-.22-.19-.46-.37-.89.87.17,1.67-.09,2.18.32.53.42-.12,1.19.06,1.8.03.11.04.23.07.35.26,0,.52,0,.78,0,0,0,0,0,.01,0,0,0-.01,0-.01,0,0,0-.02.04-.04.07.02-.03.04-.07.04-.07-.26,0-.52,0-.78,0,.01.29.02.58.03.86-.08.38-.16.75-.26,1.27.42-.13.68-.22,1-.32-.05-.38-.09-.71-.13-1.04.03-.23.06-.45.09-.68l.09-.05s-.02-.05-.02-.05c.11-.21.22-.42.32-.62.36-.58.9-.8,1.52-.87.07.14.13.21.11.24-.04.11-.12.21-.16.31-.39.84.04,1.35.8,1.2.53-.1,1.04-.11,1.43.32,0,.08.02.16-.01.2-.45.62-.1,1.15.28,1.57.35.38.87.28,1.32.06.21-.1.41-.24.63-.32.21-.07.44-.1.66-.1.92,0,1.2-.36.79-1.11-.16-.29-.43-.52-.68-.76-.24-.23-.5-.44-.78-.68.39-.74.73-1.41,1.09-2.08.57-.18,1.12-.39,1.79-.04-.03.28.03.63-.11.82-.23.31-.59.51-.88.74-.39,1.24.69,1.91,1.07,2.85.26.66,1.02.87,1.55,1.3.37-.2.71-.34.98-.55.27-.21.48-.51.73-.76.16-.16.35-.32.55-.41.12-.05.3.03.56.07-.16.55-.47,1.07.07,1.54h1.54c-.05-.37-.11-.75-.17-1.17.55-.08.68.39.9.76.64.7,1.46.56,2.29.39.44.54.89.99,1.66.72.16-.05.42.16.62.27.41.22.82.44,1.22.68,1.15.7,2.39,1.14,3.73,1.3.04,0,.07.09.11.13.55.28,1.28.32,1.41,1.12.72.24,1.48.4,2.15.74,1.25.65,2.48,1.26,3.69,1.16.93.62,1.66,1.11,2.39,1.59.15.1.3.23.46.25,1.39.16,2.27,1.14,3.22,2.02,1.21-.12,2.36-.07,3.47.46.39.19.92.12,1.38.08.59-.06,1.15-.13,1.74.08,1.73.6,3.6.3,5.34.82.11.03.27.05.35,0,.71-.55,1.47-.22,2.32-.08.1-.86.58-1.44,1.16-2.06.57-.61.83-1.53,1.65-1.9.06-.4,0-.86.19-1.07.52-.56.47-1.15.37-1.81Zm-65.99-9.25s-.09.05-.13.08c-.07-.09-.2-.18-.19-.25.02-.2.11-.4.17-.6.08.05.24.1.24.16,0,.21-.04.42-.08.62Zm20.85-2.94h0c-.09.04-.18.07-.27.11.09-.04.18-.07.27-.11Zm1.13-1.78c.64.17.65.16,1.37,1.04-.59.48-.99,1.28-2.16.94.31-.79.55-1.38.78-1.98Zm.89,5.23c0-.14,0-.28,0-.42.51-.52.94-.22,1.38.11-.51.36-.51.37-1.37.31Zm2.12-8.38c.8.07,1.45.14,2.25.21-.14.26-.19.52-.34.61-.55.32-1.15.21-1.68-.05-.15-.08-.15-.47-.23-.77Zm1.12,2.43c.68-.5.8-.48,1.8.24,0,0-.04.04-.04.04,0,0,0,0,0,0-.58-.12-1.25.34-1.76-.28Zm2.49,7.6c-.14-.17-.33-.33-.39-.52-.06-.2-.04-.6.06-.64.46-.18.33.31.46.5.08.13.07.31.11.47-.08.06-.16.12-.24.18Z"/>
        <path class="cls-2" d="m234.67,505.4c.07-.21.07-.44.11-.72-.3-.05-.53-.1-.75-.12-1.42-.12-2.83-.23-4.25-.35-1.05-.08-1.94-.47-2.65-1.27-.23-.26-.48-.62-.77-.67-1.4-.25-2.39-1.26-3.6-1.85-.87-.42-1.32-1.17-1.51-2.06-.11-.51-.11-1.05-.1-1.58,0-.35.11-.67-.13-1.01-.15-.22-.22-.56-.18-.83.17-1.3.03-2.59-.1-3.89-.1-1-.16-2.02-.06-3.01.13-1.24-.11-2.45-.04-3.69.04-.82-.46-1.67-.7-2.52-.08-.28-.21-.58-.19-.86.07-1.14-.02-2.23-.61-3.24-.08-.14-.08-.35-.04-.52.22-.92-.21-1.62-.82-2.19-.55-.51-.68-1.07-.53-1.76.42-.24.46-.56.25-1.11-.32.23-.54.39-.76.55-.8-.17-1.1-.78-1.4-1.46-.98-2.2-2.37-4.07-4.45-5.36-.09-.05-.22-.03-.38-.05-.22.38-.44.78-.52.92-.93.61-1.34-.3-1.99-.26-.1.18-.23.31-.27.47-.42,2.16-.49,4.31-.08,6.49.3,1.62.56,3.27.58,4.9.04,3.79-.47,7.53-1.08,11.27-.22,1.33-.38,2.68-.76,3.98-.13.45-.14.93-.21,1.4-.06.41-.09.82-.17,1.23-.4,2.03-.8,4.05-1.21,6.07-.3.26-.31.55-.08.86-.01,1.24.06,2.46.53,3.64.26.64.31,1.38.39,2.08.15,1.17.3,2.33.36,3.51.07,1.54.78,2.81,1.61,4.02.43.62,1.09,1.12,1.39,1.79.37.83,1.05,1.16,1.72,1.59.29.19.48.51.74.75.21.19.45.33.68.5,0,0,0,0,0,0l.79.17c-.17-.32-.28-.48-.38-.5.11.02.21.19.38.5,1.27.93,2.6,1.6,4.25,1.18.16-.04.35.01.53.03,2.15.14,4.21-.1,6.18-1.1,1.43-.73,2.78-1.48,3.73-2.82.16-.23.43-.38.65-.58.25-.23.54-.44.73-.72,1.15-1.73,2.44-3.32,3.96-4.74,1.06-.99,1.14-1.76.45-3.12.16-.91,1.74-.76,1.47-1.99-1.06-.78-1.06-.78-.69-1.95Z"/>
        <path class="cls-2" d="m347.25,379.77c-.46-1.94-.55-3.97-1.55-5.77-.27-.49-.39-1.1-.42-1.67-.02-.62-.92-.81-.66-1.51-.16-.05-.39-.06-.45-.16-.43-.79-1.08-1.37-1.74-1.95-.21-.19-.4-.46-.48-.73-.33-1.1-1.18-1.75-2.01-2.41-.6-.48-1.25-.89-1.62-1.6-.4-.76-1.42-.53-1.91-1.16-.18-.23-.45-.39-.64-.61-.31-.36-.59-.74-.75-.94-1.22-.12-2.17-.36-3.08-.26-1.37.15-2.7-.04-4.03-.21-.44-.06-.76-.06-1.09.33-.18.21-.68.1-.95.27-.31.2-.52.56-.8.83-.07.07-.21.09-.33.12-2.18.5-4.17,1.48-6.2,2.35-.43.18-.89.43-1.34.43-1.67-.01-2.86,1.32-4.45,1.51-.14.02-.25.24-.39.35-.14.1-.29.21-.45.24-.92.2-1.85.37-2.77.55-.27.11-.55.21-.82.32-.93.06-1.84.22-2.71.57-.95.38-1.9.77-2.85,1.15h-.02c-.13.16-.24.35-.4.44-.42.24-.87.43-1.44.7.39.2.62.32.85.43-.5.62-1,.9-1.69.93-.45.02-.9,0-1.3,0-.1.12-.11.27-.13.4-.11.03-.2.15-.24.31,0,0-.03.06-.03.06-.33,0-.66,0-.99,0-.22,0-.57-.06-.63.04-.34.57-.83.58-1.39.52-.47-.05-.95-.06-1.33.32-.2.02-.39.04-.59.07-.38-.04-.76-.12-1.14-.12-.34,0-.67.09-1.01.13-.02.13-.05.27-.07.4.66.54,1.38.48,2.13.21.29,0,.58,0,.86,0,1.03.33,2.09.04,3.13.09.74.02,1.49.05,2.23.06.76,0,1.32.42,2.07.9-.43.19-.67.36-.92.39-.46.05-.92,0-1.38,0-.11.11-.15.21-.15.32,0-.1.04-.21.15-.32-.24.04-.47.09-.99.18.5.32.76.49,1.02.66.23,0,.5.1.69.01.62-.28,1.25-.25,1.86-.09,1.83.5,3.61.18,5.4-.16,0,.05-.04.11-.03.16.15.6.17.61.53.24.11-.11.19-.25.28-.38.57-.11,1.2-.08,1.68-.35.72-.4,1.2.34,1.82.2.23-.05.46-.1.68-.17.39-.12.77-.26,1.21-.41.33.28.67.58,1,.86,1.76-.91,1.89-.93,3.5-.69.56-.02,1.14-.01,1.45-.62.24-.16.45-.35.71-.47.4-.19.83-.33,1.24-.5.63-.25.3-1,.68-1.35.67-.62,1.39-1.19,2.1-1.79.58.28.97.66,1.09,1.34-1.05.87-2.11,1.71-3.13,2.6-.44.38-.89.8-1.18,1.3-.35.61-1.2.08-1.48.88.06.27.15.66.23,1.02-.54.61-1.03,1.17-1.53,1.73-.4.52-.4.55.06.95.22.28.53.28.78.15.45-.25.86-.57,1.3-.85.07-.04.21.04.4.08-.05.42-.11.84-.16,1.27-.35.06-.69.11-1.06.16-.05.32-.09.6-.14.87.13.23.26.46.4.69.31.08.63.15.94.23.24-.07.48-.15.72-.22.29.27.63.52.87.83.27.35.59.55.99.67.26.54.34.56.81.23.08-.06.11-.14.08-.24.09-.11.17-.22.26-.33,1.46-.06,2.91-.01,4.35.28.28.06.63.16.85.05.94-.45,1.96-.29,2.94-.48.23.3.47.26.71,0,.75-.14,1.5-.41,2.24-.37.74.04,1.49.31,2.17.62,1.06.49,2.24.63,3.25,1.24.14.08.34.05.53.07.48-.34.95-.67,1.44-1.02.43.17.83.29,1.19.48.66.36,1.2.24,1.77-.24,1.38-1.18,2.26-2.52,1.62-4.43-.13-.39-.14-.81-.24-1.21Zm-42.34-8.09h0s0,0,0,0Zm-3.06-.25h0s-.07-.07-.09-.09l.09.09Zm3.52.58c-.18-.09-.34-.17-.5-.26l-2.04.53c-.16.12-.31.23-.47.35.16-.12.31-.23.47-.35,0,0,0,0,0,0,.68-.18,1.36-.35,2.04-.53h0c.16.08.32.16.5.26.07.04.14.07.22.11-.08-.04-.15-.08-.22-.11Z"/>
        <path class="cls-2" d="m293.09,501.47c-.08-.06-.08-.22-.13-.33-.46-.95-.46-.94.34-1.8.11-.11.14-.3.23-.5-.38-.3-.74-.58-1.06-.83,0-.67,0-1.26,0-1.85,0-.94.18-1.91,0-2.81-.27-1.38-.77-2.71-1.21-4.05-.16-.48-.52-.76-1.06-.61-.06.08-.1.12-.12.18-.1.34-.19.68-.28,1.03-.22.91-.53,1.37-.78,1.16-.43-.37-.22-.85-.2-1.3,0-.11-.04-.22-.02-.13-.52-.51-.92-.89-1.33-1.3-.14.07-.39.1-.44.22-.18.41-.37.85-.4,1.29-.02.38.18.76.29,1.19-.43.73-.87,1.48-1.31,2.24-.14.09-.29.17-.43.26-.38-.16-.75-.33-1.13-.48q-1.76-.69-3.45.11c-.46-.35-.97-.73-1.55-1.18-.84.43-1.78.53-2.78.48-.75-.04-1.52.16-2.28.17-.58,0-1.07.24-1.39.64-.55.68-1.29.99-2.03,1.34-.27.06-.55.1-.8.2-.12.05-.18.24-.27.37l.42.19c.04.36-.2.58-.47.65-.51.13-1.04.16-1.5.23-.3.28-.51.64-.81.75-1.44.56-2.4,1.65-3.36,2.77-.22.26-.55.43-.8.63-.69,0-1.33-.02-1.97,0-.6.03-1.14,0-1.63-.44-.87-.78-2.06-.73-3.12-.97-.72-.17-1.58.21-2.25-.03-.75-.27-1.67.21-2.28-.58-.09-.11-.45-.05-.67,0-.34.08-.67.21-1.01.32-.16-.05-.33-.09-.48-.17-.59-.27-.59-.27-1.04.35h0c-.21.1-.43.18-.63.29-.89.51-1.9.86-2.39,1.87-.2.24-.27.48-.06.76-.09.38-.32.65-.71.69-.34.04-.7,0-1.05.01-.35,0-.77-.1-1.02.06-.58.36-1.09.86-1.62,1.3-.14.09-.31.15-.41.27-.09.11-.17.34-.12.42.15.2.37.23.56,0,.49-.07.97-.13,1.46-.2.25.18.5.37.75.54.21.14.44.26.67.39h0c.07.56.35.88.95.77.52-.09,1.03-.24,1.59-.37.89.76,1.98,1.22,2.75,2.16,1.13,1.36,2.35,2.65,3.53,3.98.55.62,1.1,1.23,1.62,1.87.38.47.76.87,1.39,1.01.45.1.74.48,1.08.81.83.81,1.82,1.51,3.06,1.49.45,0,.78.08,1.13.34.33.24.68.14.97-.11.63-.53,1.29-1.04,1.87-1.63,1.32-1.33,3.08-2.28,3.51-4.26.7-.17,1.26-.36,1.19-1.24-.14-.16-.34-.37-.51-.6-.56-.74-1.11-1.49-1.66-2.24.15-.8-.52-1.27-.72-1.92-.11-.34-.29-.61-.43-.9-.46-1-.55-2.01.26-2.97.97-1.15,1.97-2.05,3.63-1.46.27.1.6.01.88.08.33.08.67.21.97.38.51.29,1.01.6,1.48.95.47.34.9.73,1.34,1.1.66.56,1.3,1.14,2.11,1.49.94,1.22,2.14,2.14,3.36,3.06.5.38.85.97,1.61.88.11-.01.31.17.37.31.23.51.66.62,1.15.67.28.03.56.09.81.14.18.45.32.82.46,1.19.95.04,1.86-.04,2.71.15,1.01.23,1.69-.18,2.41-.75.82-.65,1.48-1.53,2.58-1.81.27-.07.56-.48.64-.79.3-1.18,1.14-2.02,1.78-3.04.06-.91.1-1.85-.77-2.53Zm-49,3.33c-.03.08-.06.17-.09.25,0,0,.02.05.04.08l-.04-.08c.03-.08.06-.17.09-.25Zm-.04.38s0,0,0,0h0Zm5.39-6.18s0,0,0,0c0,0,0,0,0,0Z"/>
        <path class="cls-2" d="m307.54,402.43c.26,0,.53.18.79.3.26.12.51.42.75.4.92-.09,1.12.76,1.61,1.2.73.05,1.43-.04,2.11.25.27.12.68-.04,1.01-.12.66-.16,1.22-.18,1.82.31.32.26.87.26,1.33.34.4.07.8.07,1.2.14.66.12.89.06,1.17-.46.2-.36.35-.74.56-1.18.32,0,.74.12,1-.02.67-.37,1.09-1.21,2.05-1.04.1.02.26-.21.37-.34.18-.23.3-.53.53-.7.55-.42.7-.98.56-1.58-.44-1.89-.75-3.84-2.28-5.27-.51-.48-.89-1.11-1.34-1.66-.94-1.15-1.9-2.25-3.22-3.01-.66-.37-1.31-.88-1.75-1.48-.58-.78-1.38-1.12-2.19-1.41-.71-.25-1.49-.25-2.04-.92-.13-.16-.56-.17-.83-.13-.77.11-1.38-.19-1.99-.59-.37-.25-.77-.47-1.16-.7q-.07-.71-.64-.34c-.71-.14-1.37-.53-2.13-.43l-1.15-.23c-.17-.06-.36-.09-.49-.2-.81-.64-1.71-1.03-2.73-1.19-.39-.06-.79-.23-1.14-.45-.93-.58-1.95-.8-3.02-.82q-.17-.67-.83-.58c-.78-.09-1.54-.28-2.35-.29-.66,0-.8.59-1.33.64-.73.06-1.44.28-2.2.45.22.92.34,1.79.63,2.59.58,1.63,1.23,3.23,1.88,4.82.76,1.86,1.79,3.46,3.11,4.98.19.22.32.48.49.72.13.19.25.41.44.55.56.42,1.18.76,1.72,1.2,1.28,1.03,2.52,2.09,3.53,3.4-.03.14-.07.27-.1.41-1.48.61-3.07.78-4.61,1.12-1.4.15-2.23.53-2.77,1.34.95.03,1.85.05,2.76.08,2.11.06,4.22.02,6.33-.04,1.53-.05,3.06-.06,4.59-.05Z"/>
        <path class="cls-2" d="m193.93,73.69c.65.61,1.46.97,2.44.77.69-.14,1.38-.12,2.1-.03,1.03.13,2.13.14,3.03-.6.46-.38.76-1.04,1.56-.85.12.03.33-.14.43-.27.83-1.14,2.22-1.42,3.49-2.33,0-1.49.06-2.96.01-4.43-.05-1.6-.64-2.98-1.82-4.11-.64-.61-1.18-1.32-1.77-1.98-.63-.71-1.31-1.29-2.25-1.66-1.11-.44-2.25-.71-3.4-.95-2.35-.49-4.69-.19-7.07.03-.2.56-.37,1.05-.53,1.5-.98.8-2.4.89-3.03,2.12-.01.18-.01.36-.03.53-.13.93.05,1.74.73,2.45.36.37.57.89.8,1.36.65,1.32,1.37,2.62,1.89,3.99.71,1.85,2.04,3.17,3.43,4.46Z"/>
        <path class="cls-2" d="m272.76,377.2c.24-.97-.02-1.7-.9-2.39-.6,0-1.41-.17-2.1.04-.85.27-1.63.12-2.43.05-2.23-.17-4.35-.98-6.6-1.06-1.45-.05-2.89-.15-4.36.17v2.36c-.35.52-1.2.65-1.12,1.48-.11.11-.21.21-.32.32-.65-.02-1.3,0-1.94-.06-.69-.06-1.38-.17-2.14.33.26.22.41.42.59.46.34.07.7.08,1.05.07.97-.04,1.86.26,2.71.67.45.22.74.56.51,1.11-.12,0-.25,0-.37,0-.65-.07-1.29-.15-1.94-.19-.29-.02-.59-.02-.88.04-.14.03-.33.2-.36.34-.03.13.08.38.2.43,1.56.64,3.01,1.52,4.66,1.99.87.25,1.82.7,2.42,1.35,1.25,1.35,2.92,2.14,4.24,3.38.42.39.98.63,1.49.91.66.36,1.19.15,1.65-.44.43-.56.42-1.2.44-1.79.35-.1.68-.11.87-.27,1.48-1.24,2.97-2.48,4.28-3.91.24-.26.45-.56.73-.77.27-.22.61-.36,1.13-.65-.54-.06-.83-.08-1.11-.11-.1-.1-.2-.2-.31-.3.03-.21-.01-.5.11-.63.42-.45.91-.85,1.38-1.29.63-.07,1.31-.15,1.98-.23-.01-.17-.03-.35-.04-.52-.63-.25-1.26-.47-1.96-.5-.5-.02-.99-.23-1.56-.37Z"/>
        <path class="cls-2" d="m363.62,278.74c.21-.32.82-.24.78-.93-.64,0-1.27,0-1.91,0-.36.18-.71.42-1.09.52-.47.13-.7-.13-.7-.72-.83.12-1.71-.05-2.49.38.03.2.03.38-.07.52.1-.14.1-.33.07-.52-.03-.16-.05-.33-.08-.49,0,0,0,0,0,0,.03-.32.06-.65.09-1-.25-.04-.41-.1-.57-.08-.15.02-.3.13-.52.24.08.44.15.88.26,1.31.01.05.28.03.43.05.04.22.08.44.12.67-.76,1.24-1.58,2.45-1.26,3.97-.36.25-.64.44-.92.62-.07.34-.35.47-.63.49-.47.04-.94-.02-1.41,0-.38.02-.45.31-.28.93-.07.05-.14.09-.2.14-.33-.1-.65-.19-.95-.28-.21-.59-.2-1.11-.01-1.62.05-.12.1-.24.16-.36l-.29-.04c-.41-.08-.62-.35-.58-.75.04-.4.34-.6.73-.62.39-.02.79,0,1.2,0,.26-.34-.09-.84.39-1.25.52-.44.34-1-.27-1.19-.38-.11-.8-.1-1.2-.14-.18.36-.33.65-.49.95-.44-.18-.98-.06-1.16-.64-.2-.65-.69-.76-1.26-.62-.51.12-1.01.27-1.52.41-.85.22-1.13.6-.69,1.36.4.68-.11.65-.41.84-.2-.11-.39-.27-.61-.33-.13-.03-.35.04-.44.15-.17.19-.14.46.08.59.19.1.43.1.65.14.22.51-.43.68-.43,1.1-.08.24-.17.48-.25.71-.35-.28-.7-.57-1.14-.92-.24.29-.57.51-.62.78-.17,1.02-.01,1.96.97,2.57l-.05.75c-.29.28-.68.48-.7.97-.02.46.07.82.74.89.44-.54.92-1.12,1.39-1.71.11-.13.25-.26.32-.41.11-.25.12-.71.27-.77.87-.29.8-1.05.86-1.79.72-.07,1.41-.09,1.48-.99.03-.37.41-.38.7-.38.33,0,.57.19.62.51.08.52-.07,1.19.21,1.54.49.62-.19,1.1,0,1.74.36-.04.68-.07,1-.11.36.37.05,1.11.75,1.31.19-.4.38-.79.58-1.2.26.15.46.2.56.33.63.78,1.38.91,2.18.35.47-.33.96-.38,1.49-.4.07,0,.14-.16.26-.3-.11-.41-.23-.85-.37-1.4.37-.37.68-.83,1.11-1.07.5-.28.79-.66,1.05-1.14.28-.53.73-.89,1.27-1.18.76-.41,1.49-.91,2.16-1.45.3-.24.45-.68.67-1.03Zm-17.12,6.37c-.08.02-.23-.06-.28-.13-.19-.27-.19-.55.07-.78.08-.07.21-.06.32-.08.06.1.17.19.18.29.04.28.07.59-.29.7Zm13.23-4.25c-.3.15-.65.22-1.38.45.26-.7.34-1.09.55-1.41.14-.21.42-.38.68-.44.1-.02.35.28.41.47.11.33.14.73-.25.92Z"/>
        <path class="cls-2" d="m355.74,283.3s.01,0,.02-.01c0,0,0,0,0-.01l-.02.03Z"/>
        <path class="cls-2" d="m380.21,274.12c.2.07.47.06.67-.01.86-.33.79-1.03.62-1.81.85-.32,1.4-1.2,2.42-1.28.11,0,.31-.31.28-.39-.07-.19-.25-.37-.43-.47-.44-.24-.98.03-1.43-.5-.49-.57-1.08-.32-1.33.39-.31.89-.63,1.77-.95,2.66-.08.22-.15.45-.18.68-.03.3,0,.63.33.74Z"/>
        <path class="cls-2" d="m197.91,436.04c-.22-.03-.44-.06-.66-.09-.26.13-.61.2-.75.41-.47.69-1.14.71-1.85.71-.11,0-.22.06-.38.11-.83.81-1.23,1.89-1.55,3.01-.09.14-.17.28-.26.42.06.09.15.13.26.12,0,0,.02.06.03.1l-.03-.1c-.11,0-.19-.03-.26-.12-1.05-.29-2.22.36-3.26-.34,0-.33-.11-.69.02-.9.65-1.04.11-1.75-.59-2.44-.07-.07-.06-.2-.09-.31.55-.81.81-1.79,1.62-2.46.41-.34.3-.68-.26-1.71-.7.78-1.52,1.4-1.88,2.46-.31.91-1.1,1.52-1.82,2.14-.34.29-.73.37-1.2-.03.27-1.62.31-3.34,1.59-4.68-.1-.98.06-1.9.57-2.74-.06-.22-.11-.44-.17-.66-.41.29-.98.25-1.28.85-.27.56-.76,1.09-1.28,1.44-1.54,1.05-2.28,2.68-3.22,4.15-.6.93-.89,2.05-1.72,2.86-.24.23-.37.61-.46.95-.39,1.5-.39,3.03-.09,4.55.07.36.39.83.7.95.92.34,1.75.83,2.81.94,1.08.11,2.06.12,3.08-.22.37-.13.81-.06,1.22-.08.59-.03,1.18-.02,1.77-.08.88-.09,1.5-.73,1.58-1.63.03-.35-.09-.71-.07-1.06.01-.26.14-.51.25-.86.43.21.72.42,1.04.49.33.08.7.03,1.05.04.46.42.87.39,1.42-.19-.43-.09-.7-.11-.94-.21-.11-.04-.15-.25-.22-.38h0c.08-.2.15-.4.23-.6h0c.17-.03.41,0,.49-.1.6-.69,1.25-1.36,1.74-2.13.41-.65.9-1.04,1.65-1.15.28-.04.54-.15.84-.23.13-.44.24-.83.35-1.22Zm-5.15,4.82h.02s-.01,0-.02,0Zm-.03,0h0s0,0,0,0Z"/>
        <path class="cls-2" d="m334.76,276.49c.11.96.21,1.81.32,2.85,1.16-.26,1.76-1.04,2.39-1.7.41-.43.57-1.1.86-1.72-.37-.23-.66-.41-1.16-.72-.38,1.24-1.53,1.04-2.42,1.28Z"/>
        <path class="cls-2" d="m200.13,434.08q.13-1.65-1.08-1.63c-.79.69-1.47,1.29-2.18,1.92-.06.31.22.44.42.64.32.32.15.64-.04.95.22.03.44.06.66.09.73-.65,1.47-1.3,2.21-1.97Z"/>
        <path class="cls-2" d="m353.05,275.59c.15-.41.2-.84.43-1.13.23-.28.63-.41.92-.58-.05-1.02-.83-1.16-1.49-1.19-.82-.03-.62.83-.85,1.31h-.98c-.31.54,0,.92.09,1.32.66.1,1.23.18,1.88.27Z"/>
        <path class="cls-2" d="m350.15,275.13c-.24-.11-.62.09-.93.15-.44-.81-.71-1.72-1.58-2.25-.85.89-1.05,1.74-.19,2.77.57-.15,1.18-.3,1.86-.48.16.27.31.57.51.84.32.42.54.37,1.17-.22-.28-.28-.51-.66-.84-.81Z"/>
        <path class="cls-2" d="m374.87,270.33c.23-.18.53-.38.33-.7-.1-.16-.38-.26-.59-.28-1-.1-1.24.17-1.2,1.54-.55-.11-.94-.29-1.31-.25-.44.05-.69.41-.68.99.24.27.53.59.77.86.95-.76,1.82-1.46,2.68-2.16Z"/>
        <path class="cls-2" d="m341.59,276.66c.15-.36.36-.7.56-1.06-1.48-.09-1.84.33-1.59,1.89-.44.13-.9.23-1.33.42-.25.11-.52.32-.61.56-.09.21.05.51.11.88.94-.38,1.74-.7,2.47-.99.09-.48.13-.82.23-1.14.03-.09.25-.12.39-.18,0,0,.01-.02.01-.02-.09-.12-.28-.28-.25-.36Z"/>
        <path class="cls-2" d="m360.29,271.63c-.02-.13-.37-.35-.51-.32-.26.07-.57.26-.67.48-.18.41-.23.89-.34,1.37-.46.16-.96.31-1.43.52-.11.05-.21.3-.18.42.03.13.2.27.34.33.15.06.35.07.5.02.32-.12.62-.3.94-.45.98-.45,1.48-1.28,1.35-2.38Z"/>
        <path class="cls-2" d="m280.74,377.22c.57-.13,1.18-.22,1.67-.5.55-.32,1.27-.06,1.72-.58.43.1.87.21,1.28.31.18-.38.63-.64.28-.98-.15-.15-.55-.13-.8-.06-.26.07-.48.29-.72.45-.54-.03-1,.7-1.59.14-.74.14-1.5.26-2.23.45-.28.07-.48.34-.31.72.22.02.47.11.69.06Z"/>
        <path class="cls-2" d="m343.28,275.51c-.4.08-.55.4-.5.79.07.61.28,1.13,1.05,1.22.13-.38.2-.79.4-1.12.2-.33.66-.49.68-.96.31-.14.64-.25.93-.43.1-.06.1-.29.14-.45-.2-.05-.5-.21-.58-.13-.28.27-.49.61-.73.93,0,0,.03.04.06.08l-.06-.08c-.46.05-.93.06-1.38.15Z"/>
        <path class="cls-2" d="m250.85,437.31c-.04-.13-.23-.27-.36-.29-.22-.03-.52-.06-.68.06-.56.41-1.1.86-1.6,1.34-.1.09.01.4.03.62,1.09-.06,1.68-.91,2.51-1.28.09-.04.16-.32.12-.45Z"/>
        <path class="cls-2" d="m317.9,383.43c-.44.35-.86.73-1.29,1.09.62.31,1.24.61,1.89.93.22-.5.43-.97.64-1.44.21-.14.41-.29.62-.43l-.4-.69c-.11.13-.21.25-.32.38-.42-.25-.8-.12-1.14.15Z"/>
        <path class="cls-2" d="m340.01,284.96s0,.01,0,.02v-.02s-.01,0-.01,0c0,.01.01.03.02.04,0,0,0,0,0,0,.1.05.23.15.32.15-.06-.1-.18-.17-.33-.19Z"/>
        <path class="cls-2" d="m273.38,245.5c.31-.14.6-.2.8-.37.71-.58.49-1.35.36-2.1-.25-.01-.5-.02-.74-.04-.78.69-.78,1.5-.42,2.5Z"/>
        <path class="cls-2" d="m286.63,375.54q2.01.43,2.81-.78c-1.02-.2-1.89-.03-2.81.78Z"/>
        <path class="cls-2" d="m306.68,516.4c.58-.68,1.22-1.35.92-2.46-1.05.34-1.23,1.2-1.46,2.02-.17.09-.35.18-.52.26.19.06.37.12.56.18.17,0,.43.09.5,0Z"/>
        <path class="cls-2" d="m378.61,272.08c.44-.02.88-.49.86-.93-.01-.36-.4-.64-.89-.65-.44,0-.8.29-.85.69-.05.43.41.91.87.89Z"/>
        <path class="cls-2" d="m360.49,275.84c.51-.41.89-.92.98-1.57.02-.17-.16-.42-.32-.55-.1-.08-.43-.05-.47.03-.29.53-.56,1.08-.77,1.64-.04.12.2.34.27.45.19,0,.27.02.31,0Z"/>
        <path class="cls-2" d="m373.3,282.31c-.13.36-.28.67-.35,1-.1.4.12.8.55.96.18.07.49.03.63-.09.3-.26.62-.6.41-1.05-.2-.41-.46-.82-1.23-.81Z"/>
        <path class="cls-2" d="m368.76,283.89c-.5.18-.83.56-1.09.99.2.4.51.55.86.32.28-.18.51-.46.71-.73.07-.1.06-.36-.02-.46-.09-.1-.33-.17-.46-.12Z"/>
        <path class="cls-2" d="m288.92,456.09c.19.73.44,1.44,1.05,1.93.1.08.3.04.64.08-.49-.85-.89-1.56-1.32-2.32-.15.12-.39.24-.37.3Z"/>
        <path class="cls-2" d="m277.98,378.18c.06-.02.08-.19.12-.28q-1.05-.59-1.81.18l.04.52c.55-.13,1.1-.26,1.65-.41Z"/>
        <path class="cls-2" d="m297.46,370.19c-.51.07-1.01.22-1.71.39.73.29,1.29.54,1.87.73.11.04.29-.13.44-.2.9.3,1.63-.08,2.43-.59-.87-.45-1.65-.11-2.43-.08-.2-.09-.41-.29-.6-.26Z"/>
        <path class="cls-2" d="m297.64,376.14h-2.1c.68.49,1.13.74,1.69.75.44,0,.53-.15.41-.75Z"/>
        <path class="cls-2" d="m228.37,387.59s-.06.07-.06.07c.23-.7.15-.82-.46-.79-.21.01-.46.28-.63,0,0-.03,0-.06,0-.09-.01-.01-.03-.02-.04-.03,0-.13-.03-.31.04-.37.5-.47,1.14-.84,1.53-1.38.53-.75,1.22-.97,2.04-1.04-.03-.17-.06-.35-.09-.52-.5-.04-.99-.08-1.49-.11-.06-.15-.12-.3-.17-.45.01-.52.13-1.06-.32-1.48-1.46.06-2.76.52-3.98,1.28-.9.56-1.81,1.18-2.8,1.5-1.1.35-2,1-2.97,1.55-.46.26-.82.67-1.27.95-1.39.88-2.83,1.69-4.05,2.83-.25.23-.6.38-.93.5-1.22.45-2.43.91-3.67,1.3-.66.21-1.37.44-2.16-.09-.26-1.02-.28-2.13.05-3.21.29-.95.5-1.92.85-2.86.34-.91.67-1.88.63-2.9-.02-.41,0-.86.17-1.21.22-.47.21-.91.09-1.37-.2-.73-.09-1.43.34-2.02.36-.5.45-1.04.59-1.62.28-1.17.37-2.46,1.4-3.35.25-.21.35-.6.49-.93.52-1.2-.07-2.13-1.4-2.15-1.21-.02-2.37.22-3.27,1.11-.79.78-1.75,1.12-2.79,1.44-2.32.72-4.53,1.75-6.34,3.41-1.29,1.19-2.74,2.29-3.17,4.15-.05.27-.09.55-.14.82-.23.48-.43.97-.7,1.43-1.39,2.42-1.99,5.06-1.94,7.82.04,1.96-.09,3.9-.22,5.84-.17,2.52.16,4.94,1.03,7.31.46,1.27.84,2.58,1.27,3.86.15.44.26.93.54,1.3.92,1.23,1.87,2.44,2.89,3.58.42.46,1.03.79,1.62,1.05.34.15.88.18,1.18.01.98-.56,2.04-.5,3.04-.58.68-.7.65-1.54.67-2.44,1.05-.48,1.19-1.49,1.39-2.47.01-.06.02-.12.03-.18.02-.75.49-1.16,1.09-1.47.21-.11.43-.2.64-.29.13-.08.38-.16.38-.24.02-.62,0-1.24-.02-1.86.16-.89.58-1.62,1.16-2.33.53-.65,1.13-1.18,1.81-1.66.48-.34.99-.66,1.36-1.1.73-.87,1.6-1.55,2.54-2.16.35-.22.67-.48.99-.74,1.05-.89,1.91-2.08,3.41-2.3.05,0,.12-.06.14-.1.4-1.14,1.56-1.24,2.42-1.55.85-.31,1.53-.76,2.28-1.21.9-.55,1.59-1.6,2.88-1.44.14.02.33-.3.5-.46.57,0,1.16.09,1.55-.46.01,0,.02,0,.04,0,0-.03.01-.06.02-.09,0,0,0,0,0,0Zm-.06.08s0,0,0,0c0,0,0,0,0,0,0,0,0,0,0,0Z"/>
        <path class="cls-2" d="m302.34,369.09c-.32-.19-.73-.25-1.19-.39-.05.35-.09.61-.14.92.62.06,1.18.11,1.73.17,0,0,.02-.01.02-.01-.14-.23-.21-.56-.42-.68Z"/>
        <path class="cls-2" d="m241.38,362.31c.46-.3,1.14-.39,1.3-1.49-.66.4-1.07.61-1.44.89-.21.15-.2.39.14.61Z"/>
        <path class="cls-2" d="m262.44,135.53c.16.1.42.04.73.05-.13-.27-.19-.42-.27-.56-.14-.25-.27-.56-.64-.45-.14.04-.36.3-.34.34.13.23.29.49.51.63Z"/>
        <path class="cls-2" d="m360.74,277.54s-.03,0-.04.01h0s0,0,0,0h0s0,.04,0,.06c0,0,.02,0,.02,0,0-.02.01-.04.02-.07Z"/>
        <path class="cls-2" d="m362.12,277.55c-.04-.67-.14-.86-.52-.84-.23.02-.52.04-.65.19-.14.15-.16.41-.21.64.13-.04.26-.11.38-.1.33.01.67.07,1,.11Z"/>
        <path class="cls-2" d="m355.5,236c-.12-.05-.36.03-.46.13-.16.16-.34.39-.33.59,0,.22.21.43.3.59.53-.03.76-.36.72-.91-.01-.15-.12-.36-.23-.4Z"/>
        <path class="cls-2" d="m365.18,284.6c-.4.18-.27.58-.14.97.35-.11.7-.22,1.05-.32-.13-.56-.43-.85-.91-.64Z"/>
        <path class="cls-2" d="m339.62,287.17s.04,0,.06,0c0,0,0,0,0,0,0,0,0,0-.01,0-.02,0-.03.01-.04.02Z"/>
        <path class="cls-2" d="m339.27,288.35c.38-.31-.16-.92.35-1.18-.3.05-.6.11-.9.16q.06.74.54,1.02Z"/>
        <path class="cls-2" d="m290.04,377.23c.07,0,.18-.17.17-.25,0-.08-.14-.23-.21-.23-.44.02-.88.08-1.32.12,0,.12.01.24.02.37.44,0,.89.01,1.33-.01Z"/>
        <path class="cls-2" d="m205.36,434.13c.19-.03.35-.26.6-.46-.23-.19-.39-.41-.57-.45-.19-.03-.44.08-.59.21-.08.07-.1.39-.02.46.15.14.4.27.58.23Z"/>
        <path class="cls-2" d="m316.84,381.01c-.51-.41-.66-.58-.85-.66-.19-.09-.42-.11-.63-.11-.05,0-.14.18-.14.28-.02.36.22.52.53.55.22.03.44-.02,1.09-.07Z"/>
        <path class="cls-2" d="m379.7,283.15c-.62.31-.53.66-.35.95.1.15.4.26.57.23.31-.06.22-.3.1-.51-.11-.19-.19-.4-.32-.67Z"/>
        <path class="cls-2" d="m376.53,281.44c.35.09.7.19,1.11.3.08-.73-.41-.8-.8-.97-.11.21-.22.42-.32.62l.02.05Z"/>
        <path class="cls-2" d="m197.02,440.46c-.08.11-.09.34-.03.46.17.35.5.43.85.31.08-.03.13-.15.28-.33-.23-.2-.44-.43-.7-.6-.08-.05-.34.05-.41.16Z"/>
        <path class="cls-2" d="m355.74,283.3s.02-.03.02-.03c-.01,0-.02,0-.04,0,0,.01,0,.02.02.03Z"/>
        <path class="cls-2" d="m354.46,282.76c.21.71.81.43,1.26.5-.39-.87-.41-.87-1.26-.5Z"/>
        <path class="cls-2" d="m275.1,242.55c-.09-.37-.43-.3-.68-.11-.22.16-.41.37-.62.56.25.01.5.02.74.04.33,0,.64-.13.56-.48Z"/>
        <path class="cls-2" d="m208.68,431.55c.16.06.49,0,.55-.11.09-.15.05-.37.01-.38-.25-.09-.5-.16-.76-.19-.05,0-.2.2-.19.23.11.17.22.4.39.45Z"/>
        <path class="cls-2" d="m239.7,445.16s-.01,0-.02,0c0,.01-.02.02-.03.04.02,0,.03,0,.05-.01,0-.01,0-.02,0-.03Z"/>
        <path class="cls-2" d="m187.59,427.79c-.31.59-.46.87-.61,1.16.06.22.11.44.17.66.35-.42.6-.87.44-1.82Z"/>
        <path class="cls-2" d="m301.99,527.54c.48-.5.73-.76,1.06-1.1q-.94-.02-1.06,1.1Z"/>
        <path class="cls-2" d="m293.83,376.26q-.65-.04-.99.42.58.04.99-.42Z"/>
        <path class="cls-2" d="m370.85,283.98c-.18-.11-.37-.2-.56-.29-.07.13-.14.27-.21.4.19.09.38.19.58.24.06.02.16-.12.24-.19-.02-.06-.01-.14-.05-.16Z"/>
        <path class="cls-2" d="m383.85,272.48c-.12,0-.24.17-.36.26.09.12.18.32.28.33.13,0,.27-.14.46-.27-.16-.15-.28-.33-.38-.33Z"/>
        <path class="cls-2" d="m342.15,277.94s.02.02.04.02c0-.02,0-.03-.01-.05l-.02.02Z"/>
        <path class="cls-2" d="m249.78,378.31h-1.16c-.07.23-.14.46-.21.69.33-.08.65-.18.98-.25.22-.05.47-.03.38-.44Z"/>
        <path class="cls-2" d="m309.2,469.38s.05.17.08.26c.1-.04.23-.06.28-.14.03-.05-.05-.18-.09-.27-.09.05-.22.07-.27.14Z"/>
        <path class="cls-2" d="m231.19,383.67c-.03-.25-.24-.35-.5-.23.03.17.06.35.09.52.29.11.44-.03.41-.29Z"/>
        <path class="cls-2" d="m321.43,383.59c-.24.07-.48.15-.72.22.36.41.43.39.72-.22Z"/>
        <path class="cls-2" d="m329.44,290.88s0-.12-.04-.15c-.24-.21-.36-.07-.45.16-.1-.12-.3-.24-.3-.35.03-.35.18-.69.19-1.03,0-.17-.16-.4-.31-.51-.09-.07-.4,0-.46.09-.47.73-1.23,1.32-1.17,2.33.29.19.56.11.8-.09.22-.18.39-.45.64-.57.15-.07.4.09.6.15,0,0,0,0,0,0,0,0,0,0,0,0,.17.21.34.21.5-.02Z"/>
        <path class="cls-2" d="m374.62,275.53c-.09-.05-.27.09-.42.14.06.15.09.38.2.43.12.05.32-.06.53-.12-.12-.18-.18-.38-.31-.45Z"/>
        <path class="cls-2" d="m200.08,437.97c-.07-.03-.19.05-.3.08l.23.36c.08-.06.16-.12.24-.17-.06-.09-.09-.23-.17-.27Z"/>
        <path class="cls-2" d="m248.16,378.44c-.1.08-.11.27-.16.41.14.05.28.1.42.15.07-.23.14-.46.21-.69-.16.04-.35.04-.46.13Z"/>
        <path class="cls-2" d="m260.33,490.05c-.24-.03-.48-.05-.72-.08.21.26.46.24.72.08Z"/>
        <path class="cls-2" d="m237.31,361.38c.14-.05.29-.07.4-.15.08-.05.1-.18.15-.28-.05-.03-.09-.09-.14-.09-.15.01-.35,0-.42.09-.07.08,0,.27,0,.42Z"/>
        <path class="cls-2" d="m241.82,505.68c-.04.14-.07.27-.11.41.44.2.82.21,1.07-.3-.29-.27-.63-.15-.96-.11Z"/>
        <path class="cls-2" d="m404.6,297.95c0,.06.01.12.02.18h.75c0-.1-.01-.21-.02-.31-.25.04-.5.09-.75.13Z"/>
        <path class="cls-2" d="m342.16,277.94s.02-.02.02-.02c-.07-.18-.14-.35-.21-.53.06.18.12.37.19.55Z"/>
        <path class="cls-2" d="m341.83,277.03c.05.12.09.24.14.36-.04-.13-.08-.25-.13-.38,0,0-.01.02-.01.02Z"/>
        <path class="cls-2" d="m308.2,366.65c.07.06.15.16.22.16.06,0,.13-.11.2-.17-.11-.04-.2-.08-.3-.1-.04,0-.09.07-.13.1Z"/>
        <path class="cls-2" d="m370.4,274.25c0,.18-.02.35-.02.53.42-.24.42-.29.02-.53Z"/>
        <path class="cls-2" d="m344.65,370.8s-.02,0-.03.01c0,0,.01,0,.02.01h-.02s0,0,0,0c0,0,.02,0,.02,0,0,0,0-.02,0-.03Z"/>
        <path class="cls-2" d="m344.74,370.55c-.03.09-.06.17-.08.26.12-.05.37-.04.08-.26Z"/>
        <path class="cls-2" d="m241.5,505.9c.07.06.14.13.21.19.04-.14.07-.27.11-.41l-.32.21Z"/>
        <path class="cls-2" d="m308.76,526.36c.09-.06.12-.14.09-.24-.14-.06-.29-.12-.43-.17-.03.12-.05.25-.08.37.14.01.28.03.43.04Z"/>
        <path class="cls-2" d="m291.02,374.09c.07.1.13.21.2.31.02-.14.05-.27.07-.4-.09.03-.18.06-.27.09Z"/>
        <path class="cls-2" d="m298.72,249.82c.28.22.6.37.97.19.34-.16.57-.41.55-.81-.02-.49-.2-.91-.59-1.22-.68-.08-.9.43-1.13.9-.17.34-.11.69.21.94Z"/>
        <path class="cls-2" d="m304.5,248.85c.21-.04.45-.11.61-.24.07-.06.03-.41-.05-.45-.48-.23-.65-.61-.69-1.12-.02-.28-.17-.55-.26-.82-.14-.02-.29-.05-.43-.07-.59,1-.1,1.79.51,2.55.07.08.22.17.31.15Z"/>
        <path class="cls-2" d="m306.94,248.28c0-.78.07-1.25-.02-1.69-.06-.3-.3-.61-.53-.82-.11-.1-.43-.03-.62.05-.12.05-.24.28-.22.42.07.78.47,1.36,1.4,2.04Z"/>
        <path class="cls-2" d="m303.86,245.93c-.06.07-.12.15-.18.22.14.02.29.05.43.07-.08-.1-.17-.2-.25-.29Z"/>
        <path class="cls-2" d="m261.89,436.97c.02-.08.05-.17.07-.25-.04,0-.08,0-.12,0-.02.04-.07.09-.06.12.02.05.07.09.11.13Z"/>
      </g>
      <path class="cls-1" d="m37.02,313.06v-7.16h-2.85v7.16H2.14v57.71h32.03v5.32H2.14v2.85h66.91v-2.85h-32.03v-5.32h32.03v-57.71h-32.03Zm21.01,28.54v5.41h-17.55v-5.41h17.55Zm0-2.85h-26.83v-5.87h26.83v5.87Zm-38.43-22.85v5.58H4.99v-5.58h14.6Zm-14.6,8.43h17.45v-8.43h5.9v25.69h9.28v5.41h-9.62v2.85h9.62v9.55h-8.74v-4.39h-2.85v4.39h-.02v2.85h26.14v-7.24h-2.85v4.39h-8.83v-9.55h17.55v18.06H13.85v-14.02h8.92v-23.98h-11.77v38h-6.01v-43.59Zm8.86,8.43h6.08v5.65h-6.08v-5.65Zm0,8.49h6.08v9.79h-6.08v-9.79Zm47.03,26.66v-37.89h-29.68v-14.13h18.12v8.43h16.89v43.59h-5.32Zm5.32-46.43h-14.04v-5.58h14.04v5.58Z"/>
      <g>
        <path class="cls-3" d="m2.34,246.51c.58-.45,1.02-1.09,1.33-1.9.3-.82.49-1.78.58-2.9.08-1.12.12-2.36.12-3.74v-9.6c0-1.54-.03-3.04-.09-4.52-.06-1.48-.12-2.99-.19-4.52.3.05.59.09.87.12.28.04.56.05.84.05s.56-.02.84-.05c.28-.03.57-.08.87-.12-.07,1.54-.13,3.04-.19,4.52-.06,1.48-.09,2.99-.09,4.52,0,1.05,0,2.13.02,3.25s.02,2.22.04,3.3c.01,1.08.02,2.12.03,3.12s.02,1.92.02,2.76c0,1.05-.17,2.01-.51,2.88-.34.87-.82,1.65-1.45,2.32s-1.38,1.21-2.25,1.59c-.87.38-1.82.58-2.85.58l-.28-.98c.98,0,1.76-.23,2.34-.68Z"/>
        <path class="cls-3" d="m13.98,223.85c-.06-1.48-.12-2.99-.19-4.52.3.05.59.09.87.12.28.04.56.05.84.05s.56-.02.84-.05c.28-.03.57-.08.87-.12-.07,1.54-.13,3.04-.19,4.52-.06,1.48-.09,2.99-.09,4.52v6c0,1.54.03,3.05.09,4.54s.12,2.96.19,4.4c-.54-.05-1.11-.07-1.71-.07s-1.18.02-1.71.07c.07-1.44.13-2.91.19-4.4s.09-3,.09-4.54v-6c0-1.54-.03-3.04-.09-4.52Z"/>
        <path class="cls-3" d="m23.5,243.31c.07-1.44.13-2.91.19-4.4s.09-3,.09-4.54v-6c0-1.54-.03-3.04-.09-4.52-.06-1.48-.12-2.99-.19-4.52.3.05.59.09.87.12.28.04.56.05.84.05s.56-.02.84-.05c.28-.03.57-.08.87-.12-.07,1.54-.13,3.04-.19,4.52-.06,1.48-.09,2.99-.09,4.52v1.92c0,.19.07.28.21.28.09,0,.26-.1.49-.31.81-.7,1.67-1.49,2.57-2.37.9-.88,1.8-1.8,2.71-2.76s1.8-1.93,2.69-2.92c.88-.99,1.73-1.95,2.55-2.88.26.05.5.09.73.12.23.04.47.05.7.05.28,0,.56-.02.84-.05.28-.03.56-.08.84-.12-.81.7-1.73,1.53-2.76,2.48-1.02.95-2.05,1.93-3.09,2.93-1.04,1-2.02,1.98-2.97,2.95s-1.73,1.81-2.36,2.53c1.89,2.12,3.79,4.28,5.71,6.48,1.92,2.2,3.87,4.41,5.85,6.62-.35-.05-.7-.07-1.05-.07h-2.01c-.31,0-.63.02-.96.07-.84-.95-1.76-2.05-2.78-3.28-1.01-1.23-2-2.43-2.97-3.58-.97-1.15-1.84-2.19-2.62-3.11-.78-.92-1.36-1.56-1.73-1.94-.19-.19-.33-.28-.42-.28-.12,0-.17.07-.17.21v3.04c0,1.54.03,3.05.09,4.54s.12,2.96.19,4.4c-.54-.05-1.11-.07-1.71-.07s-1.18.02-1.71.07Z"/>
        <path class="cls-3" d="m63.3,230.68c0-3.3-.01-5.85-.04-7.65-.02-1.79-.08-3.03-.17-3.7.26.05.5.09.73.12.23.04.47.05.7.05.3,0,.65-.06,1.05-.17-.07.82-.14,1.79-.21,2.92-.07,1.13-.13,2.34-.17,3.63-.05,1.29-.09,2.62-.14,3.98-.05,1.36-.08,2.68-.1,3.96-.02,1.56-.26,2.96-.72,4.19-.45,1.23-1.1,2.28-1.94,3.14s-1.87,1.51-3.09,1.96c-1.22.44-2.62.66-4.21.66-3.49,0-6.03-.79-7.61-2.37-1.58-1.58-2.37-4.08-2.37-7.51,0-1.09.03-2.06.09-2.92.06-.85.09-1.72.09-2.6,0-1.96-.02-3.69-.07-5.2-.05-1.51-.09-2.79-.14-3.84.28.05.58.09.91.12.33.04.63.05.91.05.26,0,.51-.02.75-.05.24-.03.49-.08.75-.12-.05.51-.09,1.18-.14,2.01-.05.83-.09,1.76-.14,2.81-.05,1.05-.08,2.18-.1,3.39-.02,1.21-.03,2.47-.03,3.77,0,.79.01,1.61.03,2.46.02.85.1,1.68.24,2.48.14.8.37,1.57.68,2.3.31.73.76,1.37,1.34,1.92.58.55,1.31.98,2.2,1.29.88.31,1.98.47,3.28.47s2.36-.19,3.23-.56c.87-.37,1.59-.86,2.15-1.47.56-.6,1-1.3,1.31-2.09.31-.79.54-1.62.68-2.48.14-.86.22-1.72.24-2.58.02-.86.04-1.65.04-2.37Z"/>
        <path class="cls-3" d="m79.01,234.1v2.17h-8.69v-2.17h8.69Z"/>
        <path class="cls-3" d="m82.22,232.07c0-.98.17-1.82.52-2.53.35-.71.83-1.3,1.45-1.76.62-.46,1.33-.81,2.13-1.05.8-.23,1.66-.35,2.57-.35.44,0,.87.01,1.27.04.41.02.93.06,1.55.1.54.05,1.01.08,1.43.1.42.02.76.04,1.01.04,1.3,0,2.25-.06,2.83-.17-.02.12-.04.24-.05.37s-.02.25-.02.37,0,.24.02.37c.01.13.03.25.05.37-.68-.05-1.33-.1-1.97-.16-.64-.06-1.27-.1-1.9-.12l-.07.07c.72.4,1.3,1.01,1.75,1.83.44.83.66,1.68.66,2.57,0,1.75-.59,3.11-1.76,4.1-1.18.99-2.75,1.48-4.73,1.48-.33,0-.65-.01-.96-.04-.31-.02-.63-.03-.96-.03-.42,0-.81.15-1.17.45-.36.3-.54.69-.54,1.15,0,.61.15,1.05.44,1.33.29.28.83.43,1.62.45.65.02,1.29.04,1.92.05s1.27.03,1.92.05c1.07.02,1.98.15,2.74.38.76.23,1.37.55,1.85.94.48.4.83.85,1.05,1.36.22.51.33,1.07.33,1.68,0,.81-.16,1.64-.47,2.48-.31.84-.8,1.59-1.47,2.27-.66.67-1.52,1.23-2.57,1.68-1.05.44-2.3.66-3.77.66-2.26,0-4.04-.45-5.34-1.34-1.3-.9-1.96-2.12-1.96-3.68,0-.61.11-1.16.33-1.68.22-.51.51-.97.86-1.36.35-.4.74-.71,1.19-.94.44-.23.9-.41,1.36-.52v-.07c-.72-.21-1.27-.56-1.64-1.05-.37-.49-.56-1.07-.56-1.75,0-.4.08-.76.23-1.08.15-.33.34-.62.58-.87.23-.26.5-.46.8-.63.3-.16.59-.27.87-.31v-.07c-1.07-.47-1.91-1.12-2.51-1.97-.61-.85-.91-1.92-.91-3.2Zm12.39,14.94c0-1.4-.41-2.37-1.22-2.93-.81-.56-2.16-.84-4.05-.84-1.75,0-3.1.28-4.05.86-.95.57-1.43,1.6-1.43,3.09,0,.79.13,1.47.4,2.02.27.56.63,1.01,1.08,1.36.45.35.99.61,1.62.77.63.16,1.3.24,2.03.24s1.38-.09,2.06-.28c.67-.19,1.27-.47,1.8-.84.52-.37.95-.84,1.27-1.41.33-.57.49-1.25.49-2.04Zm-1.89-15.12c0-1.47-.35-2.58-1.05-3.35-.7-.77-1.62-1.15-2.76-1.15-1.26,0-2.23.42-2.93,1.27s-1.05,1.98-1.05,3.4.32,2.62.96,3.47c.64.85,1.63,1.27,2.98,1.27.67,0,1.25-.13,1.73-.4.48-.27.87-.63,1.19-1.08.31-.45.55-.98.7-1.57.15-.59.23-1.22.23-1.87Z"/>
        <path class="cls-3" d="m100.93,228.41c1.05-.79,2.01-1.33,2.9-1.61.88-.28,1.79-.42,2.72-.42.84,0,1.61.12,2.3.37.7.25,1.29.59,1.78,1.05s.87,1,1.15,1.64c.28.64.42,1.34.42,2.11,0,1.33-.02,2.65-.07,3.96-.05,1.32-.07,2.71-.07,4.17,0,.28,0,.58.02.89s.06.59.16.84c.09.24.23.45.4.61.17.16.44.25.79.25.12,0,.24,0,.37-.02.13-.01.25-.05.37-.12v.77c-.26.12-.58.21-.96.28-.38.07-.81.11-1.27.11-.75,0-1.31-.19-1.71-.58-.4-.38-.63-.88-.7-1.48-.84.84-1.66,1.46-2.48,1.85-.81.4-1.82.59-3,.59-.58,0-1.15-.08-1.71-.24-.56-.16-1.05-.43-1.48-.8-.43-.37-.78-.82-1.05-1.34s-.4-1.12-.4-1.8c0-1.4.44-2.48,1.31-3.25.87-.77,2.08-1.28,3.61-1.54,1.26-.21,2.24-.39,2.95-.54.71-.15,1.23-.31,1.57-.47s.54-.35.61-.58c.07-.22.1-.51.1-.86,0-.58-.07-1.14-.21-1.68-.14-.54-.36-1-.66-1.4-.3-.4-.7-.72-1.19-.96s-1.08-.37-1.78-.37c-.93,0-1.8.21-2.6.63-.8.42-1.4,1-1.8,1.75h-.38v-1.82Zm8.62,6.21c-.4.14-.86.26-1.38.35-.52.09-1.05.19-1.59.3-.54.1-1.06.24-1.59.4-.52.16-.99.38-1.4.66s-.73.63-.98,1.05c-.24.42-.37.95-.37,1.61,0,1.09.31,1.92.94,2.48s1.33.84,2.09.84c.88,0,1.69-.24,2.43-.73.73-.49,1.3-1.06,1.69-1.71l.14-5.24Z"/>
        <path class="cls-3" d="m118.06,229.96c-.04-1.15-.11-2.23-.23-3.23.65.12,1.18.17,1.57.17.19,0,.39-.02.61-.05.22-.04.48-.08.79-.12-.07.93-.1,1.86-.1,2.79h.07c1.23-2.09,2.97-3.14,5.2-3.14.58,0,1.15.09,1.71.26s1.06.41,1.52.72c.45.3.84.67,1.17,1.1.33.43.55.89.66,1.38h.07c.56-1.12,1.32-1.97,2.29-2.57.97-.59,2.08-.89,3.33-.89.77,0,1.48.1,2.13.31.65.21,1.22.54,1.69.98s.85,1.01,1.12,1.71.4,1.54.4,2.51c0,.4-.01.83-.04,1.29-.02.47-.05,1.01-.07,1.62-.02.62-.05,1.32-.07,2.09-.02.78-.03,1.68-.03,2.71,0,.63,0,1.23.02,1.82s.04,1.21.09,1.88c-.26-.05-.51-.07-.77-.07h-1.5c-.26,0-.51.02-.77.07.07-.58.15-1.76.23-3.53.08-1.77.12-4.24.12-7.4,0-.58-.06-1.13-.19-1.64s-.33-.95-.61-1.33c-.28-.37-.65-.67-1.12-.89-.47-.22-1.05-.33-1.75-.33-.84,0-1.55.16-2.13.49-.58.33-1.04.71-1.36,1.15-.19.26-.33.51-.44.77-.1.26-.19.65-.24,1.17-.06.52-.1,1.26-.12,2.2-.02.94-.03,2.24-.03,3.89,0,1,.02,1.92.05,2.74.03.83.08,1.73.12,2.71-.54-.05-1.05-.07-1.54-.07s-1,.02-1.54.07c.12-1.28.2-2.58.24-3.91.05-1.33.07-2.63.07-3.91,0-1.09,0-1.95-.02-2.57-.01-.62-.04-1.1-.09-1.47-.05-.36-.11-.66-.19-.89-.08-.23-.19-.49-.33-.77-.26-.44-.66-.82-1.2-1.13-.55-.31-1.11-.47-1.69-.47-1.54,0-2.67.5-3.39,1.5-.72,1-1.08,2.41-1.08,4.22v2.97c0,1.05.02,2.15.05,3.3.03,1.15.11,2.19.23,3.12-.54-.05-1.06-.07-1.57-.07s-1.04.02-1.57.07c.12-.93.19-1.97.23-3.12.03-1.15.05-2.25.05-3.3v-3.63c0-1.05-.02-2.15-.05-3.3Z"/>
        <path class="cls-3" d="m147.47,228.41c1.05-.79,2.01-1.33,2.9-1.61.88-.28,1.79-.42,2.72-.42.84,0,1.61.12,2.3.37.7.25,1.29.59,1.78,1.05s.87,1,1.15,1.64c.28.64.42,1.34.42,2.11,0,1.33-.02,2.65-.07,3.96-.05,1.32-.07,2.71-.07,4.17,0,.28,0,.58.02.89s.06.59.16.84c.09.24.23.45.4.61.17.16.44.25.79.25.12,0,.24,0,.37-.02.13-.01.25-.05.37-.12v.77c-.26.12-.58.21-.96.28-.38.07-.81.11-1.27.11-.75,0-1.31-.19-1.71-.58-.4-.38-.63-.88-.7-1.48-.84.84-1.66,1.46-2.48,1.85-.81.4-1.82.59-3,.59-.58,0-1.15-.08-1.71-.24-.56-.16-1.05-.43-1.48-.8-.43-.37-.78-.82-1.05-1.34s-.4-1.12-.4-1.8c0-1.4.44-2.48,1.31-3.25.87-.77,2.08-1.28,3.61-1.54,1.26-.21,2.24-.39,2.95-.54.71-.15,1.23-.31,1.57-.47s.54-.35.61-.58c.07-.22.1-.51.1-.86,0-.58-.07-1.14-.21-1.68-.14-.54-.36-1-.66-1.4-.3-.4-.7-.72-1.19-.96s-1.08-.37-1.78-.37c-.93,0-1.8.21-2.6.63-.8.42-1.4,1-1.8,1.75h-.38v-1.82Zm8.62,6.21c-.4.14-.86.26-1.38.35-.52.09-1.05.19-1.59.3-.54.1-1.06.24-1.59.4-.52.16-.99.38-1.4.66s-.73.63-.98,1.05c-.24.42-.37.95-.37,1.61,0,1.09.31,1.92.94,2.48s1.33.84,2.09.84c.88,0,1.69-.24,2.43-.73.73-.49,1.3-1.06,1.69-1.71l.14-5.24Z"/>
      </g>
      <rect class="cls-3" x="47.78" y="213.49" width="15.76" height="1.14"/>
      <g>
        <path class="cls-3" d="m1.77,259.58c.62-.47,1.19-.78,1.71-.95.52-.17,1.06-.25,1.61-.25.49,0,.95.07,1.36.22.41.14.76.35,1.05.62.29.27.52.59.68.97.16.38.25.79.25,1.25,0,.78-.01,1.56-.04,2.34-.03.78-.04,1.6-.04,2.46,0,.17,0,.34.01.53,0,.19.04.35.09.49.06.14.13.26.24.36.1.1.26.14.46.14.07,0,.14,0,.22,0,.08,0,.15-.03.22-.07v.45c-.15.07-.34.12-.57.17s-.48.06-.75.06c-.44,0-.78-.11-1.01-.34-.23-.23-.37-.52-.41-.88-.49.5-.98.86-1.46,1.09-.48.23-1.07.35-1.77.35-.34,0-.68-.05-1.01-.14-.33-.1-.62-.25-.88-.47-.25-.22-.46-.48-.62-.79-.16-.31-.24-.66-.24-1.06,0-.82.26-1.46.77-1.92.52-.45,1.23-.76,2.13-.91.74-.12,1.32-.23,1.74-.32.42-.09.73-.18.93-.28.2-.1.32-.21.36-.34s.06-.3.06-.5c0-.34-.04-.67-.12-.99-.08-.32-.21-.59-.39-.82s-.41-.42-.7-.57c-.29-.14-.64-.22-1.05-.22-.55,0-1.06.12-1.54.37-.47.25-.83.59-1.06,1.03h-.23v-1.07Zm5.09,3.67c-.23.08-.5.15-.81.21-.31.05-.62.11-.94.17-.32.06-.63.14-.94.24s-.58.23-.82.39-.43.37-.58.62c-.14.25-.22.56-.22.95,0,.65.19,1.13.56,1.46s.78.49,1.24.49c.52,0,1-.14,1.43-.43.43-.29.77-.62,1-1.01l.08-3.09Z"/>
        <path class="cls-3" d="m15.13,255.83c-.04.52-.07,1.03-.09,1.54-.02.5-.04,1.01-.07,1.51.15,0,.43,0,.84-.01.41,0,.86-.02,1.34-.05-.01.04-.02.12-.02.23v.43c0,.1,0,.17.02.21-.18-.01-.36-.02-.56-.03-.19,0-.4,0-.62,0h-1.01c-.01.05-.03.27-.05.66s-.04.84-.05,1.37c-.01.53-.02,1.08-.03,1.66s-.01,1.09-.01,1.55c0,.38.01.76.03,1.13.02.37.09.7.2,1,.11.3.27.53.49.71.22.18.54.27.95.27.11,0,.26-.01.44-.04.19-.03.35-.06.48-.1v.49c-.23.04-.49.09-.77.16-.28.06-.55.09-.81.09-.87,0-1.5-.21-1.92-.64s-.62-1.05-.62-1.88c0-.37,0-.77.02-1.21.01-.43.03-.91.05-1.42.02-.51.04-1.08.05-1.71s.02-1.32.02-2.09h-.66c-.11,0-.23,0-.35,0-.12,0-.25.02-.39.03.01-.08.02-.16.03-.24,0-.08.01-.15.01-.24,0-.07,0-.14-.01-.21,0-.07-.02-.14-.03-.21.62.04,1.07.06,1.36.06-.01-.27-.02-.62-.03-1.03,0-.41-.02-.84-.05-1.28l1.71-.72h.1Z"/>
        <path class="cls-3" d="m19.52,263.8c0-1.69.4-3.02,1.21-3.98s1.98-1.44,3.51-1.44c.73,0,1.36.11,1.89.34s.97.53,1.33.91c.36.38.62.82.79,1.33.17.51.26,1.05.26,1.63,0,.14,0,.27-.01.4,0,.13-.02.26-.03.4-.74-.01-1.48-.03-2.21-.04-.73-.01-1.46-.02-2.21-.02-.45,0-.9,0-1.35.02-.45.01-.9.03-1.35.04-.01.07-.02.17-.02.31v.27c0,.54.08,1.04.24,1.5.16.47.39.87.69,1.21.3.34.67.61,1.11.8.44.2.95.3,1.52.3.27,0,.56-.04.84-.11.29-.08.57-.18.85-.31.27-.13.53-.29.77-.46.24-.18.45-.37.63-.58l.1.06-.12,1.01c-.41.33-.92.61-1.54.84s-1.25.35-1.91.35c-.74,0-1.42-.11-2.03-.34s-1.14-.56-1.59-.99c-.45-.43-.79-.94-1.03-1.54-.24-.59-.36-1.23-.36-1.92Zm4.76-4.76c-.51,0-.94.12-1.29.35-.35.23-.64.53-.87.88-.23.35-.4.74-.52,1.15-.12.42-.19.81-.22,1.19.43.01.87.03,1.33.04s.91.02,1.35.02.91,0,1.38-.02c.47-.01.92-.03,1.36-.04,0-.37-.03-.76-.09-1.17-.06-.41-.19-.8-.37-1.15-.19-.36-.44-.65-.77-.89-.33-.23-.76-.35-1.3-.35Z"/>
        <path class="cls-3" d="m32.57,257.25c0-.55-.02-1.09-.03-1.63-.01-.54-.03-1.05-.05-1.54-.02-.49-.04-.9-.07-1.25.38.07.69.1.93.1s.54-.03.93-.1c-.03.34-.05.76-.07,1.25-.02.49-.04,1-.05,1.54-.01.54-.02,1.08-.03,1.63s-.01,1.06-.01,1.52v3.73c0,.47,0,.98.01,1.53s.02,1.09.03,1.63c.01.54.03,1.04.05,1.52.02.48.04.88.07,1.2-.32-.03-.63-.04-.93-.04s-.61.01-.93.04c.03-.32.05-.71.07-1.2.02-.48.04-.99.05-1.52.01-.54.02-1.08.03-1.63,0-.55.01-1.06.01-1.53v-3.73c0-.47,0-.97-.01-1.52Z"/>
        <path class="cls-3" d="m39.4,255c0-.29.1-.54.31-.74s.45-.31.74-.31.54.1.74.31.31.45.31.74-.1.54-.31.74-.45.31-.74.31-.54-.1-.74-.31-.31-.45-.31-.74Zm.29,7.44c0-.62-.01-1.27-.03-1.95-.02-.68-.07-1.32-.13-1.91.38.07.69.1.93.1s.54-.03.93-.1c-.07.59-.11,1.23-.13,1.91-.02.68-.03,1.33-.03,1.95v2.14c0,.62.01,1.27.03,1.95.02.68.06,1.29.13,1.84-.32-.03-.63-.04-.93-.04s-.61.01-.93.04c.07-.55.11-1.16.13-1.84.02-.68.03-1.33.03-1.95v-2.14Z"/>
        <path class="cls-3" d="m45.42,263.8c0-1.69.4-3.02,1.21-3.98s1.98-1.44,3.51-1.44c.73,0,1.36.11,1.89.34s.97.53,1.33.91c.36.38.62.82.79,1.33.17.51.26,1.05.26,1.63,0,.14,0,.27-.01.4,0,.13-.02.26-.03.4-.74-.01-1.48-.03-2.21-.04-.73-.01-1.46-.02-2.21-.02-.45,0-.9,0-1.35.02-.45.01-.9.03-1.35.04-.01.07-.02.17-.02.31v.27c0,.54.08,1.04.24,1.5.16.47.39.87.69,1.21.3.34.67.61,1.11.8.44.2.95.3,1.52.3.27,0,.56-.04.84-.11.29-.08.57-.18.85-.31.27-.13.53-.29.77-.46.24-.18.45-.37.63-.58l.1.06-.12,1.01c-.41.33-.92.61-1.54.84s-1.25.35-1.91.35c-.74,0-1.42-.11-2.03-.34s-1.14-.56-1.59-.99c-.45-.43-.79-.94-1.03-1.54-.24-.59-.36-1.23-.36-1.92Zm4.76-4.76c-.51,0-.94.12-1.29.35-.35.23-.64.53-.87.88-.23.35-.4.74-.52,1.15-.12.42-.19.81-.22,1.19.43.01.87.03,1.33.04s.91.02,1.35.02.91,0,1.38-.02c.47-.01.92-.03,1.36-.04,0-.37-.03-.76-.09-1.17-.06-.41-.19-.8-.37-1.15-.19-.36-.44-.65-.77-.89-.33-.23-.76-.35-1.3-.35Z"/>
        <path class="cls-3" d="m62.27,260.05c-.2-.07-.4-.1-.61-.1-.33,0-.63.08-.89.23-.26.15-.48.35-.66.61s-.32.56-.41.91c-.1.35-.14.72-.14,1.12v2.27c0,.92,0,1.62.01,2.11,0,.49.03.88.07,1.18-.28-.03-.55-.04-.82-.04-.3,0-.59.01-.87.04.04-.47.06-1.1.07-1.91s.01-1.79.01-2.96v-.66c0-.54,0-1.15-.01-1.85,0-.7-.03-1.5-.07-2.41.15.03.29.05.43.07.14.02.28.03.43.03.12,0,.25-.01.39-.03s.28-.04.43-.07c-.06.49-.09.89-.09,1.17,0,.29-.01.56-.01.83l.04.02c.81-1.48,1.72-2.23,2.72-2.23.12,0,.23,0,.32.02s.2.05.34.1c-.07.17-.11.42-.12.75-.01.34-.02.64-.02.92l-.14.1c-.07-.08-.2-.16-.4-.23Z"/>
      </g>
    </g>
  </g>
</svg>