<svg xmlns="http://www.w3.org/2000/svg" width="355.202" height="73.04" viewBox="0 0 355.202 73.04">
  <g id="logo-dark" transform="translate(-1031.399 -87.917)">
    <path id="パス_112" data-name="パス 112" d="M37.02,313.06V305.9H34.17v7.16H2.14v57.71H34.17v5.32H2.14v2.85H69.05v-2.85H37.02v-5.32H69.05V313.06H37.02ZM58.03,341.6v5.41H40.48V341.6Zm0-2.85H31.2v-5.87H58.03ZM19.6,315.9v5.58H4.99V315.9h14.6ZM5,324.33H22.45V315.9h5.9v25.69h9.28V347H28.01v2.85h9.62v9.55H28.89v-4.39H26.04v4.39h-.02v2.85H52.16v-7.24H49.31v4.39H40.48v-9.55H58.03v18.06H13.85V353.89h8.92V329.91H11v38H4.99V324.32Zm8.86,8.43h6.08v5.65H13.86v-5.65Zm0,8.49h6.08v9.79H13.86v-9.79Zm47.03,26.66V330.02H31.21V315.89H49.33v8.43H66.22v43.59H60.9Zm5.32-46.43H52.17V315.9H66.21Z" transform="translate(1029.259 -217.983)" fill="#ea563d"/>
    <path id="パス_113" data-name="パス 113" d="M3.834,263.868a6.988,6.988,0,0,0,2.179-3.113A18.052,18.052,0,0,0,6.964,256c.131-1.835.2-3.867.2-6.128V234.143c0-2.523-.049-4.981-.147-7.407s-.2-4.9-.311-7.407q.737.123,1.426.2a9.7,9.7,0,0,0,1.376.082,12.923,12.923,0,0,0,1.376-.082c.459-.049.934-.131,1.426-.2-.115,2.523-.213,4.981-.311,7.407s-.147,4.883-.147,7.407c0,1.721,0,3.49.033,5.326s.033,3.638.066,5.407q.025,2.655.049,5.112c.016,1.639.033,3.146.033,4.523a12.861,12.861,0,0,1-.836,4.719,11.725,11.725,0,0,1-2.376,3.8,11.4,11.4,0,0,1-3.687,2.605,11.547,11.547,0,0,1-4.67.95L0,264.982a6.1,6.1,0,0,0,3.834-1.114Z" transform="translate(1123.259 -116.874)" fill="#fff"/>
    <path id="パス_114" data-name="パス 114" d="M14.1,226.737c-.1-2.425-.2-4.9-.311-7.407q.737.123,1.426.2a9.7,9.7,0,0,0,1.376.082,12.931,12.931,0,0,0,1.376-.082c.459-.049.934-.131,1.426-.2-.115,2.523-.213,4.981-.311,7.407s-.147,4.883-.147,7.407v9.832c0,2.523.049,5,.147,7.439s.2,4.85.311,7.21c-.885-.082-1.819-.115-2.8-.115s-1.934.033-2.8.115c.115-2.36.213-4.768.311-7.21s.147-4.916.147-7.439v-9.832c0-2.523-.049-4.981-.147-7.407Z" transform="translate(1132.065 -116.874)" fill="#fff"/>
    <path id="パス_115" data-name="パス 115" d="M23.5,258.624c.115-2.36.213-4.768.311-7.21s.147-4.916.147-7.439v-9.832c0-2.523-.049-4.981-.147-7.407s-.2-4.9-.311-7.407q.737.123,1.426.2a9.7,9.7,0,0,0,1.376.082,12.931,12.931,0,0,0,1.376-.082c.459-.049.934-.131,1.426-.2-.115,2.523-.213,4.981-.311,7.407s-.147,4.883-.147,7.407v3.146c0,.311.115.459.344.459a1.668,1.668,0,0,0,.8-.508c1.327-1.147,2.736-2.442,4.211-3.884s2.95-2.949,4.441-4.523c1.491-1.557,2.95-3.163,4.408-4.785q2.163-2.433,4.178-4.719c.426.082.819.147,1.2.2a6.754,6.754,0,0,0,1.147.082,12.931,12.931,0,0,0,1.376-.082c.459-.049.918-.131,1.376-.2-1.327,1.147-2.835,2.491-4.523,4.064-1.671,1.557-3.359,3.163-5.063,4.8s-3.31,3.244-4.867,4.834-2.835,2.966-3.867,4.146q4.645,5.211,9.357,10.618t9.586,10.848a12.138,12.138,0,0,0-1.721-.115H47.735a10.463,10.463,0,0,0-1.573.115c-1.376-1.557-2.884-3.359-4.555-5.375-1.655-2.015-3.277-3.982-4.867-5.866s-3.015-3.589-4.293-5.1-2.229-2.556-2.835-3.179c-.311-.311-.541-.459-.688-.459-.2,0-.279.115-.279.344v4.981c0,2.523.049,5,.147,7.439s.2,4.85.311,7.21c-.885-.082-1.819-.115-2.8-.115s-1.934.033-2.8.115Z" transform="translate(1138.266 -116.874)" fill="#fff"/>
    <path id="パス_116" data-name="パス 116" d="M75,237.928q0-8.111-.066-12.535a58.651,58.651,0,0,0-.279-6.063c.426.082.819.147,1.2.2a6.757,6.757,0,0,0,1.147.082,6.658,6.658,0,0,0,1.721-.279c-.115,1.327-.229,2.933-.344,4.785s-.213,3.834-.279,5.948c-.082,2.114-.147,4.293-.229,6.522s-.131,4.392-.164,6.489a20.279,20.279,0,0,1-1.18,6.866,14.294,14.294,0,0,1-3.179,5.145,13.467,13.467,0,0,1-5.063,3.212,20.257,20.257,0,0,1-6.9,1.081q-8.578,0-12.47-3.883t-3.884-12.306c0-1.786.049-3.376.147-4.785.1-1.393.147-2.818.147-4.26,0-3.212-.033-6.046-.115-8.521s-.147-4.572-.229-6.292c.459.082.95.147,1.491.2a12.185,12.185,0,0,0,1.491.082,9.871,9.871,0,0,0,1.229-.082c.393-.049.8-.131,1.229-.2-.082.836-.147,1.934-.229,3.294s-.147,2.884-.229,4.6-.131,3.572-.164,5.555-.049,4.047-.049,6.178q0,1.942.049,4.031a27.324,27.324,0,0,0,.393,4.064,17.237,17.237,0,0,0,1.114,3.769,9.33,9.33,0,0,0,2.2,3.146,9.858,9.858,0,0,0,3.6,2.114,16.364,16.364,0,0,0,5.375.77,13.447,13.447,0,0,0,5.293-.918,10.034,10.034,0,0,0,3.523-2.409,10.722,10.722,0,0,0,2.147-3.425,19.85,19.85,0,0,0,1.114-4.064,30.728,30.728,0,0,0,.393-4.228c.033-1.409.066-2.7.066-3.884Z" transform="translate(1151.984 -116.874)" fill="#fff"/>
    <path id="パス_117" data-name="パス 117" d="M84.56,234.1v3.556H70.32V234.1Z" transform="translate(1168.167 -107.441)" fill="#fff"/>
    <path id="パス_118" data-name="パス 118" d="M82.6,235.7a9.268,9.268,0,0,1,.852-4.146,7.844,7.844,0,0,1,2.376-2.884,10.86,10.86,0,0,1,3.49-1.721,15.205,15.205,0,0,1,4.211-.574c.721,0,1.426.016,2.081.066.672.033,1.524.1,2.54.164.885.082,1.655.131,2.343.164s1.245.049,1.655.049a27.737,27.737,0,0,0,4.637-.279c-.033.2-.066.393-.082.606s-.033.41-.033.606a3.864,3.864,0,0,0,.033.606c.016.213.049.41.082.606-1.114-.082-2.179-.164-3.228-.262s-2.081-.164-3.113-.2l-.115.115a7.355,7.355,0,0,1,2.868,3,8.852,8.852,0,0,1,1.081,4.211,8.32,8.32,0,0,1-2.884,6.718,11.645,11.645,0,0,1-7.751,2.425c-.541,0-1.065-.016-1.573-.065q-.762-.049-1.573-.049a2.937,2.937,0,0,0-1.917.737,2.359,2.359,0,0,0-.885,1.884,2.908,2.908,0,0,0,.721,2.179,4.008,4.008,0,0,0,2.655.737c1.065.033,2.114.066,3.146.082s2.081.049,3.146.082a16.66,16.66,0,0,1,4.49.623,8.775,8.775,0,0,1,3.031,1.54,5.984,5.984,0,0,1,1.721,2.229,6.877,6.877,0,0,1,.541,2.753,11.724,11.724,0,0,1-.77,4.064,10.383,10.383,0,0,1-2.409,3.72,13.042,13.042,0,0,1-4.211,2.753,15.9,15.9,0,0,1-6.178,1.082q-5.555,0-8.75-2.2a7.27,7.27,0,0,1-2.671-8.783,8.179,8.179,0,0,1,1.409-2.229,6.487,6.487,0,0,1,1.95-1.54,9.748,9.748,0,0,1,2.229-.852v-.115a5,5,0,0,1-2.687-1.721,4.617,4.617,0,0,1-.918-2.868,4.123,4.123,0,0,1,.377-1.77,5.043,5.043,0,0,1,.95-1.426,4.684,4.684,0,0,1,1.311-1.032,4.4,4.4,0,0,1,1.426-.508v-.115a9.611,9.611,0,0,1-4.113-3.228A8.722,8.722,0,0,1,82.6,235.72Zm20.3,24.481c0-2.294-.672-3.884-2-4.8s-3.539-1.376-6.636-1.376a12.813,12.813,0,0,0-6.636,1.409c-1.557.934-2.343,2.622-2.343,5.063a7.5,7.5,0,0,0,.655,3.31,6.147,6.147,0,0,0,1.77,2.229,7.391,7.391,0,0,0,2.655,1.262,13.418,13.418,0,0,0,3.326.393,12.162,12.162,0,0,0,3.376-.459,9.759,9.759,0,0,0,2.95-1.376,7.05,7.05,0,0,0,2.081-2.31,6.558,6.558,0,0,0,.8-3.343Zm-3.1-24.776a7.874,7.874,0,0,0-1.721-5.489,6.476,6.476,0,0,0-9.324.2,8.481,8.481,0,0,0-1.721,5.571,9.391,9.391,0,0,0,1.573,5.686,6.66,6.66,0,0,0,7.718,1.426,5.932,5.932,0,0,0,1.95-1.77,8,8,0,0,0,1.147-2.573,12.457,12.457,0,0,0,.377-3.064Z" transform="translate(1175.383 -112.371)" fill="#fff"/>
    <path id="パス_119" data-name="パス 119" d="M101.9,229.706a16.31,16.31,0,0,1,4.752-2.638,14.637,14.637,0,0,1,4.457-.688,11.022,11.022,0,0,1,3.769.606,7.881,7.881,0,0,1,4.8,4.408,8.514,8.514,0,0,1,.688,3.458c0,2.179-.033,4.342-.115,6.489-.082,2.163-.115,4.441-.115,6.833,0,.459,0,.95.033,1.458a4.034,4.034,0,0,0,.262,1.376,2.656,2.656,0,0,0,.655,1,1.854,1.854,0,0,0,1.295.393,3.86,3.86,0,0,0,.606-.033,1.392,1.392,0,0,0,.606-.2v1.262a6.681,6.681,0,0,1-1.573.459,11.654,11.654,0,0,1-2.081.164,3.614,3.614,0,0,1-3.949-3.376,15.03,15.03,0,0,1-4.064,3.031,11.1,11.1,0,0,1-4.916.967,10.152,10.152,0,0,1-2.8-.393,6.346,6.346,0,0,1-2.425-1.311,7.312,7.312,0,0,1-1.721-2.2,6.308,6.308,0,0,1-.655-2.95,6.736,6.736,0,0,1,2.147-5.326,11.712,11.712,0,0,1,5.915-2.523c2.065-.344,3.67-.639,4.834-.885a12.385,12.385,0,0,0,2.573-.77,1.681,1.681,0,0,0,1-.95,4.891,4.891,0,0,0,.164-1.409,10.925,10.925,0,0,0-.344-2.753,6.459,6.459,0,0,0-1.081-2.294,5.309,5.309,0,0,0-1.95-1.573,6.559,6.559,0,0,0-2.917-.606,9.043,9.043,0,0,0-4.26,1.032,6.835,6.835,0,0,0-2.95,2.868h-.623v-2.982Zm14.125,10.176a14.187,14.187,0,0,1-2.261.574q-1.278.221-2.605.492a24.247,24.247,0,0,0-2.605.655,8.459,8.459,0,0,0-2.294,1.082,5.368,5.368,0,0,0-1.606,1.721,5.237,5.237,0,0,0-.606,2.638,5.157,5.157,0,0,0,1.54,4.064,5.049,5.049,0,0,0,3.425,1.376,7.057,7.057,0,0,0,3.982-1.2,9.007,9.007,0,0,0,2.769-2.8l.229-8.586Z" transform="translate(1186.744 -112.371)" fill="#fff"/>
    <path id="パス_120" data-name="パス 120" d="M118.207,232.246c-.066-1.884-.18-3.654-.377-5.293a14.7,14.7,0,0,0,2.573.279,7.455,7.455,0,0,0,1-.082c.361-.066.787-.131,1.295-.2-.115,1.524-.164,3.048-.164,4.572h.115c2.015-3.425,4.867-5.145,8.521-5.145a9.6,9.6,0,0,1,2.8.426,9.174,9.174,0,0,1,2.491,1.18,8.017,8.017,0,0,1,1.917,1.8,5.763,5.763,0,0,1,1.081,2.261h.115a10.12,10.12,0,0,1,3.752-4.211,10.294,10.294,0,0,1,5.457-1.458,11.3,11.3,0,0,1,3.49.508,7.1,7.1,0,0,1,4.6,4.408,11.461,11.461,0,0,1,.655,4.113c0,.655-.016,1.36-.066,2.114-.033.77-.082,1.655-.115,2.655-.033,1.016-.082,2.163-.115,3.425-.033,1.278-.049,2.753-.049,4.441,0,1.032,0,2.015.033,2.982q.025,1.426.147,3.1a6.572,6.572,0,0,0-1.262-.115H153.65a6.572,6.572,0,0,0-1.262.115c.115-.95.246-2.884.377-5.784s.2-6.948.2-12.126a10.887,10.887,0,0,0-.311-2.687,6.191,6.191,0,0,0-1-2.179,4.813,4.813,0,0,0-1.835-1.458,6.733,6.733,0,0,0-2.868-.541,6.9,6.9,0,0,0-5.719,2.687,6.2,6.2,0,0,0-.721,1.262,7.547,7.547,0,0,0-.393,1.917c-.1.852-.164,2.065-.2,3.6s-.049,3.671-.049,6.374c0,1.639.033,3.13.082,4.49s.131,2.835.2,4.441c-.885-.082-1.721-.115-2.523-.115s-1.639.033-2.523.115c.2-2.1.328-4.228.393-6.407.082-2.179.115-4.31.115-6.407,0-1.786,0-3.2-.033-4.211a21.139,21.139,0,0,0-.147-2.409,7.948,7.948,0,0,0-.311-1.458,10.785,10.785,0,0,0-.541-1.262,5.252,5.252,0,0,0-1.966-1.852,5.571,5.571,0,0,0-2.769-.77q-3.785,0-5.555,2.458a11.693,11.693,0,0,0-1.77,6.915v4.867c0,1.721.033,3.523.082,5.407a50.363,50.363,0,0,0,.377,5.112c-.885-.082-1.737-.115-2.573-.115s-1.7.033-2.573.115c.2-1.524.311-3.228.377-5.112.049-1.884.082-3.687.082-5.407v-5.948c0-1.721-.033-3.523-.082-5.407Z" transform="translate(1198.507 -112.371)" fill="#fff"/>
    <path id="パス_121" data-name="パス 121" d="M148.441,229.706a16.31,16.31,0,0,1,4.752-2.638,14.637,14.637,0,0,1,4.457-.688,11.023,11.023,0,0,1,3.769.606,7.881,7.881,0,0,1,4.8,4.408,8.514,8.514,0,0,1,.688,3.458c0,2.179-.033,4.342-.115,6.489-.082,2.163-.115,4.441-.115,6.833,0,.459,0,.95.033,1.458a4.034,4.034,0,0,0,.262,1.376,2.657,2.657,0,0,0,.655,1,1.854,1.854,0,0,0,1.294.393,3.859,3.859,0,0,0,.606-.033,1.392,1.392,0,0,0,.606-.2v1.262a6.68,6.68,0,0,1-1.573.459,11.654,11.654,0,0,1-2.081.164,3.614,3.614,0,0,1-3.949-3.376,15.03,15.03,0,0,1-4.064,3.031,11.1,11.1,0,0,1-4.916.967,10.152,10.152,0,0,1-2.8-.393,6.346,6.346,0,0,1-2.425-1.311,7.313,7.313,0,0,1-1.721-2.2,6.308,6.308,0,0,1-.655-2.95A6.736,6.736,0,0,1,148.1,242.5a11.713,11.713,0,0,1,5.915-2.523c2.065-.344,3.671-.639,4.834-.885a12.386,12.386,0,0,0,2.573-.77,1.681,1.681,0,0,0,1-.95,4.89,4.89,0,0,0,.164-1.409,10.925,10.925,0,0,0-.344-2.753,6.459,6.459,0,0,0-1.081-2.294,5.309,5.309,0,0,0-1.95-1.573,6.56,6.56,0,0,0-2.917-.606,9.043,9.043,0,0,0-4.26,1.032,6.835,6.835,0,0,0-2.95,2.868h-.623v-2.982Zm14.125,10.176a14.186,14.186,0,0,1-2.261.574q-1.278.221-2.605.492a24.249,24.249,0,0,0-2.605.655,8.459,8.459,0,0,0-2.294,1.082,5.368,5.368,0,0,0-1.606,1.721,5.236,5.236,0,0,0-.606,2.638,5.157,5.157,0,0,0,1.54,4.064,5.049,5.049,0,0,0,3.425,1.376,7.057,7.057,0,0,0,3.982-1.2,9.007,9.007,0,0,0,2.769-2.8l.229-8.586Z" transform="translate(1216.465 -112.371)" fill="#fff"/>
    <rect id="長方形_2" data-name="長方形 2" width="25.825" height="1.868" transform="translate(1201.552 92.887)" fill="#fff"/>
  </g>
</svg>
