<svg id="レイヤー_1" data-name="レイヤー 1" xmlns="http://www.w3.org/2000/svg" viewBox="0 0 764 764"><defs><style>.cls-1{fill:none;}.cls-2{fill:#fff;}</style></defs><rect class="cls-1" width="764" height="764"/><path class="cls-2" d="M325.24,280.72c-24.65,11.2-38.27,45.83-37.15,79S302.61,438,334.84,461.85c-22.87-35.49-25.94-64.4-27.89-82,24.8,27,52,48.07,93.62,50.94-46.53-17-70.29-49.94-83-71.54C304.51,337,296.76,297.93,325.24,280.72Z"/><path class="cls-2" d="M313.44,394c1.93,14.88,8.13,32.73,14.7,46,30,27.75,53.86,41.79,92.29,43.32-53.95-18.84-75.71-51.16-87.49-72.14C323.93,404.64,320.46,401.2,313.44,394Z"/><path class="cls-2" d="M372.84,297.93c35.82,33.66,66.84,76.86,61.44,116.92-6.36,47.22-48.49,37.13-72.35,15.71,20.92,10.08,51.24,15.28,56.72-17.65C422.29,391,413.44,350.16,372.84,297.93Z"/><path class="cls-2" d="M373.72,291.92C443,312.48,475.4,379.43,476,421.81c.62,45.61-49.31,74.83-114.88,14.48,42.81,32.14,85.18,26.8,91-13.72C456.32,392.55,437.25,331.82,373.72,291.92Z"/></svg>