<svg xmlns="http://www.w3.org/2000/svg" width="475.888" height="1020.828" viewBox="0 0 475.888 1020.828"><g transform="translate(-178 -69)"><path d="M1201.571,2357.448c1.69-.132,2.814-.31,3.931-.291,6.567.1,13.131.291,19.695.372,8.658.106,17.316.128,25.971.216,6.88.072,13.763.225,20.643.275,7.193.053,14.383.016,21.576.031,3.791.009,4.235.3,4.939,4.075a41.046,41.046,0,0,1,.726,6.83c.241,14.7.348,29.408.617,44.11.063,3.427.592,6.843.9,10.264.141,1.556.344,3.108.376,4.667q.254,12.977.4,25.958a7.549,7.549,0,0,1-.71,2.216c-.645-.232-1.283-.482-1.935-.695a7.507,7.507,0,0,0-2.279-.642c-4.473.1-8.943.388-13.413.435-5.944.063-11.891-.094-17.835-.05-2.595.022-5.187.369-7.785.466a28.8,28.8,0,0,1-6.551-.047c-6.927-1.374-13.913-.867-20.881-1.067-6.852-.2-13.65.739-20.49.842-2.964.044-4.557-1.211-4.786-4.454-.294-4.157-.473-8.326-.664-12.489-.363-7.913-.761-15.826-1.03-23.745-.269-8.026-.382-16.058-.595-24.083-.257-9.7-.551-19.391-.817-29.085-.035-1.233,0-2.467,0-4.113Zm92.251,54.924a9.676,9.676,0,0,0,1.528-5.863c-.038-6.771.056-13.55-.25-20.311-.279-6.132-.939-12.251-1.578-18.361-.51-4.892-1.722-5.834-6.636-5.828-10.12.012-20.24.078-30.359-.025-8.022-.081-16.045-.413-24.068-.576-2.977-.059-3.158.244-3.061,3.218q.845,25.955,1.659,51.91c.156,4.8.325,9.591.545,14.386.081,1.768.391,3.528.485,5.3.131,2.491,2.645,2.83,4.833,2.689,1.734-.113,1.972-.579,1.765-3.189-.426-5.406-.826-10.818-1.362-16.214-.244-2.451.3-4.229,2.7-5.362a10.426,10.426,0,0,0,2.792-2.438c1.218-1.28,2.235-2.767,3.521-3.969,2.729-2.554,5.521-5.049,8.395-7.44a10.031,10.031,0,0,0,3.559-7.059c.185-2.063-2.038-2.961-3.34-4.254a7.787,7.787,0,0,0-1.23-.961c-2.182-1.443-3.371-1.327-5.277.432s-3.853,3.5-5.769,5.265c-.908.836-1.806,1.49-2.97.4a2.47,2.47,0,0,1-.67-3.353,12.012,12.012,0,0,1,1.806-2.144q5.324-5.277,10.693-10.511c.3-.291.635-.542.936-.83,2.4-2.31,4.949-4.5,7.149-6.99a5.807,5.807,0,0,1,4.608-2.094c3.647-.094,7.287-.341,10.93-.454,3.024-.091,6.05-.084,9.077-.106,1.265-.01,2.429.319,2.354,1.84-.119,2.388-.228,4.767-2.842,6.154a18.68,18.68,0,0,0-3.568,3.008c-3.509,3.243-6.254,7.281-10.37,9.9-1.205.767-1.33,1.934-1.083,3.312.376,2.082,2.11,2.595,3.525,3.634,6.038,4.448,11.979,9.024,17.923,13.6,1.214.933,2.285,2.053,3.65,3.3Zm-49.6,31.78c0-.053,0-.106,0-.16-7.19.25-14.386.391-21.57.789-6.52.36-7.825-.7-7.8-7.177.034-8.961.454-17.933-.7-26.866a10.928,10.928,0,0,1-.05-2.5c.169-1.662,1.224-2.157,2.595-1.2,1.79,1.249,2.3,3.093,2.351,5.187.15,6.357.357,12.711.554,19.069a17.12,17.12,0,0,0,.2,3.115c.407,1.875,1.158,3.59,3.133,4.379,2.639,1.055,4.088.15,4.057-2.667-.028-2.708-.285-5.415-.329-8.126-.106-6.464.135-12.949-.282-19.391q-1.108-17.18-1.1-34.378a48.031,48.031,0,0,0-.739-7.769c-.5-3.049-1.49-3.894-4.482-4.316-1.03-.144-2.075-.166-3.118-.207-2.288-.091-4.583-.091-6.864-.253-3.074-.222-3.512.019-3.478,3.161.05,4.8.3,9.584.438,14.38q.662,22.509,1.315,45.021c.028.939.128,1.875.141,2.811.059,5.2.116,10.408.141,15.61.006,1.146-.16,2.292-.175,3.437-.041,3.049.394,3.64,3.493,3.985a62.742,62.742,0,0,0,6.558.213c4.276.019,8.552-.11,12.824-.013,12.186.276,24.368.645,36.554.955,2.166.056,4.3-1.756,4.341-3.565.059-2.7-.657-3.349-3.906-3.5-.313-.016-.626-.019-.939-.019h-23.153Zm8.254-29.5a34.869,34.869,0,0,0,5.29.854c3.953.041,7.91-.156,11.866-.275,2.654-.081,3.252-.682,3.233-3.434-.041-5.957-1.912-11.005-7.074-14.517-1.371-.936-2.451-.977-3.6.138-1.643,1.593-3.271,3.2-4.9,4.808-.729.717-1.434,1.465-2.182,2.163a19.8,19.8,0,0,0-2.92,2.683c-2.1,2.98-4.05,6.007-7.362,7.891a4.392,4.392,0,0,0-2.1,3.985c0,4.9-.131,9.8.069,14.683.166,4.013,2.144,5.885,6.182,5.853,7.281-.06,14.561-.351,21.842-.57a3.708,3.708,0,0,0,1.089-.375c1.042-4.8.288-5.9-4.144-6.069-4.47-.175-8.943-.244-13.409-.473-1.819-.094-2.232-.751-2.182-2.664.047-1.719.422-2.2,2.266-2.2,3.018,0,6.035.135,9.052.269,2.855.125,5.709.323,8.993.513-.347-1.922-.548-3.44-.9-4.921-.782-3.258-1.111-3.33-4.523-3.111-3.841.25-7.7.269-11.55.335a3.08,3.08,0,0,1-3.211-2.016c-.482-1.258-1.143-2.551.185-3.547Zm33.927,17.782c-1.355,0-2.482.031-3.609-.009-.936-.034-1.869-.21-2.8-.229-2.1-.038-2.576.469-2.538,2.57.053,2.917.864,3.985,3.881,4.2,4.047.288,8.113.348,12.173.385,2.025.019,2.545-.538,2.564-2.679q.061-6.728-.1-13.453a4.219,4.219,0,0,0-.908-2.551c-1.878-2.078-3.878-4.063-5.938-5.963a33.889,33.889,0,0,0-4.213-3.237c-2.344-1.562-4.77-3-7.218-4.532a9.315,9.315,0,0,0-.642,5.19,2.427,2.427,0,0,0,2.063,2.385c1.427.3,2.876.517,4.294.858,3.368.811,3.618,1.3,2.535,4.992-1.9-.1-3.859-.313-5.816-.275-2.085.041-2.711.848-2.78,2.939a3.027,3.027,0,0,0,1.947,3.233,33.355,33.355,0,0,0,3.531,1.252c3.146.879,3.152.854,3.581,4.924Zm-17.526-59.319v.022a36.194,36.194,0,0,0-3.734.031c-1,.1-2.5.181-2.848.795-1.146,2.044-3.208,2.852-4.8,4.263-2.006,1.778-2.047,3.371-.2,5.337a37.675,37.675,0,0,0,3.2,2.955c2.723,2.3,4.5,2.307,7.018-.2,2.2-2.194,4.3-4.5,6.3-6.877a7.123,7.123,0,0,0,1.418-3.046c.435-2.085-.466-3.127-2.61-3.262-1.24-.078-2.492-.016-3.734-.016Zm19.009,77.718v.21c1.875,0,3.753.084,5.619-.041a2.892,2.892,0,0,0,2.082-.914c1.318-2.338-.764-5.816-3.437-5.863q-4.207-.07-8.42.041a20.663,20.663,0,0,0-3.719.435,2.276,2.276,0,0,0-1.434.986,3.563,3.563,0,0,0,3.068,5.127c2.075.106,4.16.022,6.241.022Z" transform="translate(-647.456 -1550.335)" fill="#ea563d"/><path d="M719.227,233.6c1.1-.413,2.031-.764,3.5-1.315-1.362-1.434-2.276-2.908-3.6-3.694-5.362-3.193-10.367-7.043-16.314-9.19-1.139-.413-2.326-.7-4.188-1.255.548,1.753.664,3.039,1.3,3.978,2.952,4.4,5.741,8.949,9.672,12.583a11.987,11.987,0,0,0,3.149,1.944c3.174,1.452,5.177,3.709,5.443,7.306.3,4.063-1.315,6.339-5.324,7.484-1.988.567-2.786,2.269-3.077,3.985-.783,4.6-1.443,9.234-1.9,13.876-.542,5.446.454,6.961,5.957,7.879,3.387.563,5.631,2.429,7.891,4.6a6.237,6.237,0,0,1,1.665,4.877c-.006,1.249,0,2.5,0,3.881-.523.313-1.02.648-1.549.927a5.4,5.4,0,0,0-3.218,4.648c-.063.93-.429,1.847-.444,2.773a4.09,4.09,0,0,1-3.653,4.385,4.494,4.494,0,0,0-4.094,4.435c-.3,4.348-.191,8.727-.094,13.087.013.579.948,1.139,1.459,1.706.682-.62,1.365-1.243,2.379-2.166.1.034.745.266,1.44.513,2.341-1.409.8-3.775,1.164-5.8a4.857,4.857,0,0,1,4.157,1.913c.886,1.024,1.778,2.05,2.576,3.143.732,1,1.5,1.659,2.864,1.387a2.444,2.444,0,0,1,2.864,1.875,7.086,7.086,0,0,1,.648,3.312c-.476,2.958-.87,5.982-2.845,8.473-2.319,2.927-4.269,6.226-6.943,8.771-2.282,2.175-5.343,3.54-8.094,5.209-.936.567-2.4.7-2.883,1.487a11.22,11.22,0,0,0-1.524,4.648c-.36,3.731-.372,7.493-.623,11.237a25.621,25.621,0,0,1-.711,3.334,25.12,25.12,0,0,0-.614,3.34c-.26,3.941-.3,7.9-.667,11.829-.57,6.116-1.346,12.211-2.006,18.318-.166,1.553-.15,3.124-.341,4.673-.228,1.841-.6,3.662-.9,5.5-.15.923-.291,1.847-.413,2.773-.175,1.343-.213,2.714-.513,4.025a189.6,189.6,0,0,0-3.628,26.615c-1,11.945-1.556,23.933-2.053,35.912-.191,4.564.266,9.159.5,13.738.135,2.611.529,5.265-1.074,7.581s-3.349,4.545-5.177,7.005a16.7,16.7,0,0,1-1.359-1.731c-3.487-6.157-7.487-12.073-9.6-18.906-.983-3.177-1.565-6.479-2.285-9.735q-2.132-9.616-4.21-19.244c-.485-2.241-.889-4.5-1.333-6.752-.423-2.125-.851-4.251-1.255-6.257a7.419,7.419,0,0,1,3.747,4.091q4.141,8.935,8.267,17.873a28.51,28.51,0,0,0,5.406,8.2c1.69-2.063,1.963-4.445,2.132-6.755.876-11.851,1.6-23.711,2.495-35.561A92.205,92.205,0,0,1,692.84,424.9a145.956,145.956,0,0,0,2.3-23,32.612,32.612,0,0,1,1.925-10.724,11.349,11.349,0,0,0,.554-3.982c.053-5.731-.279-11.475.992-17.141a14.359,14.359,0,0,0,.063-3.118c-.006-2.811-.028-5.622-.031-8.433,0-.833.078-1.668.047-2.5-.147-3.91-.523-4.216-4.351-4.044-5.1.228-10.2.454-15.309.563-3.747.081-4.6-.4-5.756-3.978a93.514,93.514,0,0,1-2.945-11.5,21.391,21.391,0,0,1,1.409-12.276c1-2.4,2.113-4.773,2.914-7.246,1.215-3.756,3.741-6.445,6.63-8.905,1.111-.945,2.138-2,3.309-2.864,2.889-2.125,3.024-5.212,3.406-8.649a25.832,25.832,0,0,0-2.955-.282c-2.06.053-4.113.207-6.169.319-.1.006-.232.044-.31,0-4.789-2.827-10.83-2.013-15.466-5.374a10.368,10.368,0,0,1-4.151-5.271c-1.446-4.417-2.554-8.843-1.283-13.488a9.263,9.263,0,0,1,1.29-2.773c.914-1.327,2.116-1.59,3.484-.4-.357.495-.7.97-1.121,1.549a8.564,8.564,0,0,0,6.611,3.565c7.807.448,15.6,1.061,23.4,1.621,2.47.178,3.7-.62,3.609-3.071a70.716,70.716,0,0,0-1.121-8.971c-.31-1.875-1.819-2.507-3.512-2.429-3.534.16-7.09.282-10.589.751a10,10,0,0,1-7.647-2.013c.614-1.759,2.1-2.072,3.443-2.492,1.39-.435,2.852-.639,4.244-1.064a7.925,7.925,0,0,0,2.517-1.189c1.944-1.515,1.75-3.612-.429-4.761A9.827,9.827,0,0,0,678.9,250.3c-5.374-.864-10.016-3.387-14.492-6.292-2.776-1.8-6.223-2.492-8.5-5.143-2.642-3.083-5.381-6.088-7.957-9.224-1.646-2.006-3.071-4.194-4.608-6.292-2.26-3.08-2.651-6.661-3.021-10.771,1.161.451,2,.714,2.789,1.1a7.114,7.114,0,0,0,4.811.82,6.062,6.062,0,0,1,2.917.635c1.656.588,3.24,1.39,4.908,1.934,2.432.8,4.946,1.355,7.359,2.2a7.325,7.325,0,0,1,2.852,1.85,7.987,7.987,0,0,0,4.936,2.445,19.453,19.453,0,0,1,8.548,3.628c1.672,1.2,1.984,1.221,4.429,1.171.948-1.246.241-2.36-.454-3.368q-2.939-4.24-6.013-8.389a35.615,35.615,0,0,1-5.587-9.722,17.292,17.292,0,0,0-2.038-3.249c-1.931,2.069-1.991,4.3-2.232,6.392a9.486,9.486,0,0,1-2.945,6.364,10.111,10.111,0,0,1-1.74.917c.285-1.462.419-2.46.676-3.424.992-3.728,1.959-7.462,3.061-11.159a4.254,4.254,0,0,0-1.074-4.589c-1.615-1.628-3.205-3.287-4.911-4.817a102.389,102.389,0,0,1-15.075-17.1,57.367,57.367,0,0,1-10.01-27.238c-.138-1.205-.222-2.416-.357-3.9a12.884,12.884,0,0,1,6.276,3.863q8.752,8.489,17.26,17.231c3.409,3.518,6.551,7.29,9.844,10.921.664.732,1.468,1.337,2.557,2.313a36.934,36.934,0,0,0,2.357-5.168c.889-3.212,1.477-6.5,2.226-9.757.254-1.1.61-2.175.936-3.258a8.891,8.891,0,0,0,.5-1.474A128.782,128.782,0,0,1,680.8,142.44a18.955,18.955,0,0,0,.182-5.252c-.044-1.189-.191-2.191,1.146-2.917a2.2,2.2,0,0,0,.679-2.056c-1.152-2.3-.739-4.7-.758-7.074-.044-5.528.006-11.059-.1-16.587a23.7,23.7,0,0,0-3.888-12.705,8.089,8.089,0,0,0-11.666-2.42c-.52.338-1.146.523-1.64.889-1.24.917-2.867,1.653-3.559,2.9-1.912,3.431-3.694,6.971-4.238,10.974-.507,3.719-1.127,7.418-1.725,11.124a4.3,4.3,0,0,1-.548,1.781c-2.357,3.255-3.061,7.058-3.565,10.883-.588,4.482-2.88,7.966-6.007,10.993-2.542,2.463-4.673,2.185-6.664-.776-1.1-1.64-2.169-3.305-3.121-5.033a7.467,7.467,0,0,1-.554-2.351c-.069-.4.178-1-.022-1.2-2.006-1.944-1.07-4.52-1.593-6.774-.642-2.767.432-5.04,1.953-6.949a34.377,34.377,0,0,0,5.96-12.624c1.055-3.809,2.282-7.594,3.011-11.469.792-4.188.945-8.5,1.659-12.7.6-3.571,1.747-7.052,2.4-10.617.977-5.3,1.819-10.627,2.567-15.967.642-4.589,2.4-8.818,3.831-13.162,1.628-4.942,3.352-9.869,4.6-14.912a61.544,61.544,0,0,1,5.1-12.74A15.778,15.778,0,0,0,665.971,7C665.432.26,668.838-.939,673.94.582a9.526,9.526,0,0,1,4.877,3.193,39.677,39.677,0,0,0,4.116,3.8c1.984,1.841,4.035,3.618,5.9,5.575a14.934,14.934,0,0,1,4.251,9.171,4.48,4.48,0,0,1-1.891,4.536c-2.88,2.213-6,4.332-8.226,7.124-3.415,4.273-7.675,8-9.628,13.356-1.036,2.839-2.21,5.628-3.177,8.489-.764,2.254-.15,2.955,2.341,3.1,4.16.247,8.332.372,12.474.8,5.177.526,9.124,3.406,12.314,7.3a10.522,10.522,0,0,1,2.182,6.414,62.383,62.383,0,0,1-1.327,15.234,12.545,12.545,0,0,0-.351,1.521c-.526,6.846-1.074,13.691-1.515,20.546a15.361,15.361,0,0,1-1.268,5.327c-1.221,2.817-1.612,6-2.3,9.037-.272,1.214-.241,2.513-.607,3.69-1.65,5.274-3.443,10.5-5.086,15.779-.9,2.88-1.574,5.825-2.379,8.73-.579,2.091-1.2,4.169-1.812,6.251-.088.3-.244.579-.329.88-1.9,6.592-3.744,13.2-5.709,19.77-.657,2.191-.044,3.665,1.559,5.249a46.542,46.542,0,0,0,14.336,9.907c7.544,3.2,14.377,7.559,21.435,11.531,7.256,4.085,13.973,9.115,21.194,13.262a34.724,34.724,0,0,1,10.289,8.927,43.261,43.261,0,0,1,4.157,7.29,4.34,4.34,0,0,1,.275,2.758,21.245,21.245,0,0,0-.613,7.963c.21,1.6-1.343,2.182-2.607,2.726-1.233.532-1.988-.172-2.626-1.064a5.424,5.424,0,0,0-3.687-2.047,6.523,6.523,0,0,1-3.387-1.894,4.775,4.775,0,0,0-3.747-1.8c-4.47-.125-8.1-2.517-11.754-4.689-1.7-1.008-2.063-2.122-2.379-4.723ZM696.01,314.074a23.294,23.294,0,0,0-3.553,2.611A65.732,65.732,0,0,0,681.706,332.3c-1.236,2.62-.46,4.288,2.454,4.573a34.186,34.186,0,0,0,6.207-.285c3.775-.326,5.753-2.7,6.482-6.166a38.654,38.654,0,0,0,.385-12.749A20.712,20.712,0,0,0,696.01,314.074Z" transform="translate(-256.84 69.005)"/><path d="M589.3,2603.734c-5.356,1.293-10.705,2.529-16.029,3.885-3.731.951-7.4,2.156-11.143,3.061a51.63,51.63,0,0,1-5.882.745c-2.585.313-5.2.495-7.747.98-3.089.588-3.941,1.8-3.224,4.861,1.071,4.585.732,9.156.047,13.685a75.347,75.347,0,0,1-2.413,9.656,12.647,12.647,0,0,1-1.693,2.967c-1.6,2.542-3.1,5.158-4.874,7.569a39.418,39.418,0,0,1-4.113,4.235c-1.837,1.837-3.69,3.656-5.525,5.493-1.027,1.027-2.047,2.063-3.036,3.127-.911.98-1.8,1.988-2.657,3.014a14.931,14.931,0,0,1-1.521,1.962c-5.737,4.8-8.893,11.156-10.93,18.167-.808,2.779-2.914,4.526-4.9,6.338a27.815,27.815,0,0,1-5.2,3.988,20.2,20.2,0,0,1-5.816,1.9c-1.2.232-3.659-3-3.728-4.542a8.365,8.365,0,0,1,.141-1.549c.4-2.745-.457-4.3-2.992-5.34-.67-.275-1.581-.294-2.013-.767-3.359-3.672-8.11-4.05-12.464-5.2-2.329-.617-4.57-1.578-7.177-1.578-1.862,0-3.7-1.693-5.587-2.545-4.93-2.222-9.829-4.526-14.846-6.53a40.625,40.625,0,0,0-7.268-1.753c-3.262-.642-6.6-.879-9.647-2.454a14.239,14.239,0,0,1-5.659-5.083,70.128,70.128,0,0,1-5.568-10.417,13.216,13.216,0,0,1-.567-2.783l.679-.432a20.605,20.605,0,0,1,2.36,1.678c1.368,1.283,2.629,2.679,3.953,4.01,1.393,1.4,2.708,2.92,4.783,3.371a1.631,1.631,0,0,1,.814.451c3.058,3.371,7.387,3.619,11.394,4.5,4.373.958,8.868,1.362,13.24,2.323,10.686,2.347,21.52,2.451,32.372,2.463,3.337,0,6.683.119,10.013-.031a24.655,24.655,0,0,0,10.148-2.282,21.127,21.127,0,0,0,7.284-5.891,76.42,76.42,0,0,1,6.307-6.048c3.841-3.687,7.556-7.446,9.76-12.461a20.308,20.308,0,0,1,3.2-4.576c2.185-2.62,2.93-7.944,1.29-10.865a8.855,8.855,0,0,0-1.831-2.1,2.055,2.055,0,0,0-3.071.1,6.67,6.67,0,0,0-1.077,1.13c-3.6,5.54-9.384,6.27-15.147,6.448a100.379,100.379,0,0,1-13.4-.883c-5.074-.529-10.229-.883-15.144-2.125-2.745-.695-5.174-2.9-7.55-4.686-1.13-.848-.955-2.307.182-3.284a34.326,34.326,0,0,1,3.969-3.027c3.518-2.229,7.005-4.535,10.686-6.464a54.429,54.429,0,0,1,9.785-4.053c2.448-.72,4.4-2.607,7.209-2.545,1.49.031,2.316-1.753,1.706-3.327a41.777,41.777,0,0,0-3.124-6.432,59.734,59.734,0,0,1-6.451-16.543,16.739,16.739,0,0,1,.4-8.63,43.088,43.088,0,0,0,1.036-8.035,39.339,39.339,0,0,1,4.8-15.056c2.589-4.961,6.335-9.293,7.866-14.849a16.816,16.816,0,0,1,2.758-5.205c2.091-2.867,2.736-6.285,3.994-9.466s2.207-6.388,4.26-9.3c2.676-3.787,2.523-8.314,1.233-12.655a4.628,4.628,0,0,0-4.651-3.512,18.967,18.967,0,0,0-9.944,2.232c-1.346.779-2.823,1.333-4.2,2.06-2.016,1.061-3.975,1.027-6.282.764-6.467-.742-12.618-2.742-18.934-4.038a5.6,5.6,0,0,1-3.518-9.04,8.029,8.029,0,0,1,1.693-1.834c3.484-2.464,5.659-6.1,8.307-9.293,2.667-3.211,4.166-7.159,5.594-11.043a10.009,10.009,0,0,1,4.3-5.537,5.092,5.092,0,0,0,1.524-1.064c2.839-3.744,6.811-5.659,11.115-7.093a9.578,9.578,0,0,0,1.956-.974,14.983,14.983,0,0,1,12.583-1.615,48.239,48.239,0,0,1,9.428,4.072,13.353,13.353,0,0,1,4.1,4.179,23.177,23.177,0,0,1,3.744,17.31c-1.412,8.526-3.155,17.006-5.027,25.448-.67,3.024-2.31,5.819-3.2,8.811a50.074,50.074,0,0,1-7.083,14.17,19.219,19.219,0,0,0-1.327,2.82q-3.047,6.493-6.1,12.987c-.131.282-.363.526-.463.814-2.473,7.1-6.727,13.334-9.722,20.18a15.831,15.831,0,0,0,.307,13.613c.67,1.424,2.082,2.523,3.24,3.687,1.017,1.027,2,2.366,3.262,2.82,3.709,1.327,5.975,4.4,8.83,6.745,2.573,2.11,5,4.4,7.387,6.723,3.1,3.014,5.9,3.666,9.841,1.781a19.356,19.356,0,0,1,6.545-1.9,8.4,8.4,0,0,0,2.692-.736,42.3,42.3,0,0,1,15.948-4.06c4.06-.2,8.132-.135,12.2-.222a3.5,3.5,0,0,1,3.321,1.853c1.546,2.451,3.337,4.748,4.939,7.165a7.7,7.7,0,0,1,.842,2.316c.207.8.056,1.775.457,2.432,1.33,2.176.711,4.194-.344,6.661Z" transform="translate(-107.279 -1609.555)"/><path d="M269.56,347.564a21.594,21.594,0,0,1,3.393,1.656,56.684,56.684,0,0,1,5.568,4.545,50.218,50.218,0,0,0,16.993,10.871c2.241.845,4.417,1.872,6.626,2.8.864.366,1.731.729,2.617,1.045,4.764,1.706,6.958.454,8.423-4.326,1.089-3.562,2.6-6.993,3.891-10.5a6.28,6.28,0,0,0,.466-2.107,46.936,46.936,0,0,1,2.038-12.592,38.962,38.962,0,0,0,1.127-8.029q.742-12.33,1.236-24.675a153.933,153.933,0,0,0-1-25.611c-.57-4.445-1.146-8.9-1.518-13.359a62.734,62.734,0,0,0-5.39-20.793,122.376,122.376,0,0,0-6.417-12.492,108.417,108.417,0,0,0-6.965-9.594c-2.952-3.881-5.916-7.76-9.008-11.528a18.307,18.307,0,0,0-6.223-5.058,108.021,108.021,0,0,1-10.379-6.382,4.062,4.062,0,0,1-1.931-3.715c.041-1.756.157-3.512.238-5.271,1.039.053,2.107.451,2.661.085,4.057-2.692,8.555-2.573,12.987-1.928,6.439.939,11.926,4.019,16.95,8.151a103.67,103.67,0,0,1,13.96,13.419c1.8,2.15,3.139,4.676,4.9,6.861a73.875,73.875,0,0,1,12.8,24.127c1.931,6.082,4.467,12.157,4.066,18.84-.147,2.473.423,4.98.545,7.478.1,2.057.019,4.122.013,6.182,0,.313-.047.626-.031.936.263,6.132.52,12.264.8,18.4.06,1.258.282,2.451-1.139,3.277-.438.254-.635,1.233-.639,1.884-.006,5.2.047,10.4.11,15.6a6.447,6.447,0,0,1-1.286,4.388,19.584,19.584,0,0,0-1.668,3.105c-.829-.332-1.653-.664-2.764-1.111a5.368,5.368,0,0,0,.269,1.3c2.207,4.047,2.31,4.332,1.1,8.433a5.741,5.741,0,0,1-1.725,2.5,5.8,5.8,0,0,0-1.991,5.008,17.551,17.551,0,0,1-.338,4.341c-.526,2.457-.886,2.661-3.75,3-.113.754-.178,1.568-.36,2.354-.692,2.983-.736,6.144-3.321,8.5-1.512,1.374-.883,3.784-1.609,5.487-.689,1.618-2.476,2.739-2.629,4.8a7.832,7.832,0,0,1-2.852,5.368,11.165,11.165,0,0,0-3.634,6.072,6.67,6.67,0,0,1-2.31,3.928,9.452,9.452,0,0,0-2.113,3.728,4.077,4.077,0,0,1-2.291,2.348,17.412,17.412,0,0,0-3.033,2.15c-1.715,1.312-2.351,1.54-3.725-.135a94.1,94.1,0,0,1-7.475-10.342,30.53,30.53,0,0,0-4.617-6.166c-3.715-3.631-7.616-7.321-10.3-11.685-2.413-3.913-5.666-7.146-7.879-11.134-.679-1.227-1.778-2.31-1.456-4.445Z" transform="translate(-7.154 -61.682)"/><path d="M160.379,612.054c2.745,1.092,3.769,3.262,4.639,5.274,1.139,2.629,2.529,4.717,5.371,5.656a4.633,4.633,0,0,1,1.994,1.437c2.37,2.9,4.7,5.844,6.943,8.849a4.668,4.668,0,0,1,1.146,2.783c-.369,3.856-.98,7.7-4,10.577a16.341,16.341,0,0,0-5.018,11.441,65.216,65.216,0,0,0,1.79,18.618,38.6,38.6,0,0,0,2.51,6.373c1.9,4.354.783,8.614-.372,12.849a3.844,3.844,0,0,1-3.7,2.873c-3.975.344-7.7-.153-10.84-2.927a5.149,5.149,0,0,0-2.128-1.208,13.247,13.247,0,0,1-7.922-5.155c-3.418-4.592-6.733-9.265-10.048-13.935-.639-.9-1.418-1.753-1.036-3.124.122-.441-.51-1.368-1.03-1.668-5.562-3.24-10.545-7.478-16.677-9.738-.582-.216-1.227-.767-1.715-.648-2.326.563-3.647-1.027-5.252-2.135a56.772,56.772,0,0,0-6.066-3.831c-6.019-3.108-12.164-5.975-18.161-9.127C84.27,641.853,77.95,638,71.346,634.713a146.16,146.16,0,0,1-17.751-10.47,68.532,68.532,0,0,1-7.155-5.531,167.69,167.69,0,0,1-12.414-11.854c-4.388-4.867-8.336-10.145-12.314-15.369-1.631-2.141-2.683-4.717-4.269-6.9-1.65-2.266-3.766-3.972-6.824-3.008-2.858-2.548-5.578-5.121-8.473-7.481A4.049,4.049,0,0,1,.4,570.971c-.172-6.767-.563-13.55-.326-20.305.228-6.457,7.268-7.584,11.531-5.121,1.258.726,2.454,1.565,3.719,2.282,2.842,1.615,4.676,3.809,4.382,7.293a6.042,6.042,0,0,0,1.593,4.561c2.579,3.118,3.825,6.886,4.852,10.743,1.071,4.028,2.022,8.11,3.418,12.026a49.11,49.11,0,0,0,4.035,8.063c6.035,10.38,14.111,19.116,22.772,27.276,3.224,3.036,7.2,5.29,10.918,7.781a69.517,69.517,0,0,0,6.47,3.75c2.949,1.546,5.953,2.986,8.952,4.439,4.028,1.95,8.113,3.784,12.1,5.816,7.879,4.013,15.594,8.367,23.585,12.135,8.858,4.176,17.954,7.85,26.938,11.76A2.866,2.866,0,0,0,148.8,663a21.045,21.045,0,0,0,4.73-6.808c1.981-4.5,2.232-9.268,3.33-13.9a17.6,17.6,0,0,1,1.227-4.185c3.2-6.047,2.8-12.5,2.329-18.962-.163-2.241-.726-4.47-.041-7.105Z" transform="translate(177.999 -304.954)"/><path d="M451.355,1200.284V1215.3a7.451,7.451,0,0,0,.013,1.869,5.292,5.292,0,0,0,1.136,2.633c.335.285,1.75-.3,2.388-.842,3.1-2.611,6.166-5.268,9.131-8.035,3.772-3.521,7.879-5.753,13.3-5.932,4.232-.141,8.3.56,12.423.98a4.4,4.4,0,0,1,2.548,1.505,54.743,54.743,0,0,1,3.731,5.011c2.373,3.453.291,9.431-3.678,10.833-1.346.476-2.6,1.208-3.925,1.756-1.815.751-3.684,1.374-5.478,2.166-2.924,1.29-5.784,2.717-8.711,4a27.9,27.9,0,0,1-5.471,2.041,12.982,12.982,0,0,0-8.145,4.548c-2.889,3.481-4.5,7.434-6.276,11.4-.469,1.045-.814,2.154-1.362,3.155a37.385,37.385,0,0,0-4.335,19.263,18.548,18.548,0,0,0,8.1,15.144,15.468,15.468,0,0,0,9.985,3c2.141-.1,3-.911,3.243-3.039.163-1.446.088-2.92.21-4.373.106-1.274.385-2.532,1.834-2.983,1.1-.341,3.03.554,3.769,1.722a6.6,6.6,0,0,1,.623,1.427,26.374,26.374,0,0,0,4.892,8.661,8.463,8.463,0,0,1,1.59,3.324c.542,2.169-.128,3.108-2.254,3.659a6.327,6.327,0,0,1-1.23.21c-7.891.379-15.776-.1-23.038-3.287-6.673-2.93-12.417-7.509-15.773-14.167a35.456,35.456,0,0,1-2.87-10.486,37.161,37.161,0,0,1,.545-14.6c1.612-6.57,2.892-13.256,6.554-19.128a9.491,9.491,0,0,0,.97-2.3c.942-3.127.485-4.739-2.382-6.27a10.5,10.5,0,0,1-5.5-7.9c-1.258-6.758-2.266-13.506-1.856-20.468.629-10.664-.729-21.241-2.442-31.746-.961-5.9-3.922-10.962-7.594-15.572-2.686-3.371-5.127-6.817-6.285-11.049-.826-3.017-.316-5.687,1.559-7.193,1.208-.967,1.959-.886,2.883.341a2.306,2.306,0,0,1,.466.811c1.067,4.88,4.658,8.135,7.875,11.437,3.982,4.085,6.952,8.827,10.167,13.435,5.443,7.8,7.109,16.749,7.781,25.968.341,4.679.457,9.372.673,14.061.075,0,.147,0,.222-.006Z" transform="translate(-110.094 -709.755)"/><path d="M520.816,1754.457c1.684.98,1.944,2.172,1.246,3.731a57.068,57.068,0,0,0-2.748,6.908,63.976,63.976,0,0,0-1.412,7.008c-.294,1.637-.357,3.33-.789,4.927-.939,3.456-.773,6.99-1.114,10.489-1.024,10.5-1.045,21.019-1.274,31.539a87.811,87.811,0,0,1-1.027,10.858c-.667,4.536-1.518,9.049-2.451,13.538-.57,2.745-1.487,5.415-2.172,8.138-.507,2.013-.952,4.047-1.324,6.088-.551,3.014-.232,6.317-3.246,8.433-.488.341-.654,1.286-.776,1.988-1.6,9.137-3.274,18.261-4.7,27.423-1.387,8.915-.9,17.907-.379,26.857a141.358,141.358,0,0,0,1.869,15.2,76.972,76.972,0,0,0,6.939,21.31c1.286,2.617,2.266,5.381,3.424,8.06,1.446,3.346,2.776,6.761,4.467,9.982a20.523,20.523,0,0,0,3.96,5.161,10.37,10.37,0,0,1,3.1,10.007c-.482,2.373-1.321,5.064-4.335,5.925a2.427,2.427,0,0,1-2.8-.732,23.517,23.517,0,0,0-5.584-5.315c-1.271-.776-2.11-2.858-2.426-4.492-1.092-5.625-1.628-11.365-2.833-16.962-1.315-6.107-2.914-12.173-4.8-18.13-2.532-8.007-3.756-16.239-4.955-24.493a157.076,157.076,0,0,1-1.365-25.9,116.4,116.4,0,0,1,2.748-23.874c.773-3.349,1.233-6.767,1.856-10.148.3-1.618.416-3.23,1.706-4.586a4.357,4.357,0,0,0,.632-2.942c-.319-5.531,1.1-10.711,2.877-15.863a23.139,23.139,0,0,0,1.211-8.6,16.959,16.959,0,0,1,1.812-9.378,4.178,4.178,0,0,0,.485-2.635c-1-5.309-.429-10.62.063-15.885a158.045,158.045,0,0,0,1.061-16.828c-.085-6.554.729-13.134.426-19.67-.376-8.1-1.493-16.164-2.307-24.243-.357-3.525-.973-7.037-1.1-10.567-.257-7.4-.341-14.809-.341-22.214,0-3.33.394-6.658.545-9.988.122-2.708.16-5.415.207-8.126.019-1.1.131-2.3,1.305-2.56a4.768,4.768,0,0,1,2.9.413,8.233,8.233,0,0,1,2.326,2.06c2.066,2.338,3.909,4.9,6.138,7.068,3.816,3.709,5.259,8.357,6.179,13.375,1.631,8.905,1.261,17.873,1.011,26.838a11.436,11.436,0,0,1-1.152,3.813c-.942,2.3-2,4.558-3.074,6.99Z" transform="translate(-160.862 -1094.632)"/><path d="M612.826,962.083c1.521.21,1.7,1.139,1.421,2.438q-1.775,8.414-3.5,16.843a9.74,9.74,0,0,0-.438,2.438c.279,4.68.451,9.378,1.036,14.02a20.714,20.714,0,0,1-2.31,11.776c-3.033,6.326-13.575,7.09-17.181,2.42-2.376-3.077-4.125-6.608-3.925-10.642.131-2.642-.078-5.456,1.881-7.725a2.992,2.992,0,0,0,.5-1.762c.091-2.877,2.626-4.761,5.387-5.171a56.172,56.172,0,0,0,6.67-1.6,7.054,7.054,0,0,0,5.149-5.359c1.565-5.719,3.205-11.422,4.83-17.125.05-.175.26-.307.479-.554Z" transform="translate(-225.887 -591.935)"/></g></svg>